<?xml version="1.0" encoding="UTF-8"?>
<svg width="900" height="600" xmlns="http://www.w3.org/2000/svg">
    <defs>
        <!-- Gradients -->
        <linearGradient id="smGradient" x1="0%" y1="0%" x2="0%" y2="100%">
            <stop offset="0%" style="stop-color:#e67e22;stop-opacity:0.9"/>
            <stop offset="100%" style="stop-color:#d35400;stop-opacity:0.9"/>
        </linearGradient>
        <linearGradient id="coreGradient" x1="0%" y1="0%" x2="0%" y2="100%">
            <stop offset="0%" style="stop-color:#f1c40f;stop-opacity:0.9"/>
            <stop offset="100%" style="stop-color:#f39c12;stop-opacity:0.9"/>
        </linearGradient>
        <linearGradient id="cacheGradient" x1="0%" y1="0%" x2="0%" y2="100%">
            <stop offset="0%" style="stop-color:#3498db;stop-opacity:0.9"/>
            <stop offset="100%" style="stop-color:#2980b9;stop-opacity:0.9"/>
        </linearGradient>
        <linearGradient id="memGradient" x1="0%" y1="0%" x2="0%" y2="100%">
            <stop offset="0%" style="stop-color:#95a5a6;stop-opacity:0.9"/>
            <stop offset="100%" style="stop-color:#7f8c8d;stop-opacity:0.9"/>
        </linearGradient>
    </defs>

    <!-- GPU Block -->
    <rect x="50" y="100" width="500" height="400" rx="10" fill="#f8f9fa" stroke="#2c3e50" stroke-width="2"/>
    <text x="300" y="140" text-anchor="middle" font-family="Arial" font-size="24" fill="#2c3e50">GPU</text>

    <!-- 4x4 Grid of SMs -->
    <g id="sm">
        <rect width="100" height="70" rx="5" fill="#f8f9fa" stroke="#2c3e50"/>
        <!-- Control Unit -->
        <rect x="10" y="10" width="80" height="10" rx="2" fill="url(#smGradient)" stroke="#2c3e50"/>
        <!-- Cores -->
        <g transform="translate(10,25)">
            <rect width="15" height="15" rx="2" fill="url(#coreGradient)" stroke="#2c3e50"/>
            <rect x="22" width="15" height="15" rx="2" fill="url(#coreGradient)" stroke="#2c3e50"/>
            <rect x="44" width="15" height="15" rx="2" fill="url(#coreGradient)" stroke="#2c3e50"/>
            <rect x="66" width="15" height="15" rx="2" fill="url(#coreGradient)" stroke="#2c3e50"/>
        </g>
        <!-- Cache -->
        <rect x="10" y="45" width="80" height="15" rx="2" fill="url(#cacheGradient)" stroke="#2c3e50"/>
    </g>

    <!-- Generate 4x4 grid -->
    <g transform="translate(70,170)">
        <use href="#sm"/>
        <use href="#sm" x="110"/>
        <use href="#sm" x="220"/>
        <use href="#sm" x="330"/>
        
        <use href="#sm" y="80"/>
        <use href="#sm" x="110" y="80"/>
        <use href="#sm" x="220" y="80"/>
        <use href="#sm" x="330" y="80"/>
        
        <use href="#sm" y="160"/>
        <use href="#sm" x="110" y="160"/>
        <use href="#sm" x="220" y="160"/>
        <use href="#sm" x="330" y="160"/>
        
        <use href="#sm" y="240"/>
        <use href="#sm" x="110" y="240"/>
        <use href="#sm" x="220" y="240"/>
        <use href="#sm" x="330" y="240"/>
    </g>

    <!-- Memory Bandwidth Arrow -->
    <g transform="translate(550,300)">
        <!-- Arrow -->
        <line x1="0" y1="0" x2="150" y2="0" stroke="#2c3e50" stroke-width="4" marker-end="url(#arrowhead)"/>
        <!-- Labels -->
        <text x="75" y="-20" text-anchor="middle" font-family="Arial" font-size="16" fill="#2c3e50">~150-300 GB/sec</text>
        <text x="75" y="-5" text-anchor="middle" font-family="Arial" font-size="14" fill="#2c3e50">(high end GPUs)</text>
    </g>

    <!-- Memory Block -->
    <rect x="700" y="100" width="150" height="400" rx="10" fill="url(#memGradient)" stroke="#2c3e50" stroke-width="2"/>
    <text x="775" y="140" text-anchor="middle" font-family="Arial" font-size="24" fill="white">Memory</text>
    <text x="775" y="170" text-anchor="middle" font-family="Arial" font-size="20" fill="white">DDR5 DRAM</text>
    <text x="775" y="200" text-anchor="middle" font-family="Arial" font-size="18" fill="white">(~1 GB)</text>

    <!-- Footer -->
    <text x="450" y="550" text-anchor="middle" font-family="Arial" font-size="14" fill="#2c3e50">.footnote[GWU ECE 6125 - Armin Mehrabian - Fall 2023]</text>

    <!-- Arrow Marker -->
    <defs>
        <marker id="arrowhead" markerWidth="10" markerHeight="7" refX="9" refY="3.5" orient="auto">
            <polygon points="0 0, 10 3.5, 0 7" fill="#2c3e50"/>
        </marker>
    </defs>
</svg> 