<?xml version="1.0" encoding="UTF-8"?>
<svg viewBox="0 0 800 550" xmlns="http://www.w3.org/2000/svg">
  <!-- Background -->
  <rect width="800" height="550" fill="#f8f9fa" rx="10" ry="10"/>
  
  <!-- Title -->
  <text x="400" y="40" font-family="Arial, sans-serif" font-size="28" font-weight="bold" text-anchor="middle" fill="#333">Global Memory — The Bottleneck</text>
  
  <!-- Main Layout -->
  <g transform="translate(50, 80)">
    <!-- Hardware Components -->
    <g>
      <!-- SMs (Streaming Multiprocessors) -->
      <g>
        <rect x="0" y="0" width="300" height="180" rx="8" ry="8" fill="#e6e6e6" stroke="#ccc" stroke-width="2"/>
        <text x="150" y="25" font-family="Arial, sans-serif" font-size="18" font-weight="bold" text-anchor="middle" fill="#333">Streaming Multiprocessors (SMs)</text>
        
        <!-- Multiple Warps -->
        <g transform="translate(20, 40)">
          <rect x="0" y="0" width="80" height="50" rx="5" ry="5" fill="#4285f4" stroke="#2a56c6" stroke-width="1"/>
          <text x="40" y="30" font-family="Arial, sans-serif" font-size="14" text-anchor="middle" fill="white">Warp 1</text>
          
          <rect x="90" y="0" width="80" height="50" rx="5" ry="5" fill="#4285f4" stroke="#2a56c6" stroke-width="1"/>
          <text x="130" y="30" font-family="Arial, sans-serif" font-size="14" text-anchor="middle" fill="white">Warp 2</text>
          
          <rect x="180" y="0" width="80" height="50" rx="5" ry="5" fill="#4285f4" stroke="#2a56c6" stroke-width="1"/>
          <text x="220" y="30" font-family="Arial, sans-serif" font-size="14" text-anchor="middle" fill="white">Warp 3</text>
          
          <rect x="0" y="60" width="80" height="50" rx="5" ry="5" fill="#4285f4" stroke="#2a56c6" stroke-width="1"/>
          <text x="40" y="90" font-family="Arial, sans-serif" font-size="14" text-anchor="middle" fill="white">Warp 4</text>
          
          <rect x="90" y="60" width="80" height="50" rx="5" ry="5" fill="#4285f4" stroke="#2a56c6" stroke-width="1"/>
          <text x="130" y="90" font-family="Arial, sans-serif" font-size="14" text-anchor="middle" fill="white">Warp 5</text>
          
          <rect x="180" y="60" width="80" height="50" rx="5" ry="5" fill="#4285f4" stroke="#2a56c6" stroke-width="1"/>
          <text x="220" y="90" font-family="Arial, sans-serif" font-size="14" text-anchor="middle" fill="white">Warp 6</text>
        </g>
      </g>
      
      <!-- Memory Bottleneck -->
      <g transform="translate(300, 0)">
        <!-- Bottleneck Pipe -->
        <path d="M0,90 L100,40 L100,140 L0,90 Z" fill="#ff6b6b" stroke="#d63031" stroke-width="2"/>
        <text x="50" y="95" font-family="Arial, sans-serif" font-size="14" font-weight="bold" text-anchor="middle" fill="white">BOTTLENECK</text>
        
        <!-- Latency Label -->
        <rect x="30" y="155" width="120" height="25" rx="12" ry="12" fill="#e17055" stroke="#d63031" stroke-width="1"/>
        <text x="90" y="173" font-family="Arial, sans-serif" font-size="14" text-anchor="middle" fill="white">400-600 cycles</text>
      </g>
      
      <!-- Global Memory -->
      <g transform="translate(400, 0)">
        <rect x="0" y="0" width="300" height="180" rx="8" ry="8" fill="#74b9ff" stroke="#0984e3" stroke-width="2"/>
        <text x="150" y="25" font-family="Arial, sans-serif" font-size="18" font-weight="bold" text-anchor="middle" fill="#333">Global Memory</text>
        
        <!-- Memory Layout -->
        <g transform="translate(30, 40)">
          <!-- Memory Banks -->
          <rect x="0" y="0" width="240" height="120" rx="5" ry="5" fill="#dfe6e9" stroke="#b2bec3" stroke-width="1"/>
          
          <!-- Memory Addresses -->
          <g transform="translate(10, 10)">
            <rect x="0" y="0" width="40" height="20" rx="3" ry="3" fill="#636e72" stroke="#2d3436" stroke-width="1"/>
            <rect x="50" y="0" width="40" height="20" rx="3" ry="3" fill="#636e72" stroke="#2d3436" stroke-width="1"/>
            <rect x="100" y="0" width="40" height="20" rx="3" ry="3" fill="#636e72" stroke="#2d3436" stroke-width="1"/>
            <rect x="150" y="0" width="40" height="20" rx="3" ry="3" fill="#636e72" stroke="#2d3436" stroke-width="1"/>
            
            <rect x="0" y="30" width="40" height="20" rx="3" ry="3" fill="#636e72" stroke="#2d3436" stroke-width="1"/>
            <rect x="50" y="30" width="40" height="20" rx="3" ry="3" fill="#636e72" stroke="#2d3436" stroke-width="1"/>
            <rect x="100" y="30" width="40" height="20" rx="3" ry="3" fill="#636e72" stroke="#2d3436" stroke-width="1"/>
            <rect x="150" y="30" width="40" height="20" rx="3" ry="3" fill="#636e72" stroke="#2d3436" stroke-width="1"/>
            
            <rect x="0" y="60" width="40" height="20" rx="3" ry="3" fill="#636e72" stroke="#2d3436" stroke-width="1"/>
            <rect x="50" y="60" width="40" height="20" rx="3" ry="3" fill="#636e72" stroke="#2d3436" stroke-width="1"/>
            <rect x="100" y="60" width="40" height="20" rx="3" ry="3" fill="#636e72" stroke="#2d3436" stroke-width="1"/>
            <rect x="150" y="60" width="40" height="20" rx="3" ry="3" fill="#636e72" stroke="#2d3436" stroke-width="1"/>
          </g>
        </g>
      </g>
    </g>
    
    <!-- Access Patterns -->
    <g transform="translate(0, 210)">
      <text x="350" y="20" font-family="Arial, sans-serif" font-size="20" font-weight="bold" text-anchor="middle" fill="#333">Memory Access Patterns</text>
      
      <!-- Coalesced Access -->
      <g transform="translate(50, 40)">
        <rect x="0" y="0" width="250" height="140" rx="8" ry="8" fill="#e6e6e6" stroke="#ccc" stroke-width="2"/>
        <text x="125" y="25" font-family="Arial, sans-serif" font-size="18" font-weight="bold" text-anchor="middle" fill="#333">Coalesced Access</text>
        
        <!-- Threads -->
        <g transform="translate(25, 40)">
          <circle cx="10" cy="10" r="10" fill="#4285f4"/>
          <text x="10" y="14" font-family="Arial, sans-serif" font-size="12" text-anchor="middle" fill="white">T1</text>
          
          <circle cx="40" cy="10" r="10" fill="#4285f4"/>
          <text x="40" y="14" font-family="Arial, sans-serif" font-size="12" text-anchor="middle" fill="white">T2</text>
          
          <circle cx="70" cy="10" r="10" fill="#4285f4"/>
          <text x="70" y="14" font-family="Arial, sans-serif" font-size="12" text-anchor="middle" fill="white">T3</text>
          
          <circle cx="100" cy="10" r="10" fill="#4285f4"/>
          <text x="100" y="14" font-family="Arial, sans-serif" font-size="12" text-anchor="middle" fill="white">T4</text>
        </g>
        
        <!-- Memory -->
        <g transform="translate(25, 70)">
          <rect x="0" y="0" width="30" height="20" rx="3" ry="3" fill="#636e72" stroke="#2d3436" stroke-width="1"/>
          <rect x="30" y="0" width="30" height="20" rx="3" ry="3" fill="#636e72" stroke="#2d3436" stroke-width="1"/>
          <rect x="60" y="0" width="30" height="20" rx="3" ry="3" fill="#636e72" stroke="#2d3436" stroke-width="1"/>
          <rect x="90" y="0" width="30" height="20" rx="3" ry="3" fill="#636e72" stroke="#2d3436" stroke-width="1"/>
        </g>
        
        <!-- Access arrows -->
        <g transform="translate(25, 30)">
          <line x1="10" y1="10" x2="10" y2="40" stroke="#27ae60" stroke-width="2"/>
          <line x1="40" y1="10" x2="40" y2="40" stroke="#27ae60" stroke-width="2"/>
          <line x1="70" y1="10" x2="70" y2="40" stroke="#27ae60" stroke-width="2"/>
          <line x1="100" y1="10" x2="100" y2="40" stroke="#27ae60" stroke-width="2"/>
          
          <polygon points="10,40 5,35 15,35" fill="#27ae60"/>
          <polygon points="40,40 35,35 45,35" fill="#27ae60"/>
          <polygon points="70,40 65,35 75,35" fill="#27ae60"/>
          <polygon points="100,40 95,35 105,35" fill="#27ae60"/>
        </g>
        
        <!-- Efficiency Label -->
        <g transform="translate(150, 60)">
          <circle cx="10" cy="10" r="10" fill="#27ae60"/>
          <text x="10" y="14" font-family="Arial, sans-serif" font-size="14" font-weight="bold" text-anchor="middle" fill="white">✓</text>
          <text x="30" y="14" font-family="Arial, sans-serif" font-size="14" text-anchor="start" fill="#333">Efficient</text>
        </g>
      </g>
      
      <!-- Non-Coalesced Access -->
      <g transform="translate(350, 40)">
        <rect x="0" y="0" width="250" height="140" rx="8" ry="8" fill="#e6e6e6" stroke="#ccc" stroke-width="2"/>
        <text x="125" y="25" font-family="Arial, sans-serif" font-size="18" font-weight="bold" text-anchor="middle" fill="#333">Non-Coalesced Access</text>
        
        <!-- Threads -->
        <g transform="translate(25, 40)">
          <circle cx="10" cy="10" r="10" fill="#4285f4"/>
          <text x="10" y="14" font-family="Arial, sans-serif" font-size="12" text-anchor="middle" fill="white">T1</text>
          
          <circle cx="40" cy="10" r="10" fill="#4285f4"/>
          <text x="40" y="14" font-family="Arial, sans-serif" font-size="12" text-anchor="middle" fill="white">T2</text>
          
          <circle cx="70" cy="10" r="10" fill="#4285f4"/>
          <text x="70" y="14" font-family="Arial, sans-serif" font-size="12" text-anchor="middle" fill="white">T3</text>
          
          <circle cx="100" cy="10" r="10" fill="#4285f4"/>
          <text x="100" y="14" font-family="Arial, sans-serif" font-size="12" text-anchor="middle" fill="white">T4</text>
        </g>
        
        <!-- Memory -->
        <g transform="translate(25, 70)">
          <rect x="0" y="0" width="30" height="20" rx="3" ry="3" fill="#636e72" stroke="#2d3436" stroke-width="1"/>
          <rect x="30" y="0" width="30" height="20" rx="3" ry="3" fill="#636e72" stroke="#2d3436" stroke-width="1"/>
          <rect x="90" y="0" width="30" height="20" rx="3" ry="3" fill="#636e72" stroke="#2d3436" stroke-width="1"/>
          <rect x="150" y="0" width="30" height="20" rx="3" ry="3" fill="#636e72" stroke="#2d3436" stroke-width="1"/>
        </g>
        
        <!-- Access arrows -->
        <g transform="translate(25, 30)">
          <path d="M10,10 C10,20 0,30 0,40" stroke="#e74c3c" stroke-width="2" fill="none"/>
          <path d="M40,10 C40,20 30,30 30,40" stroke="#e74c3c" stroke-width="2" fill="none"/>
          <path d="M70,10 C70,20 80,30 90,40" stroke="#e74c3c" stroke-width="2" fill="none"/>
          <path d="M100,10 C100,20 140,30 150,40" stroke="#e74c3c" stroke-width="2" fill="none"/>
          
          <polygon points="0,40 0,30 10,35" fill="#e74c3c"/>
          <polygon points="30,40 30,30 40,35" fill="#e74c3c"/>
          <polygon points="90,40 90,30 80,35" fill="#e74c3c"/>
          <polygon points="150,40 150,30 140,35" fill="#e74c3c"/>
        </g>
        
        <!-- Inefficiency Label -->
        <g transform="translate(150, 60)">
          <circle cx="10" cy="10" r="10" fill="#e74c3c"/>
          <text x="10" y="14" font-family="Arial, sans-serif" font-size="14" font-weight="bold" text-anchor="middle" fill="white">✗</text>
          <text x="30" y="14" font-family="Arial, sans-serif" font-size="14" text-anchor="start" fill="#333">Inefficient</text>
        </g>
      </g>
    </g>
    
    <!-- Key Performance Notes -->
    <g transform="translate(100, 400)">
      <rect x="0" y="0" width="500" height="140" rx="8" ry="8" fill="#f1f8ff" stroke="#4b9fdf" stroke-width="2"/>
      <text x="250" y="30" font-family="Arial, sans-serif" font-size="18" font-weight="bold" text-anchor="middle" fill="#333">Key Performance Factors</text>
      
      <g transform="translate(30, 50)">
        <!-- Hidden Latency -->
        <circle cx="10" cy="10" r="6" fill="#e74c3c"/>
        <text x="30" y="15" font-family="Arial, sans-serif" font-size="16" text-anchor="start" fill="#333">Must hide 400-600 cycle latency with computation</text>
        
        <!-- Multiple Warps -->
        <circle cx="10" cy="40" r="6" fill="#e74c3c"/>
        <text x="30" y="45" font-family="Arial, sans-serif" font-size="16" text-anchor="start" fill="#333">Requires many warps to keep hardware busy</text>
        
        <!-- Bandwidth -->
        <circle cx="10" cy="70" r="6" fill="#e74c3c"/>
        <text x="30" y="75" font-family="Arial, sans-serif" font-size="16" text-anchor="start" fill="#333">Limited bandwidth shared among all active warps</text>
      </g>
    </g>
  </g>
</svg>
