<?xml version="1.0" encoding="UTF-8"?>
<svg viewBox="0 0 800 420" xmlns="http://www.w3.org/2000/svg">
  <!-- Simple title -->
  <text x="400" y="40" font-family="Arial, sans-serif" font-size="20" font-weight="bold" text-anchor="middle" fill="#333">Data Parallelism: The GPU's Strength</text>
  
  <!-- Image representation (more realistic) -->
  <g transform="translate(120, 100)">
    <!-- Realistic image representation -->
    <defs>
      <!-- Create a pattern for the image -->
      <pattern id="imagePattern" x="0" y="0" width="240" height="240" patternUnits="userSpaceOnUse">
        <!-- Background color -->
        <rect width="240" height="240" fill="#2c3e50"/>
        
        <!-- Simple mountain silhouette -->
        <path d="M0,240 L60,120 L100,160 L160,80 L240,240 Z" fill="#34495e"/>
        
        <!-- Sun/moon circle -->
        <circle cx="180" cy="60" r="30" fill="#f1c40f"/>
        
        <!-- Simple tree -->
        <rect x="40" y="160" width="10" height="40" fill="#795548"/>
        <path d="M30,170 L60,170 L45,130 Z" fill="#27ae60"/>
        <path d="M30,150 L60,150 L45,110 Z" fill="#27ae60"/>
      </pattern>
      
      <!-- Grid overlay pattern for pixels -->
      <pattern id="gridPattern" x="0" y="0" width="240" height="240" patternUnits="userSpaceOnUse">
        <!-- Create grid lines -->
        <path d="M40,0 L40,240 M80,0 L80,240 M120,0 L120,240 M160,0 L160,240 M200,0 L200,240 
                 M0,40 L240,40 M0,80 L240,80 M0,120 L240,120 M0,160 L240,160 M0,200 L240,200" 
              stroke="rgba(255,255,255,0.3)" stroke-width="1"/>
      </pattern>
    </defs>
    
    <!-- Actual image with grid overlay -->
    <g>
      <!-- Base image -->
      <rect x="0" y="0" width="240" height="240" fill="url(#imagePattern)" rx="3" ry="3"/>
      
      <!-- Grid overlay -->
      <rect x="0" y="0" width="240" height="240" fill="url(#gridPattern)" fill-opacity="1" rx="3" ry="3"/>
      
      <!-- Border -->
      <rect x="0" y="0" width="240" height="240" fill="none" stroke="#333" stroke-width="2" rx="3" ry="3"/>
    </g>
    
    <!-- Label -->
    <text x="120" y="265" font-family="Arial, sans-serif" font-size="16" text-anchor="middle" fill="#333">Image Pixels</text>
  </g>
  
  <!-- Arrow pointing to GPU -->
  <path d="M380 200 L450 200" stroke="#555" stroke-width="3" stroke-linecap="round" stroke-dasharray="5,5"/>
  <polygon points="450,200 440,195 440,205" fill="#555"/>
  
  <!-- GPU Representation -->
  <g transform="translate(500, 100)">
    <!-- GPU Outline -->
    <rect x="0" y="0" width="180" height="240" fill="#f1f1f1" stroke="#666" stroke-width="2" rx="5" ry="5"/>
    
    <!-- GPU Cores -->
    <g id="cores">
      <!-- Core 1 -->
      <rect x="20" y="20" width="60" height="25" fill="#e74c3c" stroke="#c0392b" stroke-width="1" rx="3" ry="3"/>
      
      <!-- Core 2 -->
      <rect x="100" y="20" width="60" height="25" fill="#e74c3c" stroke="#c0392b" stroke-width="1" rx="3" ry="3"/>
      
      <!-- Core 3 -->
      <rect x="20" y="55" width="60" height="25" fill="#e74c3c" stroke="#c0392b" stroke-width="1" rx="3" ry="3"/>
      
      <!-- Core 4 -->
      <rect x="100" y="55" width="60" height="25" fill="#e74c3c" stroke="#c0392b" stroke-width="1" rx="3" ry="3"/>
      
      <!-- Core 5 -->
      <rect x="20" y="90" width="60" height="25" fill="#e74c3c" stroke="#c0392b" stroke-width="1" rx="3" ry="3"/>
      
      <!-- Core 6 -->
      <rect x="100" y="90" width="60" height="25" fill="#e74c3c" stroke="#c0392b" stroke-width="1" rx="3" ry="3"/>
      
      <!-- Core 7 -->
      <rect x="20" y="125" width="60" height="25" fill="#e74c3c" stroke="#c0392b" stroke-width="1" rx="3" ry="3"/>
      
      <!-- Core 8 -->
      <rect x="100" y="125" width="60" height="25" fill="#e74c3c" stroke="#c0392b" stroke-width="1" rx="3" ry="3"/>
      
      <!-- Core 9 -->
      <rect x="20" y="160" width="60" height="25" fill="#e74c3c" stroke="#c0392b" stroke-width="1" rx="3" ry="3"/>
      
      <!-- Core 10 -->
      <rect x="100" y="160" width="60" height="25" fill="#e74c3c" stroke="#c0392b" stroke-width="1" rx="3" ry="3"/>
      
      <!-- Core 11 -->
      <rect x="20" y="195" width="60" height="25" fill="#e74c3c" stroke="#c0392b" stroke-width="1" rx="3" ry="3"/>
      
      <!-- Core 12 -->
      <rect x="100" y="195" width="60" height="25" fill="#e74c3c" stroke="#c0392b" stroke-width="1" rx="3" ry="3"/>
    </g>
    
    <!-- Label -->
    <text x="90" y="265" font-family="Arial, sans-serif" font-size="16" text-anchor="middle" fill="#333">GPU Cores</text>
  </g>
  
  <!-- Just TWO connecting lines -->
  <path d="M180 180 L520 132" stroke="#555" stroke-width="1.5" stroke-linecap="round" stroke-dasharray="4,4"/>
  <path d="M260 260 L600 238" stroke="#555" stroke-width="1.5" stroke-linecap="round" stroke-dasharray="4,4"/>
  
  <!-- Simple legend - FIXED position to avoid overlap -->
  <text x="400" y="380" font-family="Arial, sans-serif" font-size="14" text-anchor="middle" fill="#666">1 Pixel → 1 Core → Parallel Processing</text>
</svg>