<svg viewBox="0 0 800 400" xmlns="http://www.w3.org/2000/svg">
  <!-- Background -->
  <rect width="800" height="400" fill="#f9f9f9" rx="10" ry="10"/>
  
  <!-- Title -->
  <text x="400" y="40" font-family="Arial" font-size="22" text-anchor="middle" font-weight="bold">Graphics Pipeline → Parallel Pixel Shading</text>
  
  <!-- Pipeline Stages -->
  <g transform="translate(100, 100)">
    <!-- Pipeline Flow -->
    <path d="M 0,100 H 600" stroke="#666" stroke-width="4" fill="none"/>
    <polygon points="600,100 590,95 590,105" fill="#666"/>
    
    <!-- Vertex Processing -->
    <g transform="translate(0, 0)">
      <rect width="100" height="80" rx="5" ry="5" fill="#e6f2ff" stroke="#0066cc" stroke-width="2"/>
      <text x="50" y="30" font-family="Arial" font-size="14" text-anchor="middle" font-weight="bold">Vertex</text>
      <text x="50" y="50" font-family="Arial" font-size="14" text-anchor="middle" font-weight="bold">Processing</text>
      
      <!-- 3D Model -->
      <g transform="translate(50, -40) scale(0.5)">
        <path d="M 0,0 L 40,-20 L 80,0 L 40,20 Z" fill="#cccccc" stroke="#666" stroke-width="1"/>
        <path d="M 0,0 L 40,20 L 40,60 L 0,40 Z" fill="#aaaaaa" stroke="#666" stroke-width="1"/>
        <path d="M 40,20 L 80,0 L 80,40 L 40,60 Z" fill="#999999" stroke="#666" stroke-width="1"/>
      </g>
      
      <path d="M 50,80 L 50,100" stroke="#666" stroke-width="2" fill="none"/>
      <polygon points="50,100 45,90 55,90" fill="#666"/>
    </g>
    
    <!-- Primitive Assembly -->
    <g transform="translate(150, 0)">
      <rect width="100" height="80" rx="5" ry="5" fill="#ffe6cc" stroke="#ff9933" stroke-width="2"/>
      <text x="50" y="30" font-family="Arial" font-size="14" text-anchor="middle" font-weight="bold">Primitive</text>
      <text x="50" y="50" font-family="Arial" font-size="14" text-anchor="middle" font-weight="bold">Assembly</text>
      
      <!-- Triangles -->
      <g transform="translate(30, -30)">
        <polygon points="0,0 40,0 20,35" fill="none" stroke="#ff9933" stroke-width="2"/>
      </g>
      
      <path d="M 50,80 L 50,100" stroke="#666" stroke-width="2" fill="none"/>
      <polygon points="50,100 45,90 55,90" fill="#666"/>
    </g>
    
    <!-- Rasterization -->
    <g transform="translate(300, 0)">
      <rect width="100" height="80" rx="5" ry="5" fill="#e6ffe6" stroke="#009900" stroke-width="2"/>
      <text x="50" y="30" font-family="Arial" font-size="14" text-anchor="middle" font-weight="bold">Rasterization</text>
      <text x="50" y="50" font-family="Arial" font-size="14" text-anchor="middle" font-weight="bold"></text>
      
      <!-- Rasterization Illustration -->
      <g transform="translate(25, -25)">
        <rect x="0" y="0" width="50" height="35" fill="none" stroke="#009900" stroke-width="1"/>
        <line x1="0" y1="0" x2="50" y2="35" stroke="#009900" stroke-width="1"/>
        <line x1="0" y1="35" x2="50" y2="0" stroke="#009900" stroke-width="1"/>
        <rect x="10" y="7" width="5" height="5" fill="#009900" stroke="none"/>
        <rect x="20" y="14" width="5" height="5" fill="#009900" stroke="none"/>
        <rect x="30" y="21" width="5" height="5" fill="#009900" stroke="none"/>
        <rect x="17" y="21" width="5" height="5" fill="#009900" stroke="none"/>
        <rect x="24" y="7" width="5" height="5" fill="#009900" stroke="none"/>
        <rect x="35" y="14" width="5" height="5" fill="#009900" stroke="none"/>
      </g>
      
      <path d="M 50,80 L 50,100" stroke="#666" stroke-width="2" fill="none"/>
      <polygon points="50,100 45,90 55,90" fill="#666"/>
    </g>
    
    <!-- Pixel Shading -->
    <g transform="translate(450, 0)">
      <rect width="100" height="80" rx="5" ry="5" fill="#ffe6e6" stroke="#cc0000" stroke-width="2"/>
      <text x="50" y="30" font-family="Arial" font-size="14" text-anchor="middle" font-weight="bold">Pixel</text>
      <text x="50" y="50" font-family="Arial" font-size="14" text-anchor="middle" font-weight="bold">Shading</text>
      
      <path d="M 50,80 L 50,100" stroke="#666" stroke-width="2" fill="none"/>
      <polygon points="50,100 45,90 55,90" fill="#666"/>
    </g>
  </g>
  
  <!-- Parallel Pixel Shading -->
  <g transform="translate(120, 250)">
    <rect width="560" height="120" rx="10" ry="10" fill="#fff0f0" stroke="#cc0000" stroke-width="2"/>
    <text x="280" y="30" font-family="Arial" font-size="18" text-anchor="middle" font-weight="bold">Parallel Pixel Shading</text>
    
    <!-- Grid of pixels being processed in parallel -->
    <g transform="translate(40, 50)">
      <!-- Rows of pixel shaders -->
      <g>
        <rect x="0" y="0" width="25" height="25" fill="#ff9999" stroke="#cc0000" rx="3" ry="3"/>
        <text x="12.5" y="17" font-family="Arial" font-size="10" text-anchor="middle">PS</text>
      </g>
      <g transform="translate(35, 0)">
        <rect x="0" y="0" width="25" height="25" fill="#ff9999" stroke="#cc0000" rx="3" ry="3"/>
        <text x="12.5" y="17" font-family="Arial" font-size="10" text-anchor="middle">PS</text>
      </g>
      <g transform="translate(70, 0)">
        <rect x="0" y="0" width="25" height="25" fill="#ff9999" stroke="#cc0000" rx="3" ry="3"/>
        <text x="12.5" y="17" font-family="Arial" font-size="10" text-anchor="middle">PS</text>
      </g>
      <g transform="translate(105, 0)">
        <rect x="0" y="0" width="25" height="25" fill="#ff9999" stroke="#cc0000" rx="3" ry="3"/>
        <text x="12.5" y="17" font-family="Arial" font-size="10" text-anchor="middle">PS</text>
      </g>
      <g transform="translate(140, 0)">
        <rect x="0" y="0" width="25" height="25" fill="#ff9999" stroke="#cc0000" rx="3" ry="3"/>
        <text x="12.5" y="17" font-family="Arial" font-size="10" text-anchor="middle">PS</text>
      </g>
      <g transform="translate(175, 0)">
        <rect x="0" y="0" width="25" height="25" fill="#ff9999" stroke="#cc0000" rx="3" ry="3"/>
        <text x="12.5" y="17" font-family="Arial" font-size="10" text-anchor="middle">PS</text>
      </g>
      
      <!-- Second row -->
      <g transform="translate(0, 35)">
        <rect x="0" y="0" width="25" height="25" fill="#ff9999" stroke="#cc0000" rx="3" ry="3"/>
        <text x="12.5" y="17" font-family="Arial" font-size="10" text-anchor="middle">PS</text>
      </g>
      <g transform="translate(35, 35)">
        <rect x="0" y="0" width="25" height="25" fill="#ff9999" stroke="#cc0000" rx="3" ry="3"/>
        <text x="12.5" y="17" font-family="Arial" font-size="10" text-anchor="middle">PS</text>
      </g>
      <g transform="translate(70, 35)">
        <rect x="0" y="0" width="25" height="25" fill="#ff9999" stroke="#cc0000" rx="3" ry="3"/>
        <text x="12.5" y="17" font-family="Arial" font-size="10" text-anchor="middle">PS</text>
      </g>
      <g transform="translate(105, 35)">
        <rect x="0" y="0" width="25" height="25" fill="#ff9999" stroke="#cc0000" rx="3" ry="3"/>
        <text x="12.5" y="17" font-family="Arial" font-size="10" text-anchor="middle">PS</text>
      </g>
      <g transform="translate(140, 35)">
        <rect x="0" y="0" width="25" height="25" fill="#ff9999" stroke="#cc0000" rx="3" ry="3"/>
        <text x="12.5" y="17" font-family="Arial" font-size="10" text-anchor="middle">PS</text>
      </g>
      <g transform="translate(175, 35)">
        <rect x="0" y="0" width="25" height="25" fill="#ff9999" stroke="#cc0000" rx="3" ry="3"/>
        <text x="12.5" y="17" font-family="Arial" font-size="10" text-anchor="middle">PS</text>
      </g>
      
      <!-- Image representation -->
      <g transform="translate(250, 0)">
        <rect x="0" y="0" width="60" height="60" fill="#ffffff" stroke="#666666" stroke-width="2"/>
        <text x="30" y="35" font-family="Arial" font-size="14" text-anchor="middle">Frame</text>
        <text x="30" y="55" font-family="Arial" font-size="14" text-anchor="middle">Buffer</text>
      </g>
      
      <!-- Arrow -->
      <path d="M 210,30 L 240,30" stroke="#666" stroke-width="2" fill="none"/>
      <polygon points="240,30 230,25 230,35" fill="#666"/>
      
      <!-- Text explaining parallel nature -->
      <g transform="translate(330, 15)">
        <text font-family="Arial" font-size="14">
          <tspan x="0" y="0">• Same shader program</tspan>
          <tspan x="0" y="20">• Different pixel data</tspan>
          <tspan x="0" y="40">• Massively parallel</tspan>
        </text>
      </g>
    </g>
  </g>
</svg>