<?xml version="1.0" encoding="UTF-8"?>
<svg viewBox="0 0 800 500" xmlns="http://www.w3.org/2000/svg">
  <!-- Background -->
  <rect width="800" height="500" fill="#f8f9fa" rx="10" ry="10"/>
  
  <!-- Title -->
  <text x="400" y="40" font-family="Arial, sans-serif" font-size="28" font-weight="bold" text-anchor="middle" fill="#333">Independent Thread Scheduling</text>
  
  <!-- Subtitle -->
  <text x="400" y="70" font-family="Arial, sans-serif" font-size="18" text-anchor="middle" fill="#555">Divergence in warp with vs without independent scheduling</text>
  
  <!-- Section: Without Independent Thread Scheduling -->
  <g transform="translate(40, 110)">
    <!-- Title -->
    <text x="160" y="0" font-family="Arial, sans-serif" font-size="20" font-weight="bold" text-anchor="middle" fill="#333">Without Independent Scheduling</text>
    
    <!-- Timeline -->
    <rect x="0" y="20" width="320" height="280" rx="5" ry="5" fill="#e6e6e6" stroke="#ccc" stroke-width="1"/>
    
    <!-- Warp Execution -->
    <rect x="20" y="40" width="280" height="40" rx="5" ry="5" fill="#6c757d" stroke="#555" stroke-width="1"/>
    <text x="160" y="65" font-family="Arial, sans-serif" font-size="16" font-weight="bold" text-anchor="middle" fill="white">Warp</text>
    
    <!-- Threads -->
    <g>
      <!-- Thread 1 - Regular path -->
      <rect x="20" y="90" width="60" height="180" rx="5" ry="5" fill="#4285f4" stroke="#2a56c6" stroke-width="1"/>
      <text x="50" y="180" font-family="Arial, sans-serif" font-size="14" text-anchor="middle" fill="white">T1</text>
      
      <!-- Thread 2 - Regular path -->
      <rect x="90" y="90" width="60" height="180" rx="5" ry="5" fill="#4285f4" stroke="#2a56c6" stroke-width="1"/>
      <text x="120" y="180" font-family="Arial, sans-serif" font-size="14" text-anchor="middle" fill="white">T2</text>
      
      <!-- Thread 3 - Divergent path -->
      <g>
        <rect x="160" y="90" width="60" height="80" rx="5" ry="5" fill="#4285f4" stroke="#2a56c6" stroke-width="1"/>
        <rect x="160" y="170" width="60" height="100" rx="5" ry="5" fill="#d5d5d5" stroke="#aaa" stroke-width="1" opacity="0.7"/>
        <text x="190" y="140" font-family="Arial, sans-serif" font-size="14" text-anchor="middle" fill="white">T3</text>
        <text x="190" y="220" font-family="Arial, sans-serif" font-size="14" text-anchor="middle" fill="#666">IDLE</text>
      </g>
      
      <!-- Thread 4 - Divergent path -->
      <g>
        <rect x="230" y="90" width="60" height="80" rx="5" ry="5" fill="#4285f4" stroke="#2a56c6" stroke-width="1"/>
        <rect x="230" y="170" width="60" height="100" rx="5" ry="5" fill="#d5d5d5" stroke="#aaa" stroke-width="1" opacity="0.7"/>
        <text x="260" y="140" font-family="Arial, sans-serif" font-size="14" text-anchor="middle" fill="white">T4</text>
        <text x="260" y="220" font-family="Arial, sans-serif" font-size="14" text-anchor="middle" fill="#666">IDLE</text>
      </g>
    </g>
    
    <!-- Annotations -->
    <text x="160" y="300" font-family="Arial, sans-serif" font-size="16" text-anchor="middle" fill="#555">All threads in lockstep</text>
    <text x="160" y="320" font-family="Arial, sans-serif" font-size="16" text-anchor="middle" fill="#555">Divergent threads waste cycles</text>
  </g>
  
  <!-- Section: With Independent Thread Scheduling -->
  <g transform="translate(440, 110)">
    <!-- Title -->
    <text x="160" y="0" font-family="Arial, sans-serif" font-size="20" font-weight="bold" text-anchor="middle" fill="#333">With Independent Scheduling</text>
    
    <!-- Timeline -->
    <rect x="0" y="20" width="320" height="280" rx="5" ry="5" fill="#e6e6e6" stroke="#ccc" stroke-width="1"/>
    
    <!-- Warp Execution -->
    <rect x="20" y="40" width="280" height="40" rx="5" ry="5" fill="#6c757d" stroke="#555" stroke-width="1"/>
    <text x="160" y="65" font-family="Arial, sans-serif" font-size="16" font-weight="bold" text-anchor="middle" fill="white">Warp</text>
    
    <!-- Threads -->
    <g>
      <!-- Thread 1 - Regular path -->
      <rect x="20" y="90" width="60" height="180" rx="5" ry="5" fill="#4285f4" stroke="#2a56c6" stroke-width="1"/>
      <text x="50" y="180" font-family="Arial, sans-serif" font-size="14" text-anchor="middle" fill="white">T1</text>
      
      <!-- Thread 2 - Regular path -->
      <rect x="90" y="90" width="60" height="180" rx="5" ry="5" fill="#4285f4" stroke="#2a56c6" stroke-width="1"/>
      <text x="120" y="180" font-family="Arial, sans-serif" font-size="14" text-anchor="middle" fill="white">T2</text>
      
      <!-- Thread 3 - Divergent path with work -->
      <g>
        <rect x="160" y="90" width="60" height="80" rx="5" ry="5" fill="#4285f4" stroke="#2a56c6" stroke-width="1"/>
        <rect x="160" y="170" width="60" height="100" rx="5" ry="5" fill="#34a853" stroke="#0f8c3e" stroke-width="1"/>
        <text x="190" y="140" font-family="Arial, sans-serif" font-size="14" text-anchor="middle" fill="white">T3</text>
        <text x="190" y="220" font-family="Arial, sans-serif" font-size="14" text-anchor="middle" fill="white">WORK</text>
      </g>
      
      <!-- Thread 4 - Divergent path with work -->
      <g>
        <rect x="230" y="90" width="60" height="80" rx="5" ry="5" fill="#4285f4" stroke="#2a56c6" stroke-width="1"/>
        <rect x="230" y="170" width="60" height="100" rx="5" ry="5" fill="#34a853" stroke="#0f8c3e" stroke-width="1"/>
        <text x="260" y="140" font-family="Arial, sans-serif" font-size="14" text-anchor="middle" fill="white">T4</text>
        <text x="260" y="220" font-family="Arial, sans-serif" font-size="14" text-anchor="middle" fill="white">WORK</text>
      </g>
    </g>
    
    <!-- Annotations -->
    <text x="160" y="300" font-family="Arial, sans-serif" font-size="16" text-anchor="middle" fill="#555">Threads execute independently</text>
    <text x="160" y="320" font-family="Arial, sans-serif" font-size="16" text-anchor="middle" fill="#555">No wasted compute resources</text>
  </g>
  
  <!-- Legend -->
  <g transform="translate(160, 430)">
    <rect x="0" y="0" width="20" height="20" rx="3" ry="3" fill="#4285f4"/>
    <text x="30" y="15" font-family="Arial, sans-serif" font-size="14" fill="#333">Common Path Execution</text>
    
    <rect x="240" y="0" width="20" height="20" rx="3" ry="3" fill="#d5d5d5" opacity="0.7"/>
    <text x="270" y="15" font-family="Arial, sans-serif" font-size="14" fill="#333">Idle Threads (Wasted Cycles)</text>
    
    <rect x="480" y="0" width="20" height="20" rx="3" ry="3" fill="#34a853"/>
    <text x="510" y="15" font-family="Arial, sans-serif" font-size="14" fill="#333">Divergent Path Execution</text>
  </g>
</svg>
