<?xml version="1.0" encoding="UTF-8"?>
<svg viewBox="0 0 800 500" xmlns="http://www.w3.org/2000/svg">
  <!-- Background gradient -->
  <defs>
    <linearGradient id="bg-gradient" x1="0%" y1="0%" x2="100%" y2="0%">
      <stop offset="0%" style="stop-color:#f8f9fa;stop-opacity:1" />
      <stop offset="100%" style="stop-color:#e9ecef;stop-opacity:1" />
    </linearGradient>
    
    <!-- Arrow marker definition -->
    <marker id="arrow" markerWidth="10" markerHeight="10" refX="9" refY="3" orient="auto" markerUnits="strokeWidth">
      <path d="M0,0 L0,6 L9,3 z" fill="#1D3557" />
    </marker>
  </defs>
  
  <rect width="800" height="500" fill="url(#bg-gradient)" rx="10" ry="10" />
  
  <!-- Title -->
  <text x="400" y="40" font-family="Arial, sans-serif" font-size="24" font-weight="bold" text-anchor="middle" fill="#333">Output Merger: From Fragments to Framebuffer</text>
  
  <!-- Left Side: Incoming Fragments (2 objects) -->
  <g transform="translate(160, 200)">
    <!-- Title -->
    <text x="0" y="-120" font-family="Arial, sans-serif" font-size="18" font-weight="bold" text-anchor="middle" fill="#1D3557">Incoming Fragments</text>
    
    <!-- Fragments grid (showing fragments from 2 different objects) -->
    <g>
      <!-- Grid outline -->
      <rect x="-80" y="-80" width="160" height="160" fill="none" stroke="#666" stroke-width="1" />
      
      <!-- Object 1 fragments (back cube - brown) -->
      <g fill="#CD853F" fill-opacity="0.9">
        <!-- Top left area (Object 1) -->
        <rect x="-80" y="-80" width="40" height="40" />
        <rect x="-40" y="-80" width="40" height="40" />
        <rect x="-80" y="-40" width="40" height="40" />
        <rect x="-40" y="-40" width="40" height="40" />
        
        <!-- Bottom left area (Object 1) -->
        <rect x="-80" y="0" width="40" height="40" />
        <rect x="-40" y="0" width="40" height="40" />
        <rect x="-80" y="40" width="40" height="40" />
        <rect x="-40" y="40" width="40" height="40" />
      </g>
      
      <!-- Object 2 fragments (front cube - blue, partially transparent) -->
      <g fill="#4682B4" fill-opacity="0.7">
        <!-- Top right area (Object 2) -->
        <rect x="0" y="-80" width="40" height="40" />
        <rect x="40" y="-80" width="40" height="40" />
        <rect x="0" y="-40" width="40" height="40" />
        <rect x="40" y="-40" width="40" height="40" />
        
        <!-- Bottom right area (Object 2) -->
        <rect x="0" y="0" width="40" height="40" />
        <rect x="40" y="0" width="40" height="40" />
        <rect x="0" y="40" width="40" height="40" />
        <rect x="40" y="40" width="40" height="40" />
        
        <!-- Overlapping area (Object 2 over Object 1) -->
        <rect x="-40" y="-40" width="40" height="40" />
        <rect x="-40" y="0" width="40" height="40" />
        <rect x="0" y="-40" width="40" height="40" />
        <rect x="0" y="0" width="40" height="40" />
      </g>
    </g>
    
    <!-- Depth values for visualization -->
    <g font-family="Arial, sans-serif" font-size="10" fill="white" text-anchor="middle">
      <!-- Object 1 depths (farther = higher values) -->
      <text x="-60" y="-60" font-weight="bold">0.8</text>
      <text x="-20" y="-60" font-weight="bold">0.8</text>
      <text x="-60" y="-20" font-weight="bold">0.8</text>
      <text x="-20" y="-20" font-weight="bold">0.8</text>
      
      <text x="-60" y="20" font-weight="bold">0.8</text>
      <text x="-20" y="20" font-weight="bold">0.8</text>
      <text x="-60" y="60" font-weight="bold">0.8</text>
      <text x="-20" y="60" font-weight="bold">0.8</text>
      
      <!-- Object 2 depths (closer = lower values) -->
      <text x="20" y="-60" font-weight="bold">0.4</text>
      <text x="60" y="-60" font-weight="bold">0.4</text>
      <text x="20" y="-20" font-weight="bold">0.4</text>
      <text x="60" y="-20" font-weight="bold">0.4</text>
      
      <text x="20" y="20" font-weight="bold">0.4</text>
      <text x="60" y="20" font-weight="bold">0.4</text>
      <text x="20" y="60" font-weight="bold">0.4</text>
      <text x="60" y="60" font-weight="bold">0.4</text>
      
      <!-- Overlapping areas -->
      <text x="-20" y="-20" font-weight="bold">0.4</text>
      <text x="-20" y="20" font-weight="bold">0.4</text>
      <text x="20" y="-20" font-weight="bold">0.4</text>
      <text x="20" y="20" font-weight="bold">0.4</text>
    </g>
    
    <!-- Label for incoming fragments -->
    <text x="0" y="100" font-family="Arial, sans-serif" font-size="14" text-anchor="middle" fill="#333">Fragments with Colors &amp; Depth</text>
    <text x="0" y="120" font-family="Arial, sans-serif" font-size="12" text-anchor="middle" fill="#666">(From Multiple Draw Calls)</text>
  </g>
  
  <!-- Middle: Output Merger Process -->
  <g transform="translate(400, 200)">
    <!-- Output Merger box -->
    <rect x="-110" y="-130" width="220" height="260" rx="10" ry="10" fill="#F1FAEE" stroke="#A8DADC" stroke-width="2" />
    
    <!-- Output Merger title -->
    <text x="0" y="-100" font-family="Arial, sans-serif" font-size="18" font-weight="bold" text-anchor="middle" fill="#1D3557">Output Merger</text>
    
    <!-- Depth Buffer box -->
    <g transform="translate(0, -60)">
      <rect x="-90" y="-15" width="180" height="30" rx="5" ry="5" fill="#E0F2F1" stroke="#66B2B2" stroke-width="1.5" />
      <text x="0" y="5" font-family="Arial, sans-serif" font-size="14" font-weight="bold" text-anchor="middle" fill="#333">Depth Test</text>
      <text x="0" y="25" font-family="Arial, sans-serif" font-size="10" text-anchor="middle" fill="#666">(Discard if depth greater than stored)</text>
    </g>
    
    <!-- Stencil Test box -->
    <g transform="translate(0, -10)">
      <rect x="-90" y="-15" width="180" height="30" rx="5" ry="5" fill="#E0F2F1" stroke="#66B2B2" stroke-width="1.5" />
      <text x="0" y="5" font-family="Arial, sans-serif" font-size="14" font-weight="bold" text-anchor="middle" fill="#333">Stencil Test</text>
      <text x="0" y="25" font-family="Arial, sans-serif" font-size="10" text-anchor="middle" fill="#666">(Mask operations)</text>
    </g>
    
    <!-- Blending box -->
    <g transform="translate(0, 40)">
      <rect x="-90" y="-15" width="180" height="30" rx="5" ry="5" fill="#E0F2F1" stroke="#66B2B2" stroke-width="1.5" />
      <text x="0" y="5" font-family="Arial, sans-serif" font-size="14" font-weight="bold" text-anchor="middle" fill="#333">Alpha Blending</text>
      <text x="0" y="25" font-family="Arial, sans-serif" font-size="10" text-anchor="middle" fill="#666">(Combine with framebuffer color)</text>
    </g>
    
    <!-- Color Write Mask box -->
    <g transform="translate(0, 90)">
      <rect x="-90" y="-15" width="180" height="30" rx="5" ry="5" fill="#E0F2F1" stroke="#66B2B2" stroke-width="1.5" />
      <text x="0" y="5" font-family="Arial, sans-serif" font-size="14" font-weight="bold" text-anchor="middle" fill="#333">Color Write Mask</text>
      <text x="0" y="25" font-family="Arial, sans-serif" font-size="10" text-anchor="middle" fill="#666">(Control which channels to write)</text>
    </g>
    
    <!-- Arrows connecting steps -->
    <g stroke="#1D3557" stroke-width="2" marker-end="url(#arrow)">
      <line x1="0" y1="-45" x2="0" y2="-25" />
      <line x1="0" y1="5" x2="0" y2="25" />
      <line x1="0" y1="55" x2="0" y2="75" />
    </g>
  </g>
  
  <!-- Right Side: Framebuffer -->
  <g transform="translate(640, 200)">
    <!-- Title -->
    <text x="0" y="-120" font-family="Arial, sans-serif" font-size="18" font-weight="bold" text-anchor="middle" fill="#1D3557">Framebuffer</text>
    
    <!-- Framebuffer representation -->
    <g>
      <!-- Grid outline -->
      <rect x="-80" y="-80" width="160" height="160" fill="none" stroke="#666" stroke-width="1" />
      
      <!-- Object 1 fragments (only visible where not occluded) -->
      <g fill="#CD853F" fill-opacity="0.9">
        <!-- Top left area (Object 1) -->
        <rect x="-80" y="-80" width="40" height="40" />
        <rect x="-40" y="-80" width="40" height="40" />
        <rect x="-80" y="-40" width="40" height="40" />
        
        <!-- Bottom left area (Object 1) -->
        <rect x="-80" y="0" width="40" height="40" />
        <rect x="-80" y="40" width="40" height="40" />
      </g>
      
      <!-- Object 2 fragments (blue, with transparency blending) -->
      <g>
        <!-- Pure Object 2 areas -->
        <rect x="0" y="-80" width="40" height="40" fill="#4682B4" fill-opacity="0.9" />
        <rect x="40" y="-80" width="40" height="40" fill="#4682B4" fill-opacity="0.9" />
        <rect x="40" y="-40" width="40" height="40" fill="#4682B4" fill-opacity="0.9" />
        
        <rect x="40" y="0" width="40" height="40" fill="#4682B4" fill-opacity="0.9" />
        <rect x="0" y="40" width="40" height="40" fill="#4682B4" fill-opacity="0.9" />
        <rect x="40" y="40" width="40" height="40" fill="#4682B4" fill-opacity="0.9" />
        
        <!-- Blended areas (Object 2 over Object 1) - mix of colors -->
        <rect x="-40" y="-40" width="40" height="40" fill="#8B7D8B" fill-opacity="0.95" />
        <rect x="-40" y="0" width="40" height="40" fill="#8B7D8B" fill-opacity="0.95" />
        <rect x="0" y="-40" width="40" height="40" fill="#8B7D8B" fill-opacity="0.95" />
        <rect x="0" y="0" width="40" height="40" fill="#8B7D8B" fill-opacity="0.95" />
        <rect x="-40" y="40" width="40" height="40" fill="#8B7D8B" fill-opacity="0.95" />
        <rect x="0" y="0" width="40" height="40" fill="#8B7D8B" fill-opacity="0.95" />
      </g>
    </g>
    
    <!-- Label for framebuffer -->
    <text x="0" y="100" font-family="Arial, sans-serif" font-size="14" text-anchor="middle" fill="#333">Final Color Buffer</text>
    <text x="0" y="120" font-family="Arial, sans-serif" font-size="12" text-anchor="middle" fill="#666">(Displayed on Screen)</text>
  </g>
  
  <!-- Connecting arrows between sections -->
  <g stroke="#1D3557" stroke-width="2" marker-end="url(#arrow)">
    <line x1="230" y1="200" x2="250" y2="200" />
    <line x1="550" y1="200" x2="570" y2="200" />
  </g>
  
  <!-- Extra Buffers at Bottom -->
  <g transform="translate(400, 400)">
    <!-- Depth Buffer -->
    <g transform="translate(-150, 0)">
      <rect x="-60" y="-30" width="120" height="60" rx="5" ry="5" fill="#E0F2F1" stroke="#66B2B2" stroke-width="1.5" />
      <text x="0" y="-10" font-family="Arial, sans-serif" font-size="14" font-weight="bold" text-anchor="middle" fill="#333">Depth Buffer</text>
      <text x="0" y="15" font-family="Arial, sans-serif" font-size="10" text-anchor="middle" fill="#666">Stores closest depth</text>
      <text x="0" y="30" font-family="Arial, sans-serif" font-size="10" text-anchor="middle" fill="#666">values per pixel</text>
    </g>
    
    <!-- Stencil Buffer -->
    <g transform="translate(0, 0)">
      <rect x="-60" y="-30" width="120" height="60" rx="5" ry="5" fill="#E0F2F1" stroke="#66B2B2" stroke-width="1.5" />
      <text x="0" y="-10" font-family="Arial, sans-serif" font-size="14" font-weight="bold" text-anchor="middle" fill="#333">Stencil Buffer</text>
      <text x="0" y="15" font-family="Arial, sans-serif" font-size="10" text-anchor="middle" fill="#666">Masks pixels for</text>
      <text x="0" y="30" font-family="Arial, sans-serif" font-size="10" text-anchor="middle" fill="#666">special effects</text>
    </g>
    
    <!-- Color Buffer -->
    <g transform="translate(150, 0)">
      <rect x="-60" y="-30" width="120" height="60" rx="5" ry="5" fill="#E0F2F1" stroke="#66B2B2" stroke-width="1.5" />
      <text x="0" y="-10" font-family="Arial, sans-serif" font-size="14" font-weight="bold" text-anchor="middle" fill="#333">Color Buffer</text>
      <text x="0" y="15" font-family="Arial, sans-serif" font-size="10" text-anchor="middle" fill="#666">Stores final RGBA</text>
      <text x="0" y="30" font-family="Arial, sans-serif" font-size="10" text-anchor="middle" fill="#666">color per pixel</text>
    </g>
    
    <!-- Dotted lines connecting to Output Merger -->
    <g stroke="#1D3557" stroke-width="1.5" stroke-dasharray="4,3">
      <line x1="-150" y1="-50" x2="-150" y2="-100" />
      <line x1="0" y1="-50" x2="0" y2="-80" />
      <line x1="150" y1="-50" x2="150" y2="-60" />
      
      <line x1="-150" y1="-100" x2="0" y2="-130" />
      <line x1="0" y1="-80" x2="0" y2="-100" />
      <line x1="150" y1="-60" x2="0" y2="-100" />
    </g>
  </g>
  
  <!-- Legend -->
  <g transform="translate(170, 460)">
    <!-- Object 1 -->
    <rect x="0" y="0" width="15" height="15" fill="#CD853F" fill-opacity="0.9" />
    <text x="20" y="12" font-family="Arial, sans-serif" font-size="12" fill="#333">Object 1 (Opaque)</text>
    
    <!-- Object 2 -->
    <rect x="150" y="0" width="15" height="15" fill="#4682B4" fill-opacity="0.7" />
    <text x="170" y="12" font-family="Arial, sans-serif" font-size="12" fill="#333">Object 2 (Transparent)</text>
    
    <!-- Blended result -->
    <rect x="300" y="0" width="15" height="15" fill="#8B7D8B" fill-opacity="0.95" />
    <text x="320" y="12" font-family="Arial, sans-serif" font-size="12" fill="#333">Blended Result</text>
    
    <!-- Depth values -->
    <text x="450" y="12" font-family="Arial, sans-serif" font-size="12" fill="#333">Depth Value (smaller = closer)</text>
  </g>
</svg>
