<?xml version="1.0" encoding="UTF-8"?>
<svg viewBox="0 0 800 600" xmlns="http://www.w3.org/2000/svg">
  <!-- Title -->
  <text x="400" y="50" font-family="Arial, sans-serif" font-size="20" font-weight="bold" text-anchor="middle" fill="#333">Before GPGPU: Forcing Computation into Graphics Pipeline</text>
  
  <!-- Left Side: Computation Concepts -->
  <g transform="translate(100, 100)">
    <!-- Box for computation concepts -->
    <rect x="0" y="0" width="200" height="260" fill="#e8f4fc" stroke="#3498db" stroke-width="2" rx="5" ry="5"/>
    
    <!-- Header -->
    <rect x="0" y="0" width="200" height="40" fill="#3498db" stroke="none" rx="5" ry="5"/>
    <rect x="0" y="20" width="200" height="20" fill="#3498db" stroke="none"/>
    <text x="100" y="25" font-family="Arial, sans-serif" font-size="16" font-weight="bold" text-anchor="middle" fill="white">Computation Problem</text>
    
    <!-- Elements -->
    <g transform="translate(20, 60)">
      <!-- Data Array -->
      <rect x="0" y="0" width="160" height="40" fill="white" stroke="#3498db" stroke-width="1.5"/>
      <rect x="0" y="0" width="20" height="40" fill="#d6eaf8" stroke="#3498db" stroke-width="1.5"/>
      <rect x="20" y="0" width="20" height="40" fill="#d6eaf8" stroke="#3498db" stroke-width="1.5"/>
      <rect x="40" y="0" width="20" height="40" fill="#d6eaf8" stroke="#3498db" stroke-width="1.5"/>
      <rect x="60" y="0" width="20" height="40" fill="#d6eaf8" stroke="#3498db" stroke-width="1.5"/>
      <rect x="80" y="0" width="20" height="40" fill="#d6eaf8" stroke="#3498db" stroke-width="1.5"/>
      <rect x="100" y="0" width="20" height="40" fill="#d6eaf8" stroke="#3498db" stroke-width="1.5"/>
      <rect x="120" y="0" width="20" height="40" fill="#d6eaf8" stroke="#3498db" stroke-width="1.5"/>
      <rect x="140" y="0" width="20" height="40" fill="#d6eaf8" stroke="#3498db" stroke-width="1.5"/>
      <text x="80" y="60" font-family="Arial, sans-serif" font-size="14" text-anchor="middle" fill="#333">Arrays</text>
      
      <!-- Computation -->
      <rect x="20" y="90" width="120" height="50" fill="white" stroke="#3498db" stroke-width="1.5" rx="3" ry="3"/>
      <text x="80" y="120" font-family="Courier, monospace" font-size="12" text-anchor="middle" fill="#333">x[i] = a*y[i] + b</text>
      <text x="80" y="160" font-family="Arial, sans-serif" font-size="14" text-anchor="middle" fill="#333">Computation</text>
      
      <!-- Results -->
      <rect x="0" y="190" width="160" height="30" fill="white" stroke="#3498db" stroke-width="1.5"/>
      <rect x="0" y="190" width="20" height="30" fill="#aed6f1" stroke="#3498db" stroke-width="1.5"/>
      <rect x="20" y="190" width="20" height="30" fill="#aed6f1" stroke="#3498db" stroke-width="1.5"/>
      <rect x="40" y="190" width="20" height="30" fill="#aed6f1" stroke="#3498db" stroke-width="1.5"/>
      <rect x="60" y="190" width="20" height="30" fill="#aed6f1" stroke="#3498db" stroke-width="1.5"/>
      <rect x="80" y="190" width="20" height="30" fill="#aed6f1" stroke="#3498db" stroke-width="1.5"/>
      <rect x="100" y="190" width="20" height="30" fill="#aed6f1" stroke="#3498db" stroke-width="1.5"/>
      <rect x="120" y="190" width="20" height="30" fill="#aed6f1" stroke="#3498db" stroke-width="1.5"/>
      <rect x="140" y="190" width="20" height="30" fill="#aed6f1" stroke="#3498db" stroke-width="1.5"/>
      <text x="80" y="240" font-family="Arial, sans-serif" font-size="14" text-anchor="middle" fill="#333">Output</text>
    </g>
  </g>
  
  <!-- Middle Arrows and Mapping Text -->
  <g transform="translate(330, 180)">
    <path d="M0,50 L140,50" stroke="#555" stroke-width="2.5" stroke-linecap="round" stroke-dasharray="7,3"/>
    <polygon points="140,50 130,45 130,55" fill="#555"/>
    
    <rect x="5" y="20" width="130" height="70" fill="#fff9e6" stroke="#e67e22" stroke-width="2" rx="15" ry="15"/>
    <text x="70" y="50" font-family="Arial, sans-serif" font-size="16" font-weight="bold" text-anchor="middle" fill="#e67e22">Artificial</text>
    <text x="70" y="75" font-family="Arial, sans-serif" font-size="16" font-weight="bold" text-anchor="middle" fill="#e67e22">Mapping</text>
    
    <rect x="10" y="100" width="120" height="100" fill="#fff9e6" stroke="#e67e22" stroke-width="1" rx="5" ry="5"/>
    <text x="70" y="125" font-family="Arial, sans-serif" font-size="12" text-anchor="middle" fill="#333">Arrays →</text>
    <text x="70" y="145" font-family="Arial, sans-serif" font-size="12" text-anchor="middle" fill="#333">Textures</text>
    
    <text x="70" y="170" font-family="Arial, sans-serif" font-size="12" text-anchor="middle" fill="#333">Computation →</text>
    <text x="70" y="190" font-family="Arial, sans-serif" font-size="12" text-anchor="middle" fill="#333">Fragment Shaders</text>
  </g>
  
  <!-- Right Side: Graphics Concepts -->
  <g transform="translate(500, 100)">
    <!-- Box for graphics concepts -->
    <rect x="0" y="0" width="200" height="260" fill="#f9ebf5" stroke="#8e44ad" stroke-width="2" rx="5" ry="5"/>
    
    <!-- Header -->
    <rect x="0" y="0" width="200" height="40" fill="#8e44ad" stroke="none" rx="5" ry="5"/>
    <rect x="0" y="20" width="200" height="20" fill="#8e44ad" stroke="none"/>
    <text x="100" y="25" font-family="Arial, sans-serif" font-size="16" font-weight="bold" text-anchor="middle" fill="white">Graphics Pipeline</text>
    
    <!-- Elements -->
    <g transform="translate(20, 60)">
      <!-- Texture -->
      <rect x="0" y="0" width="160" height="40" fill="white" stroke="#8e44ad" stroke-width="1.5"/>
      <pattern id="checkerPattern" patternUnits="userSpaceOnUse" width="20" height="20" patternTransform="rotate(45)">
        <rect width="10" height="10" fill="#f5eef8"/>
        <rect x="10" y="0" width="10" height="10" fill="#e8daef"/>
        <rect x="0" y="10" width="10" height="10" fill="#e8daef"/>
        <rect x="10" y="10" width="10" height="10" fill="#f5eef8"/>
      </pattern>
      <rect x="0" y="0" width="160" height="40" fill="url(#checkerPattern)" stroke="#8e44ad" stroke-width="1.5"/>
      <text x="80" y="60" font-family="Arial, sans-serif" font-size="14" text-anchor="middle" fill="#333">Textures</text>
      
      <!-- Fragment Shader -->
      <rect x="20" y="90" width="120" height="50" fill="white" stroke="#8e44ad" stroke-width="1.5" rx="3" ry="3"/>
      <text x="80" y="120" font-family="Courier, monospace" font-size="12" text-anchor="middle" fill="#333">gl_FragColor = ...</text>
      <text x="80" y="160" font-family="Arial, sans-serif" font-size="14" text-anchor="middle" fill="#333">Fragment Shader</text>
      
      <!-- Framebuffer -->
      <rect x="0" y="190" width="160" height="30" fill="white" stroke="#8e44ad" stroke-width="1.5"/>
      <rect x="0" y="190" width="160" height="30" fill="#d2b4de" fill-opacity="0.6" stroke="#8e44ad" stroke-width="1.5"/>
      <text x="80" y="240" font-family="Arial, sans-serif" font-size="14" text-anchor="middle" fill="#333">Render Target</text>
    </g>
  </g>
  
  <!-- GPU Hardware Representation moved down to avoid overlap -->
  <g transform="translate(200, 410)">
    <rect x="0" y="0" width="400" height="60" fill="#f1f1f1" stroke="#555" stroke-width="2" rx="5" ry="5"/>
    
    <!-- GPU Cores -->
    <g>
      <rect x="20" y="15" width="30" height="30" fill="#e74c3c" stroke="#c0392b" stroke-width="1" rx="2" ry="2"/>
      <rect x="60" y="15" width="30" height="30" fill="#e74c3c" stroke="#c0392b" stroke-width="1" rx="2" ry="2"/>
      <rect x="100" y="15" width="30" height="30" fill="#e74c3c" stroke="#c0392b" stroke-width="1" rx="2" ry="2"/>
      <rect x="140" y="15" width="30" height="30" fill="#e74c3c" stroke="#c0392b" stroke-width="1" rx="2" ry="2"/>
      <rect x="180" y="15" width="30" height="30" fill="#e74c3c" stroke="#c0392b" stroke-width="1" rx="2" ry="2"/>
      <rect x="220" y="15" width="30" height="30" fill="#e74c3c" stroke="#c0392b" stroke-width="1" rx="2" ry="2"/>
      <rect x="260" y="15" width="30" height="30" fill="#e74c3c" stroke="#c0392b" stroke-width="1" rx="2" ry="2"/>
      <rect x="300" y="15" width="30" height="30" fill="#e74c3c" stroke="#c0392b" stroke-width="1" rx="2" ry="2"/>
      <rect x="340" y="15" width="30" height="30" fill="#e74c3c" stroke="#c0392b" stroke-width="1" rx="2" ry="2"/>
    </g>
  </g>
  
  <!-- Fixed text at bottom with better positioning -->
  <text x="400" y="500" font-family="Arial, sans-serif" font-size="16" font-weight="bold" text-anchor="middle" fill="#333">Fixed Function Graphics Hardware</text>
  
  <!-- Added note to emphasize artificial nature with background to ensure visibility -->
  <rect x="150" y="530" width="500" height="30" fill="white" fill-opacity="0.9" rx="5" ry="5"/>
  <text x="400" y="550" font-family="Arial, sans-serif" font-size="14" text-anchor="middle" fill="#e67e22">Programmers had to "trick" the GPU into doing computation</text>
</svg>