<?xml version="1.0" encoding="UTF-8"?>
<svg viewBox="0 0 800 400" xmlns="http://www.w3.org/2000/svg">
  <!-- Background gradient -->
  <defs>
    <linearGradient id="bg-gradient" x1="0%" y1="0%" x2="100%" y2="0%">
      <stop offset="0%" style="stop-color:#f8f9fa;stop-opacity:1" />
      <stop offset="100%" style="stop-color:#e9ecef;stop-opacity:1" />
    </linearGradient>
  </defs>
  <rect width="800" height="400" fill="url(#bg-gradient)" rx="10" ry="10" />
  
  <!-- Title -->
  <text x="400" y="40" font-family="Arial, sans-serif" font-size="24" font-weight="bold" text-anchor="middle" fill="#333">Vertex Processing: 3D to Screen Space</text>
  
  <!-- 3D Model Space (Left) -->
  <g transform="translate(150, 200)">
    <!-- 3D Coordinate system -->
    <line x1="0" y1="0" x2="70" y2="0" stroke="#E63946" stroke-width="2" />
    <line x1="0" y1="0" x2="0" y2="-70" stroke="#1D3557" stroke-width="2" />
    <line x1="0" y1="0" x2="-40" y2="40" stroke="#43AA8B" stroke-width="2" />
    
    <!-- Axis labels -->
    <text x="75" y="5" font-family="Arial, sans-serif" font-size="14" fill="#E63946">X</text>
    <text x="5" y="-75" font-family="Arial, sans-serif" font-size="14" fill="#1D3557">Y</text>
    <text x="-45" y="55" font-family="Arial, sans-serif" font-size="14" fill="#43AA8B">Z</text>
    
    <!-- Simple 3D cube -->
    <g fill="none" stroke="#555" stroke-width="1.5">
      <!-- Front face -->
      <line x1="30" y1="-30" x2="30" y2="10" />
      <line x1="30" y1="10" x2="-10" y2="10" />
      <line x1="-10" y1="10" x2="-10" y2="-30" />
      <line x1="-10" y1="-30" x2="30" y2="-30" />
      
      <!-- Back face -->
      <line x1="10" y1="-50" x2="10" y2="-10" stroke-dasharray="3,2" />
      <line x1="10" y1="-10" x2="-30" y2="-10" stroke-dasharray="3,2" />
      <line x1="-30" y1="-10" x2="-30" y2="-50" stroke-dasharray="3,2" />
      <line x1="-30" y1="-50" x2="10" y2="-50" stroke-dasharray="3,2" />
      
      <!-- Connecting edges -->
      <line x1="30" y1="-30" x2="10" y2="-50" />
      <line x1="30" y1="10" x2="10" y2="-10" stroke-dasharray="3,2" />
      <line x1="-10" y1="10" x2="-30" y2="-10" />
      <line x1="-10" y1="-30" x2="-30" y2="-50" />
    </g>
    
    <!-- Vertices as dots -->
    <circle cx="30" cy="-30" r="4" fill="#2A9D8F" />
    <circle cx="30" cy="10" r="4" fill="#2A9D8F" />
    <circle cx="-10" cy="10" r="4" fill="#2A9D8F" />
    <circle cx="-10" cy="-30" r="4" fill="#2A9D8F" />
    <circle cx="10" cy="-50" r="4" fill="#2A9D8F" />
    <circle cx="10" cy="-10" r="4" fill="#2A9D8F" />
    <circle cx="-30" cy="-10" r="4" fill="#2A9D8F" />
    <circle cx="-30" cy="-50" r="4" fill="#2A9D8F" />
    
    <!-- Model space label -->
    <text x="0" y="80" font-family="Arial, sans-serif" font-size="16" text-anchor="middle" fill="#333">Model Space</text>
    <text x="0" y="100" font-family="Arial, sans-serif" font-size="14" text-anchor="middle" fill="#666">(3D Coordinates)</text>
  </g>
  
  <!-- Transformation Pipeline (Middle) -->
  <g transform="translate(400, 200)">
    <!-- Transformation boxes -->
    <rect x="-100" y="-60" width="200" height="120" rx="10" ry="10" fill="#F1FAEE" stroke="#A8DADC" stroke-width="2" />
    
    <!-- Pipeline components -->
    <g transform="translate(0, -30)">
      <rect x="-80" y="-15" width="160" height="30" rx="5" ry="5" fill="#E0F2F1" stroke="#66B2B2" stroke-width="1.5" />
      <text x="0" y="5" font-family="Arial, sans-serif" font-size="12" font-weight="bold" text-anchor="middle" fill="#333">Model → World Transform</text>
    </g>
    
    <g transform="translate(0, 10)">
      <rect x="-80" y="-15" width="160" height="30" rx="5" ry="5" fill="#E0F2F1" stroke="#66B2B2" stroke-width="1.5" />
      <text x="0" y="5" font-family="Arial, sans-serif" font-size="12" font-weight="bold" text-anchor="middle" fill="#333">View Transform</text>
    </g>
    
    <g transform="translate(0, 50)">
      <rect x="-80" y="-15" width="160" height="30" rx="5" ry="5" fill="#E0F2F1" stroke="#66B2B2" stroke-width="1.5" />
      <text x="0" y="5" font-family="Arial, sans-serif" font-size="12" font-weight="bold" text-anchor="middle" fill="#333">Projection Transform</text>
    </g>
    
    <!-- Vertex Shader label -->
    <text x="0" y="-70" font-family="Arial, sans-serif" font-size="16" font-weight="bold" text-anchor="middle" fill="#1D3557">Vertex Shader</text>
    
    <!-- Arrows connecting stages -->
    <line x1="0" y1="-15" x2="0" y2="-5" stroke="#1D3557" stroke-width="2" marker-end="url(#arrow)" />
    <line x1="0" y1="25" x2="0" y2="35" stroke="#1D3557" stroke-width="2" marker-end="url(#arrow)" />
    
    <!-- Arrow marker definition -->
    <defs>
      <marker id="arrow" markerWidth="10" markerHeight="10" refX="9" refY="3" orient="auto" markerUnits="strokeWidth">
        <path d="M0,0 L0,6 L9,3 z" fill="#1D3557" />
      </marker>
    </defs>
  </g>
  
  <!-- Screen Space (Right) -->
  <g transform="translate(650, 200)">
    <!-- Screen frame -->
    <rect x="-60" y="-60" width="120" height="120" fill="#F1FAEE" stroke="#333" stroke-width="2" />
    
    <!-- 2D coordinate system -->
    <line x1="-60" y1="0" x2="60" y2="0" stroke="#555" stroke-width="1" stroke-dasharray="4,2" />
    <line x1="0" y1="-60" x2="0" y2="60" stroke="#555" stroke-width="1" stroke-dasharray="4,2" />
    
    <!-- 2D projected cube -->
    <g fill="none" stroke="#1D3557" stroke-width="2">
      <!-- Front face -->
      <line x1="40" y1="-20" x2="40" y2="30" />
      <line x1="40" y1="30" x2="-20" y2="30" />
      <line x1="-20" y1="30" x2="-20" y2="-20" />
      <line x1="-20" y1="-20" x2="40" y2="-20" />
      
      <!-- Back face (now visible parts) -->
      <line x1="20" y1="-40" x2="-40" y2="-40" />
      <line x1="-40" y1="-40" x2="-40" y2="10" />
      
      <!-- Connecting edges -->
      <line x1="40" y1="-20" x2="20" y2="-40" />
      <line x1="-20" y1="-20" x2="-40" y2="-40" />
      <line x1="-20" y1="30" x2="-40" y2="10" />
    </g>
    
    <!-- Projected vertices as dots -->
    <circle cx="40" cy="-20" r="4" fill="#E63946" />
    <circle cx="40" cy="30" r="4" fill="#E63946" />
    <circle cx="-20" cy="30" r="4" fill="#E63946" />
    <circle cx="-20" cy="-20" r="4" fill="#E63946" />
    <circle cx="20" cy="-40" r="4" fill="#E63946" />
    <circle cx="-40" cy="-40" r="4" fill="#E63946" />
    <circle cx="-40" cy="10" r="4" fill="#E63946" />
    
    <!-- Screen space label -->
    <text x="0" y="80" font-family="Arial, sans-serif" font-size="16" text-anchor="middle" fill="#333">Screen Space</text>
    <text x="0" y="100" font-family="Arial, sans-serif" font-size="14" text-anchor="middle" fill="#666">(2D Coordinates)</text>
  </g>
  
  <!-- Connecting arrows -->
  <g stroke="#1D3557" stroke-width="2" marker-end="url(#arrow)">
    <line x1="220" y1="200" x2="260" y2="200" />
    <line x1="540" y1="200" x2="580" y2="200" />
  </g>
</svg>
