<?xml version="1.0" encoding="UTF-8" standalone="no"?>
<svg width="1000" height="600" viewBox="0 0 1000 600" xmlns="http://www.w3.org/2000/svg">
  <!-- Styles -->
  <style>
    .container { fill: white; }
    .box { fill: white; stroke: #004065; stroke-width: 2; }
    .memory { fill: #f0f0f0; stroke: #004065; stroke-width: 2; }
    .processor { fill: #e6f3ff; stroke: #004065; stroke-width: 2; }
    .cache { fill: #fffae6; stroke: #004065; stroke-width: 2; }
    .arrow { stroke: #004065; stroke-width: 2; fill: none; marker-end: url(#arrowhead); }
    .highlight { fill: #FFD200; stroke: #004065; stroke-width: 2; }
    .text-bg { fill: white; fill-opacity: 0.85; stroke: #cccccc; stroke-width: 1; rx: 5; ry: 5; }
    .step-bg { fill: #f8f8f8; fill-opacity: 0.9; stroke: #004065; stroke-width: 1; rx: 8; ry: 8; }
    text { font-family: Arial, sans-serif; font-size: 16px; fill: #333; }
    .title { font-size: 24px; font-weight: bold; }
    .step { font-size: 20px; font-weight: bold; fill: #004065; }
    .data { font-weight: bold; }
    .warning { fill: #cc0000; font-weight: bold; }
    .warning-box { fill: #fff8f8; stroke: #cc0000; stroke-width: 1.5; stroke-dasharray: 5,3; }
  </style>
  
  <!-- Arrow marker definition -->
  <defs>
    <marker id="arrowhead" markerWidth="10" markerHeight="7" refX="10" refY="3.5" orient="auto">
      <polygon points="0 0, 10 3.5, 0 7" fill="#004065"/>
    </marker>
  </defs>
  
  <!-- Background -->
  <rect width="1000" height="600" class="container"/>
  
  <!-- Title with background -->
  <rect x="250" y="15" width="500" height="40" class="text-bg"/>
  <text x="500" y="42" text-anchor="middle" class="title">Cache Coherence Problem: Step by Step</text>
  
  <!-- Memory -->
  <rect x="440" y="500" width="120" height="70" rx="5" class="memory"/>
  <rect x="450" y="505" width="100" height="25" class="text-bg"/>
  <text x="500" y="525" text-anchor="middle">Memory</text>
  <rect x="450" y="535" width="100" height="25" class="text-bg"/>
  <text x="500" y="555" text-anchor="middle" class="data">X = 0</text>
  
  <!-- Processor 1 -->
  <rect x="200" y="120" width="150" height="80" rx="5" class="processor"/>
  <rect x="210" y="145" width="130" height="30" class="text-bg"/>
  <text x="275" y="165" text-anchor="middle">Processor 1</text>
  
  <!-- Processor 1 Cache -->
  <rect x="200" y="240" width="150" height="120" rx="5" class="cache"/>
  <rect x="225" y="250" width="100" height="30" class="text-bg"/>
  <text x="275" y="270" text-anchor="middle">Cache P1</text>
  <rect x="225" y="290" width="100" height="50" rx="3" id="p1cache" class="box"/>
  <rect x="235" y="305" width="80" height="25" class="text-bg"/>
  <text x="275" y="325" id="p1value" text-anchor="middle" class="data">Empty</text>
  
  <!-- Processor 2 -->
  <rect x="650" y="120" width="150" height="80" rx="5" class="processor"/>
  <rect x="660" y="145" width="130" height="30" class="text-bg"/>
  <text x="725" y="165" text-anchor="middle">Processor 2</text>
  
  <!-- Processor 2 Cache -->
  <rect x="650" y="240" width="150" height="120" rx="5" class="cache"/>
  <rect x="675" y="250" width="100" height="30" class="text-bg"/>
  <text x="725" y="270" text-anchor="middle">Cache P2</text>
  <rect x="675" y="290" width="100" height="50" rx="3" id="p2cache" class="box"/>
  <rect x="685" y="305" width="80" height="25" class="text-bg"/>
  <text x="725" y="325" id="p2value" text-anchor="middle" class="data">Empty</text>
  
  <!-- Step 1: P1 reads from memory -->
  <g id="step1">
    <rect x="40" y="120" width="140" height="80" class="step-bg"/>
    <text x="60" y="150" class="step">Step 1:</text>
    <text x="60" y="180">Processor 1 reads</text>
    <text x="60" y="200">X = 0 from memory</text>
    <path d="M275 380 L440 500" class="arrow" id="arrow1"/>
    <path d="M275 360 L275 380" class="arrow"/>
  </g>
  
  <!-- Step 2: P2 reads from memory -->
  <g id="step2">
    <rect x="820" y="120" width="140" height="80" class="step-bg"/>
    <text x="840" y="150" class="step">Step 2:</text>
    <text x="840" y="180">Processor 2 reads</text>
    <text x="840" y="200">X = 0 from memory</text>
    <path d="M725 380 L560 500" class="arrow" id="arrow2"/>
    <path d="M725 360 L725 380" class="arrow"/>
  </g>
  
  <!-- Step 3: P1 updates cache -->
  <g id="step3">
    <rect x="40" y="240" width="140" height="80" class="step-bg"/>
    <text x="60" y="270" class="step">Step 3:</text>
    <text x="60" y="300">Processor 1 updates</text>
    <text x="60" y="320">X to 1 in its cache</text>
    <rect x="225" y="290" width="100" height="50" rx="3" class="highlight"/>
    <rect x="235" y="305" width="80" height="25" fill="white" fill-opacity="0.7"/>
    <text x="275" y="325" text-anchor="middle" class="data">X = 1</text>
  </g>
  
  <!-- Step 4: Incoherence problem -->
  <g id="step4">
    <rect x="820" y="240" width="140" height="80" class="step-bg"/>
    <text x="840" y="270" class="step">Step 4:</text>
    <text x="840" y="300">Processor 2 still has</text>
    <text x="840" y="320">old value X = 0</text>
    <rect x="675" y="290" width="100" height="50" rx="3" id="p2cache" class="box"/>
    <rect x="685" y="305" width="80" height="25" class="text-bg"/>
    <text x="725" y="325" text-anchor="middle" class="data">X = 0</text>
  </g>
  
  <!-- Warning about coherence problem -->
  <rect x="300" y="400" width="400" height="60" class="warning-box"/>
  <rect x="320" y="415" width="360" height="30" fill="white" fill-opacity="0.9"/>
  <text x="500" y="435" text-anchor="middle" class="warning">INCONSISTENCY: P1 sees X = 1, P2 sees X = 0</text>
  
  <!-- Populate initial values for caches -->
  <script type="text/javascript">
    // <![CDATA[
    var p1value = document.getElementById('p1value');
    var p2value = document.getElementById('p2value');
    
    // Step 1 happens immediately
    setTimeout(function() {
      p1value.textContent = "X = 0";
    }, 100);
    
    // Step 2 happens after a delay
    setTimeout(function() {
      p2value.textContent = "X = 0";
    }, 200);
    // ]]>
  </script>
</svg> 