<?xml version="1.0" encoding="UTF-8" standalone="no"?>
<svg width="1200" height="900" xmlns="http://www.w3.org/2000/svg">
  <!-- False Sharing Illustration with improved layout -->
  
  <!-- Background -->
  <rect x="0" y="0" width="1200" height="900" fill="#f9f9f9"/>
  
  <!-- Arrow definition -->
  <defs>
    <marker id="arrowhead" markerWidth="10" markerHeight="7" refX="9" refY="3.5" orient="auto">
      <polygon points="0 0, 10 3.5, 0 7" fill="#000"/>
    </marker>
  </defs>
  
  <!-- Title -->
  <rect x="300" y="40" width="600" height="70" rx="15" ry="15" fill="#f0f8ff" stroke="#0066cc" stroke-width="3" opacity="0.9"/>
  <text x="600" y="85" font-family="Arial" font-size="36" text-anchor="middle" font-weight="bold">False Sharing Problem</text>
  
  <!-- Memory and cache line representation -->
  <rect x="200" y="150" width="800" height="100" fill="#e6e6e6" stroke="#000" stroke-width="3"/>
  <text x="600" y="190" font-family="Arial" font-size="28" text-anchor="middle">Memory</text>
  
  <!-- Memory addresses -->
  <line x1="200" y1="150" x2="200" y2="250" stroke="#000" stroke-width="3"/>
  <line x1="300" y1="150" x2="300" y2="250" stroke="#000" stroke-width="3"/>
  <line x1="400" y1="150" x2="400" y2="250" stroke="#000" stroke-width="3"/>
  <line x1="500" y1="150" x2="500" y2="250" stroke="#000" stroke-width="3"/>
  <line x1="600" y1="150" x2="600" y2="250" stroke="#000" stroke-width="3"/>
  <line x1="700" y1="150" x2="700" y2="250" stroke="#000" stroke-width="3"/>
  <line x1="800" y1="150" x2="800" y2="250" stroke="#000" stroke-width="3"/>
  <line x1="900" y1="150" x2="900" y2="250" stroke="#000" stroke-width="3"/>
  <line x1="1000" y1="150" x2="1000" y2="250" stroke="#000" stroke-width="3"/>
  
  <text x="250" y="275" font-family="Arial" font-size="18" text-anchor="middle">Address 0</text>
  <text x="350" y="275" font-family="Arial" font-size="18" text-anchor="middle">Address 4</text>
  <text x="450" y="275" font-family="Arial" font-size="18" text-anchor="middle">Address 8</text>
  <text x="550" y="275" font-family="Arial" font-size="18" text-anchor="middle">Address 12</text>
  <text x="650" y="275" font-family="Arial" font-size="18" text-anchor="middle">Address 16</text>
  <text x="750" y="275" font-family="Arial" font-size="18" text-anchor="middle">Address 20</text>
  <text x="850" y="275" font-family="Arial" font-size="18" text-anchor="middle">Address 24</text>
  <text x="950" y="275" font-family="Arial" font-size="18" text-anchor="middle">Address 28</text>
  
  <!-- Cache line boundaries -->
  <rect x="200" y="120" width="400" height="165" fill="none" stroke="#ff0000" stroke-width="4" stroke-dasharray="8,8"/>
  <rect x="600" y="120" width="400" height="165" fill="none" stroke="#ff0000" stroke-width="4" stroke-dasharray="8,8"/>
  <text x="400" y="135" font-family="Arial" font-size="20" text-anchor="middle" fill="#ff0000" font-weight="bold">Cache Line 0</text>
  <text x="800" y="135" font-family="Arial" font-size="20" text-anchor="middle" fill="#ff0000" font-weight="bold">Cache Line 1</text>
  
  <!-- Core 1's view -->
  <rect x="150" y="350" width="400" height="400" rx="20" ry="20" fill="#e6f7ff" stroke="#0066cc" stroke-width="4"/>
  <text x="350" y="390" font-family="Arial" font-size="28" text-anchor="middle" font-weight="bold">Core 1</text>
  
  <!-- Core 1's cache -->
  <rect x="200" y="420" width="300" height="120" fill="#ffffff" stroke="#000" stroke-width="3"/>
  <text x="350" y="450" font-family="Arial" font-size="24" text-anchor="middle" font-weight="bold">Cache</text>
  <rect x="200" y="475" width="300" height="65" fill="#ccf2ff" stroke="#0066cc" stroke-width="3"/>
  <text x="350" y="515" font-family="Arial" font-size="20" text-anchor="middle">Cache Line 0 (Addresses 0-15)</text>
  
  <!-- Core 1's code -->
  <rect x="200" y="560" width="300" height="140" fill="#ffffff" stroke="#000" stroke-width="3"/>
  <text x="350" y="590" font-family="Arial" font-size="22" text-anchor="middle" font-weight="bold">Accessing:</text>
  <text x="350" y="625" font-family="Courier" font-size="20" text-anchor="middle" font-weight="bold">array[0] += 1;</text>
  <text x="350" y="655" font-family="Courier" font-size="18" text-anchor="middle">(Address 0)</text>
  <text x="350" y="685" font-family="Arial" font-size="18" text-anchor="middle" font-style="italic" fill="#0066cc">Needs exclusive access to cache line</text>
  
  <!-- Core 2's view -->
  <rect x="650" y="350" width="400" height="400" rx="20" ry="20" fill="#fff2e6" stroke="#ff6600" stroke-width="4"/>
  <text x="850" y="390" font-family="Arial" font-size="28" text-anchor="middle" font-weight="bold">Core 2</text>
  
  <!-- Core 2's cache -->
  <rect x="700" y="420" width="300" height="120" fill="#ffffff" stroke="#000" stroke-width="3"/>
  <text x="850" y="450" font-family="Arial" font-size="24" text-anchor="middle" font-weight="bold">Cache</text>
  <rect x="700" y="475" width="300" height="65" fill="#ffe0cc" stroke="#ff6600" stroke-width="3"/>
  <text x="850" y="515" font-family="Arial" font-size="20" text-anchor="middle">Cache Line 0 (Addresses 0-15)</text>
  
  <!-- Core 2's code -->
  <rect x="700" y="560" width="300" height="140" fill="#ffffff" stroke="#000" stroke-width="3"/>
  <text x="850" y="590" font-family="Arial" font-size="22" text-anchor="middle" font-weight="bold">Accessing:</text>
  <text x="850" y="625" font-family="Courier" font-size="20" text-anchor="middle" font-weight="bold">array[1] += 1;</text>
  <text x="850" y="655" font-family="Courier" font-size="18" text-anchor="middle">(Address 4)</text>
  <text x="850" y="685" font-family="Arial" font-size="18" text-anchor="middle" font-style="italic" fill="#ff6600">Needs exclusive access to cache line</text>
  
  <!-- Problem description and arrows -->
  <path d="M350 475 L300 250" fill="none" stroke="#0066cc" stroke-width="3" marker-end="url(#arrowhead)" stroke-dasharray="10,5"/>
  <path d="M850 475 L350 250" fill="none" stroke="#ff6600" stroke-width="3" marker-end="url(#arrowhead)" stroke-dasharray="10,5"/>
  
  <!-- Ping-pong effect -->
  <rect x="450" y="450" width="300" height="200" rx="20" ry="20" fill="#f9f9f9" stroke="#cc0000" stroke-width="3"/>
  <text x="600" y="480" font-family="Arial" font-size="24" text-anchor="middle" font-weight="bold" fill="#cc0000">Cache Line "Ping-Pong"</text>
  <path d="M500 520 C550 480, 650 480, 700 520" fill="none" stroke="#cc0000" stroke-width="4" marker-end="url(#arrowhead)"/>
  <path d="M700 580 C650 620, 550 620, 500 580" fill="none" stroke="#cc0000" stroke-width="4" marker-end="url(#arrowhead)"/>
  <text x="600" y="560" font-family="Arial" font-size="16" text-anchor="middle">Every write invalidates</text>
  <text x="600" y="610" font-family="Arial" font-size="16" text-anchor="middle">other core's cache line</text>
  
  <!-- Problem summary at bottom -->
  <rect x="200" y="780" width="800" height="80" rx="15" ry="15" fill="#f0f8ff" stroke="#cc0000" stroke-width="3"/>
  <text x="600" y="810" font-family="Arial" font-size="24" text-anchor="middle" font-weight="bold" fill="#cc0000">False Sharing Problem:</text>
  <text x="600" y="845" font-family="Arial" font-size="20" text-anchor="middle">Both cores need exclusive access to same cache line even though</text>
  <text x="600" y="870" font-family="Arial" font-size="20" text-anchor="middle">they access different variables that happen to share the cache line</text>
</svg> 