<?xml version="1.0" encoding="UTF-8" standalone="no"?>
<svg width="1100" height="750" viewBox="0 0 1100 750" xmlns="http://www.w3.org/2000/svg">
  <!-- Styles -->
  <style>
    .background { fill: white; }
    .chart-bg { fill: #f7f7f7; stroke: #004065; stroke-width: 1; }
    .grid-line { stroke: #ccc; stroke-width: 1; stroke-dasharray: 5,5; }
    .bar-problem { fill: #ff9e6d; }
    .bar-fixed { fill: #66c2a5; }
    .y-axis { stroke: #004065; stroke-width: 2; }
    .x-axis { stroke: #004065; stroke-width: 2; }
    .code-box { fill: #f5f5f5; stroke: #004065; stroke-width: 1; }
    .memory-box { fill: #f5f5f5; stroke: #004065; stroke-width: 1; }
    .cache-line { fill: #eee6ff; stroke: #004065; stroke-width: 1; }
    .cache-line-conflict { fill: #ffd6d6; stroke: #cc0000; stroke-width: 1; }
    .var-highlight { fill: #ffff00; opacity: 0.5; }
    .title { font-size: 26px; font-weight: bold; text-anchor: middle; }
    .subtitle { font-size: 18px; font-style: italic; text-anchor: middle; }
    .axis-label { font-size: 16px; text-anchor: middle; }
    .metric-label { font-size: 14px; text-anchor: middle; }
    .code-text { font-family: "Courier New", monospace; font-size: 14px; }
    .legend-text { font-size: 14px; }
    .memory-text { font-size: 14px; text-anchor: middle; }
    .text-bg { fill: white; fill-opacity: 0.9; stroke: #cccccc; stroke-width: 1; rx: 5; ry: 5; }
    .annotation { font-size: 18px; font-weight: bold; fill: #cc0000; text-anchor: middle; }
    .highlight { font-weight: bold; }
    text { font-family: Arial, sans-serif; fill: #333; }
  </style>
  
  <!-- Background -->
  <rect width="1100" height="750" class="background"/>
  
  <!-- Title and subtitle -->
  <rect x="250" y="20" width="600" height="40" class="text-bg"/>
  <text x="550" y="50" class="title">False Sharing Performance Impact</text>
  <rect x="250" y="65" width="600" height="30" class="text-bg"/>
  <text x="550" y="85" class="subtitle">Comparing execution time with and without false sharing</text>
  
  <!-- Chart area -->
  <rect x="100" y="100" width="500" height="350" class="chart-bg"/>
  
  <!-- Grid lines -->
  <line x1="100" y1="150" x2="600" y2="150" class="grid-line"/>
  <line x1="100" y1="200" x2="600" y2="200" class="grid-line"/>
  <line x1="100" y1="250" x2="600" y2="250" class="grid-line"/>
  <line x1="100" y1="300" x2="600" y2="300" class="grid-line"/>
  <line x1="100" y1="350" x2="600" y2="350" class="grid-line"/>
  <line x1="100" y1="400" x2="600" y2="400" class="grid-line"/>
  
  <!-- Y-axis and labels -->
  <line x1="100" y1="100" x2="100" y2="450" class="y-axis"/>
  
  <!-- Y-axis labels with background containers -->
  <rect x="20" y="95" width="75" height="30" class="text-bg"/>
  <text x="60" y="115" class="axis-label">10x</text>
  
  <rect x="20" y="145" width="75" height="30" class="text-bg"/>
  <text x="60" y="165" class="axis-label">8x</text>
  
  <rect x="20" y="195" width="75" height="30" class="text-bg"/>
  <text x="60" y="215" class="axis-label">6x</text>
  
  <rect x="20" y="245" width="75" height="30" class="text-bg"/>
  <text x="60" y="265" class="axis-label">4x</text>
  
  <rect x="20" y="295" width="75" height="30" class="text-bg"/>
  <text x="60" y="315" class="axis-label">2x</text>
  
  <rect x="20" y="395" width="75" height="30" class="text-bg"/>
  <text x="60" y="415" class="axis-label">0x</text>
  
  <!-- X-axis -->
  <line x1="100" y1="450" x2="600" y2="450" class="x-axis"/>
  
  <!-- X-axis labels for thread counts -->
  <rect x="150" y="455" width="50" height="30" class="text-bg"/>
  <text x="175" y="475" class="metric-label">2</text>
  
  <rect x="230" y="455" width="50" height="30" class="text-bg"/>
  <text x="255" y="475" class="metric-label">4</text>
  
  <rect x="310" y="455" width="50" height="30" class="text-bg"/>
  <text x="335" y="475" class="metric-label">8</text>
  
  <rect x="390" y="455" width="50" height="30" class="text-bg"/>
  <text x="415" y="475" class="metric-label">16</text>
  
  <rect x="470" y="455" width="50" height="30" class="text-bg"/>
  <text x="495" y="475" class="metric-label">32</text>
  
  <rect x="270" y="490" width="160" height="30" class="text-bg"/>
  <text x="350" y="510" class="axis-label">Number of Threads</text>
  
  <!-- Performance bars - With false sharing problem -->
  <rect x="160" y="350" width="30" height="100" class="bar-problem"/>
  <rect x="240" y="300" width="30" height="150" class="bar-problem"/>
  <rect x="320" y="250" width="30" height="200" class="bar-problem"/>
  <rect x="400" y="250" width="30" height="200" class="bar-problem"/>
  <rect x="480" y="200" width="30" height="250" class="bar-problem"/>
  
  <!-- Performance bars - With padding fix -->
  <rect x="195" y="200" width="30" height="250" class="bar-fixed"/>
  <rect x="275" y="150" width="30" height="300" class="bar-fixed"/>
  <rect x="355" y="100" width="30" height="350" class="bar-fixed"/>
  <rect x="435" y="100" width="30" height="350" class="bar-fixed"/>
  <rect x="515" y="100" width="30" height="350" class="bar-fixed"/>
  
  <!-- Legend -->
  <rect x="120" y="520" width="460" height="60" rx="5" class="chart-bg"/>
  <rect x="130" y="530" width="440" height="40" class="text-bg"/>
  
  <rect x="150" y="540" width="20" height="20" class="bar-problem"/>
  <text x="175" y="555" class="legend-text">With false sharing</text>
  
  <rect x="350" y="540" width="20" height="20" class="bar-fixed"/>
  <text x="450" y="555" text-anchor="middle" class="legend-text">With padding fix (no false sharing)</text>
  
  <!-- Performance annotation -->
  <rect x="250" y="590" width="200" height="30" class="text-bg"/>
  <text x="350" y="610" class="annotation">5-10x performance improvement with padding fix</text>
  
  <!-- Problem Code Example -->
  <rect x="650" y="100" width="400" height="200" rx="5" class="code-box"/>
  <rect x="660" y="110" width="380" height="30" class="text-bg"/>
  <text x="850" y="130" text-anchor="middle" class="highlight">Problem Code (with false sharing)</text>
  
  <rect x="660" y="145" width="380" height="145" class="text-bg"/>
  <text x="670" y="165" class="code-text">struct SharedData {</text>
  <text x="670" y="185" class="code-text">  int counter1; <tspan fill="#cc0000">// Thread 1 writes here</tspan></text>
  <text x="670" y="205" class="code-text">  int counter2; <tspan fill="#cc0000">// Thread 2 writes here</tspan></text>
  <text x="670" y="225" class="code-text">  int counter3; <tspan fill="#cc0000">// Thread 3 writes here</tspan></text>
  <text x="670" y="245" class="code-text">  int counter4; <tspan fill="#cc0000">// Thread 4 writes here</tspan></text>
  <text x="670" y="265" class="code-text">};</text>
  <text x="670" y="285" class="code-text">// All counters share a single cache line</text>
  
  <!-- Fixed Code Example -->
  <rect x="650" y="320" width="400" height="260" rx="5" class="code-box"/>
  <rect x="660" y="330" width="380" height="30" class="text-bg"/>
  <text x="850" y="350" text-anchor="middle" class="highlight">Fixed Code (with padding)</text>
  
  <rect x="660" y="365" width="380" height="205" class="text-bg"/>
  <text x="670" y="385" class="code-text">struct SharedData {</text>
  <text x="670" y="405" class="code-text">  int counter1;</text>
  <text x="670" y="425" class="code-text">  char padding1[60]; <tspan fill="#006600">// Avoid sharing</tspan></text>
  <text x="670" y="445" class="code-text">  int counter2;</text>
  <text x="670" y="465" class="code-text">  char padding2[60]; <tspan fill="#006600">// Each counter</tspan></text>
  <text x="670" y="485" class="code-text">  int counter3;</text>
  <text x="670" y="505" class="code-text">  char padding3[60]; <tspan fill="#006600">// gets its own</tspan></text>
  <text x="670" y="525" class="code-text">  int counter4;</text>
  <text x="670" y="545" class="code-text">  char padding4[60]; <tspan fill="#006600">// cache line</tspan></text>
  <text x="670" y="565" class="code-text">};</text>
  
  <!-- Memory visualization - problem case -->
  <rect x="100" y="620" width="400" height="120" rx="5" class="memory-box"/>
  <rect x="110" y="630" width="380" height="30" class="text-bg"/>
  <text x="300" y="650" text-anchor="middle" class="highlight">Memory Layout With False Sharing</text>
  
  <!-- Cache lines - problem -->
  <rect x="150" y="670" width="320" height="50" class="cache-line-conflict"/>
  <rect x="160" y="680" width="60" height="30" class="text-bg"/>
  <text x="190" y="700" class="memory-text">counter1</text>
  <rect x="225" y="680" width="60" height="30" class="text-bg"/>
  <text x="255" y="700" class="memory-text">counter2</text>
  <rect x="290" y="680" width="60" height="30" class="text-bg"/>
  <text x="320" y="700" class="memory-text">counter3</text>
  <rect x="355" y="680" width="60" height="30" class="text-bg"/>
  <text x="385" y="700" class="memory-text">counter4</text>
  
  <!-- Memory visualization - fixed case -->
  <rect x="600" y="620" width="450" height="120" rx="5" class="memory-box"/>
  <rect x="610" y="630" width="430" height="30" class="text-bg"/>
  <text x="825" y="650" text-anchor="middle" class="highlight">Memory Layout With Padding</text>
  
  <!-- Cache lines - fixed -->
  <rect x="610" y="670" width="100" height="50" class="cache-line"/>
  <rect x="620" y="680" width="80" height="30" class="text-bg"/>
  <text x="660" y="700" class="memory-text">counter1</text>
  
  <rect x="720" y="670" width="100" height="50" class="cache-line"/>
  <rect x="730" y="680" width="80" height="30" class="text-bg"/>
  <text x="770" y="700" class="memory-text">counter2</text>
  
  <rect x="830" y="670" width="100" height="50" class="cache-line"/>
  <rect x="840" y="680" width="80" height="30" class="text-bg"/>
  <text x="880" y="700" class="memory-text">counter3</text>
  
  <rect x="940" y="670" width="100" height="50" class="cache-line"/>
  <rect x="950" y="680" width="80" height="30" class="text-bg"/>
  <text x="990" y="700" class="memory-text">counter4</text>
</svg> 