<?xml version="1.0" encoding="UTF-8" standalone="no"?>
<svg width="1200" height="900" xmlns="http://www.w3.org/2000/svg">
  <!-- MESI State Diagram with improved layout -->
  
  <!-- Background -->
  <rect x="0" y="0" width="1200" height="900" fill="#f9f9f9"/>
  
  <!-- Arrow definition -->
  <defs>
    <marker id="arrowhead" markerWidth="10" markerHeight="7" refX="9" refY="3.5" orient="auto">
      <polygon points="0 0, 10 3.5, 0 7" fill="#000"/>
    </marker>
  </defs>
  
  <!-- Title with background -->
  <rect x="300" y="40" width="600" height="80" rx="15" ry="15" fill="#f0f8ff" stroke="#0066cc" stroke-width="3" opacity="0.9"/>
  <text x="600" y="80" font-family="Arial" font-size="32" text-anchor="middle" font-weight="bold">MESI Cache Coherence Protocol</text>
  <text x="600" y="110" font-family="Arial" font-size="22" text-anchor="middle">State Transition Diagram</text>
  
  <!-- Background for states - arranged in a square -->
  <circle cx="600" cy="250" r="70" fill="#e6f7ff" stroke="#0066cc" stroke-width="3"/>
  <circle cx="300" cy="450" r="70" fill="#e6f7ff" stroke="#0066cc" stroke-width="3"/>
  <circle cx="900" cy="450" r="70" fill="#e6f7ff" stroke="#0066cc" stroke-width="3"/>
  <circle cx="600" cy="650" r="70" fill="#e6f7ff" stroke="#ff8c00" stroke-width="3"/>
  
  <!-- State labels -->
  <text x="600" y="250" font-family="Arial" font-size="40" text-anchor="middle" font-weight="bold">I</text>
  <text x="600" y="280" font-family="Arial" font-size="20" text-anchor="middle">(Invalid)</text>
  
  <text x="300" y="450" font-family="Arial" font-size="40" text-anchor="middle" font-weight="bold">S</text>
  <text x="300" y="480" font-family="Arial" font-size="20" text-anchor="middle">(Shared)</text>
  
  <text x="900" y="450" font-family="Arial" font-size="40" text-anchor="middle" font-weight="bold">M</text>
  <text x="900" y="480" font-family="Arial" font-size="20" text-anchor="middle">(Modified)</text>
  
  <text x="600" y="650" font-family="Arial" font-size="40" text-anchor="middle" font-weight="bold">E</text>
  <text x="600" y="680" font-family="Arial" font-size="20" text-anchor="middle">(Exclusive)</text>
  
  <!-- Highlight for the E state which is the key addition to MSI -->
  <circle cx="600" cy="650" r="75" fill="none" stroke="#ff8c00" stroke-width="4" stroke-dasharray="10,5"/>
  
  <!-- Transition arrows with labeled boxes -->
  <!-- I to S -->
  <path d="M540 290 C480 330, 410 380, 360 410" fill="none" stroke="#000" stroke-width="3" marker-end="url(#arrowhead)"/>
  <rect x="420" y="320" width="120" height="45" rx="8" ry="8" fill="white" stroke="#0066cc" stroke-width="1.5" opacity="0.9"/>
  <text x="480" y="340" font-family="Arial" font-size="18" text-anchor="middle">Read miss</text>
  <text x="480" y="360" font-family="Arial" font-size="16" text-anchor="middle" font-style="italic">(shared)</text>
  
  <!-- I to E -->
  <path d="M600 320 L600 580" fill="none" stroke="#000" stroke-width="3" marker-end="url(#arrowhead)"/>
  <rect x="620" y="425" width="130" height="45" rx="8" ry="8" fill="white" stroke="#0066cc" stroke-width="1.5" opacity="0.9"/>
  <text x="685" y="445" font-family="Arial" font-size="18" text-anchor="middle">Read miss</text>
  <text x="685" y="465" font-family="Arial" font-size="16" text-anchor="middle" font-style="italic">(no sharing)</text>
  
  <!-- I to M -->
  <path d="M660 290 C720 330, 800 380, 850 410" fill="none" stroke="#000" stroke-width="3" marker-end="url(#arrowhead)"/>
  <rect x="730" y="320" width="120" height="30" rx="8" ry="8" fill="white" stroke="#0066cc" stroke-width="1.5" opacity="0.9"/>
  <text x="790" y="342" font-family="Arial" font-size="18" text-anchor="middle">Write miss</text>
  
  <!-- S to M -->
  <path d="M370 450 C510 410, 690 410, 830 450" fill="none" stroke="#000" stroke-width="3" marker-end="url(#arrowhead)"/>
  <rect x="515" y="390" width="170" height="30" rx="8" ry="8" fill="white" stroke="#0066cc" stroke-width="1.5" opacity="0.9"/>
  <text x="600" y="412" font-family="Arial" font-size="18" text-anchor="middle">Write hit / BusUpgr</text>
  
  <!-- E to M -->
  <path d="M660 610 C720 570, 800 520, 840 490" fill="none" stroke="#000" stroke-width="3" marker-end="url(#arrowhead)"/>
  <rect x="720" y="545" width="120" height="45" rx="8" ry="8" fill="white" stroke="#0066cc" stroke-width="1.5" opacity="0.9"/>
  <text x="780" y="565" font-family="Arial" font-size="18" text-anchor="middle">Write hit</text>
  <text x="780" y="585" font-family="Arial" font-size="16" text-anchor="middle" font-style="italic">(silent)</text>
  
  <!-- M to S -->
  <path d="M830 470 C690 510, 510 510, 370 470" fill="none" stroke="#000" stroke-width="3" marker-end="url(#arrowhead)"/>
  <rect x="490" y="490" width="220" height="30" rx="8" ry="8" fill="white" stroke="#0066cc" stroke-width="1.5" opacity="0.9"/>
  <text x="600" y="512" font-family="Arial" font-size="18" text-anchor="middle">Read by other / BusRd</text>
  
  <!-- E to S -->
  <path d="M540 610 C480 570, 400 530, 360 490" fill="none" stroke="#000" stroke-width="3" marker-end="url(#arrowhead)"/>
  <rect x="420" y="540" width="130" height="30" rx="8" ry="8" fill="white" stroke="#0066cc" stroke-width="1.5" opacity="0.9"/>
  <text x="485" y="562" font-family="Arial" font-size="18" text-anchor="middle">Read by other</text>
  
  <!-- S to I -->
  <path d="M320 380 C380 340, 480 290, 570 270" fill="none" stroke="#000" stroke-width="3" marker-end="url(#arrowhead)"/>
  <rect x="360" y="300" width="140" height="30" rx="8" ry="8" fill="white" stroke="#0066cc" stroke-width="1.5" opacity="0.9"/>
  <text x="430" y="322" font-family="Arial" font-size="18" text-anchor="middle">Write by other</text>
  
  <!-- M to I -->
  <path d="M880 380 C820 340, 720 290, 630 270" fill="none" stroke="#000" stroke-width="3" marker-end="url(#arrowhead)"/>
  <rect x="700" y="300" width="140" height="30" rx="8" ry="8" fill="white" stroke="#0066cc" stroke-width="1.5" opacity="0.9"/>
  <text x="770" y="322" font-family="Arial" font-size="18" text-anchor="middle">Write by other</text>
  
  <!-- E to I -->
  <path d="M540 590 C500 500, 500 350, 560 300" fill="none" stroke="#000" stroke-width="3" marker-end="url(#arrowhead)"/>
  <rect x="450" y="450" width="140" height="30" rx="8" ry="8" fill="white" stroke="#0066cc" stroke-width="1.5" opacity="0.9"/>
  <text x="520" y="472" font-family="Arial" font-size="18" text-anchor="middle">Write by other</text>
  
  <!-- Legend box at bottom with better styling -->
  <rect x="200" y="750" width="800" height="100" rx="15" ry="15" fill="#f0f8ff" stroke="#0066cc" stroke-width="2"/>
  <text x="600" y="780" font-family="Arial" font-size="22" text-anchor="middle" font-weight="bold">MESI Protocol States:</text>
  <text x="310" y="815" font-family="Arial" font-size="18" text-anchor="middle">I: Invalid</text>
  <text x="470" y="815" font-family="Arial" font-size="18" text-anchor="middle">S: Shared</text>
  <text x="630" y="815" font-family="Arial" font-size="18" text-anchor="middle">E: Exclusive</text>
  <text x="790" y="815" font-family="Arial" font-size="18" text-anchor="middle">M: Modified</text>
  <text x="600" y="840" font-family="Arial" font-size="18" text-anchor="middle" font-style="italic">E state enables direct transition to M without bus transactions</text>
</svg> 