<?xml version="1.0" encoding="UTF-8" standalone="no"?>
<svg width="1100" height="750" viewBox="0 0 1100 750" xmlns="http://www.w3.org/2000/svg">
  <!-- Styles -->
  <style>
    .background { fill: white; }
    .title { font-size: 26px; font-weight: bold; text-anchor: middle; }
    .subtitle { font-size: 18px; font-style: italic; text-anchor: middle; }
    .section-title { font-size: 20px; font-weight: bold; text-anchor: middle; }
    .processor { fill: #e6f3ff; stroke: #004065; stroke-width: 2; }
    .memory { fill: #f0f0f0; stroke: #004065; stroke-width: 2; }
    .bus { fill: #d9d9d9; stroke: #004065; stroke-width: 2; }
    .network { fill: #eee6ff; stroke: #004065; stroke-width: 2; }
    .directory { fill: #ffe6e6; stroke: #004065; stroke-width: 2; }
    .arrow-broadcast { stroke: #cc0000; stroke-width: 2; fill: none; marker-end: url(#arrowhead-red); }
    .arrow-point { stroke: #004065; stroke-width: 2; fill: none; marker-end: url(#arrowhead); }
    .box { fill: white; stroke: #004065; stroke-width: 2; }
    .pros-cons { fill: #f9f9f9; stroke: #004065; stroke-width: 1; }
    .pro { fill: #004065; }
    .con { fill: #cc0000; }
    text { font-family: Arial, sans-serif; font-size: 16px; fill: #333; }
    .text-bg { fill: white; fill-opacity: 0.9; stroke: #cccccc; stroke-width: 1; rx: 5; ry: 5; }
    .section-bg { fill: #f5f5f5; stroke: #004065; stroke-width: 1; rx: 10; ry: 10; }
    .highlight { font-weight: bold; }
  </style>
  
  <!-- Arrow marker definitions -->
  <defs>
    <marker id="arrowhead" markerWidth="10" markerHeight="7" refX="10" refY="3.5" orient="auto">
      <polygon points="0 0, 10 3.5, 0 7" fill="#004065"/>
    </marker>
    <marker id="arrowhead-red" markerWidth="10" markerHeight="7" refX="10" refY="3.5" orient="auto">
      <polygon points="0 0, 10 3.5, 0 7" fill="#cc0000"/>
    </marker>
  </defs>
  
  <!-- Background -->
  <rect width="1100" height="750" class="background"/>
  
  <!-- Title -->
  <rect x="250" y="25" width="600" height="40" class="text-bg"/>
  <text x="550" y="55" class="title">Snooping vs. Directory-Based Cache Coherence</text>
  
  <!-- Left Section - Snooping Protocol -->
  <rect x="50" y="100" width="450" height="560" class="section-bg"/>
  <rect x="150" y="115" width="250" height="35" class="text-bg"/>
  <text x="275" y="140" class="section-title">Snooping Protocol</text>
  
  <!-- Shared Bus Architecture for Snooping -->
  <rect x="100" y="350" width="350" height="50" rx="5" class="bus"/>
  <rect x="200" y="360" width="150" height="30" class="text-bg"/>
  <text x="275" y="380" text-anchor="middle" class="highlight">Shared Bus</text>
  
  <!-- Memory for Snooping -->
  <rect x="200" y="450" width="150" height="70" rx="5" class="memory"/>
  <rect x="210" y="460" width="130" height="30" class="text-bg"/>
  <text x="275" y="480" text-anchor="middle">Memory</text>
  <rect x="225" y="490" width="100" height="20" class="text-bg"/>
  <text x="275" y="505" text-anchor="middle">X = 0</text>
  
  <!-- Processors for Snooping -->
  <rect x="100" y="170" width="100" height="70" rx="5" class="processor"/>
  <rect x="110" y="190" width="80" height="30" class="text-bg"/>
  <text x="150" y="210" text-anchor="middle">P1</text>
  
  <rect x="250" y="170" width="100" height="70" rx="5" class="processor"/>
  <rect x="260" y="190" width="80" height="30" class="text-bg"/>
  <text x="300" y="210" text-anchor="middle">P2</text>
  
  <rect x="350" y="170" width="100" height="70" rx="5" class="processor"/>
  <rect x="360" y="190" width="80" height="30" class="text-bg"/>
  <text x="400" y="210" text-anchor="middle">P3</text>
  
  <!-- Broadcast messaging arrows -->
  <path d="M150 240 L150 350" class="arrow-broadcast"/>
  <path d="M300 240 L300 350" class="arrow-broadcast"/>
  <path d="M400 240 L400 350" class="arrow-broadcast"/>
  <path d="M275 400 L275 450" class="arrow-broadcast"/>
  
  <!-- Broadcast message label -->
  <rect x="50" y="280" width="200" height="30" class="text-bg"/>
  <text x="150" y="300" text-anchor="middle" class="con">Broadcast Messages</text>
  
  <!-- Snooping Pros & Cons -->
  <rect x="100" y="540" width="350" height="100" rx="5" class="pros-cons"/>
  <rect x="110" y="550" width="330" height="30" class="text-bg"/>
  <text x="275" y="570" text-anchor="middle" class="highlight">Snooping Protocol: Pros & Cons</text>
  
  <rect x="120" y="580" width="150" height="25" class="text-bg"/>
  <text x="130" y="598" class="pro">✓ Simple implementation</text>
  <rect x="120" y="605" width="220" height="25" class="text-bg"/>
  <text x="130" y="623" class="pro">✓ Low latency for small systems</text>
  
  <rect x="290" y="580" width="150" height="25" class="text-bg"/>
  <text x="300" y="598" class="con">✗ Limited scalability</text>
  <rect x="290" y="605" width="150" height="25" class="text-bg"/>
  <text x="300" y="623" class="con">✗ Bus becomes bottleneck</text>
  
  <!-- Right Section - Directory Protocol -->
  <rect x="600" y="100" width="450" height="560" class="section-bg"/>
  <rect x="700" y="115" width="250" height="35" class="text-bg"/>
  <text x="825" y="140" class="section-title">Directory-Based Protocol</text>
  
  <!-- Network Architecture for Directory -->
  <rect x="650" y="300" width="350" height="150" rx="5" class="network"/>
  <rect x="750" y="360" width="150" height="30" class="text-bg"/>
  <text x="825" y="380" text-anchor="middle" class="highlight">Network Interconnect</text>
  
  <!-- Directory for Directory-based protocol -->
  <rect x="775" y="470" width="100" height="120" rx="5" class="directory"/>
  <rect x="785" y="480" width="80" height="30" class="text-bg"/>
  <text x="825" y="500" text-anchor="middle">Directory</text>
  <rect x="785" y="510" width="80" height="70" class="text-bg"/>
  <text x="825" y="527" text-anchor="middle" font-size="12">Tracks which</text>
  <text x="825" y="547" text-anchor="middle" font-size="12">processors have</text>
  <text x="825" y="567" text-anchor="middle" font-size="12">each cache line</text>
  
  <!-- Memory for Directory -->
  <rect x="650" y="470" width="100" height="70" rx="5" class="memory"/>
  <rect x="660" y="480" width="80" height="30" class="text-bg"/>
  <text x="700" y="500" text-anchor="middle">Memory</text>
  <rect x="675" y="510" width="50" height="20" class="text-bg"/>
  <text x="700" y="525" text-anchor="middle">X = 0</text>
  
  <!-- Processors for Directory -->
  <rect x="650" y="170" width="80" height="70" rx="5" class="processor"/>
  <rect x="660" y="190" width="60" height="30" class="text-bg"/>
  <text x="690" y="210" text-anchor="middle">P1</text>
  
  <rect x="750" y="170" width="80" height="70" rx="5" class="processor"/>
  <rect x="760" y="190" width="60" height="30" class="text-bg"/>
  <text x="790" y="210" text-anchor="middle">P2</text>
  
  <rect x="850" y="170" width="80" height="70" rx="5" class="processor"/>
  <rect x="860" y="190" width="60" height="30" class="text-bg"/>
  <text x="890" y="210" text-anchor="middle">P3</text>
  
  <rect x="950" y="170" width="80" height="70" rx="5" class="processor"/>
  <rect x="960" y="190" width="60" height="30" class="text-bg"/>
  <text x="990" y="210" text-anchor="middle">P4</text>
  
  <!-- Point-to-point messaging arrows -->
  <path d="M690 240 L735 300" class="arrow-point"/>
  <path d="M790 240 L790 300" class="arrow-point"/>
  <path d="M890 240 L845 300" class="arrow-point"/>
  <path d="M990 240 L900 300" class="arrow-point"/>
  
  <path d="M775 375 L700 470" class="arrow-point"/>
  <path d="M875 375 L825 470" class="arrow-point"/>
  
  <!-- Point-to-point message label -->
  <rect x="900" y="280" width="140" height="30" class="text-bg"/>
  <text x="970" y="300" text-anchor="middle" class="pro">Point-to-Point</text>
  
  <!-- Directory Pros & Cons -->
  <rect x="650" y="540" width="350" height="100" rx="5" class="pros-cons"/>
  <rect x="660" y="550" width="330" height="30" class="text-bg"/>
  <text x="825" y="570" text-anchor="middle" class="highlight">Directory Protocol: Pros & Cons</text>
  
  <rect x="670" y="580" width="200" height="25" class="text-bg"/>
  <text x="680" y="598" class="pro">✓ Excellent scalability</text>
  <rect x="670" y="605" width="200" height="25" class="text-bg"/>
  <text x="680" y="623" class="pro">✓ Selective updates</text>
  
  <rect x="840" y="580" width="150" height="25" class="text-bg"/>
  <text x="850" y="598" class="con">✗ Higher latency</text>
  <rect x="840" y="605" width="150" height="25" class="text-bg"/>
  <text x="850" y="623" class="con">✗ More complex</text>
  
  <!-- Key Differences Section -->
  <rect x="150" y="680" width="800" height="50" rx="5" class="box"/>
  <rect x="160" y="690" width="780" height="30" class="text-bg"/>
  <text x="550" y="710" text-anchor="middle" class="highlight">Key Difference: Snooping uses broadcasts (all caches check), Directory uses targeted messages (only affected caches)</text>
</svg> 