<svg xmlns="http://www.w3.org/2000/svg" viewBox="0 0 800 500">
  <!-- Background -->
  <rect width="800" height="500" fill="#f8f9fa" rx="10" ry="10"/>
  
  <!-- Title -->
  <text x="400" y="40" font-family="Arial, sans-serif" font-size="28" font-weight="bold" text-anchor="middle" fill="#333">Atomic Operations in Parallel Programming</text>
  
  <!-- Atomic Operations Shield -->
  <circle cx="400" cy="110" r="50" fill="#f0f8ff" stroke="#4682b4" stroke-width="3"/>
  <text x="400" y="120" font-family="Arial, sans-serif" font-size="18" font-weight="bold" text-anchor="middle" fill="#4682b4">Atomic</text>
  <path d="M380 145 L420 145 L430 150 L420 155 L380 155 L370 150 Z" fill="#4682b4"/>
  <text x="400" y="90" font-family="Arial, sans-serif" font-size="12" text-anchor="middle" fill="#4682b4">Hardware-supported</text>
  <text x="400" y="105" font-family="Arial, sans-serif" font-size="12" text-anchor="middle" fill="#4682b4">Indivisible Operations</text>
  
  <!-- Thread illustrations -->
  <g id="thread1">
    <rect x="100" y="180" width="150" height="60" fill="#6495ed" rx="5" ry="5"/>
    <text x="175" y="210" font-family="Arial, sans-serif" font-size="16" font-weight="bold" text-anchor="middle" fill="white">Thread 1</text>
  </g>
  
  <g id="thread2">
    <rect x="550" y="180" width="150" height="60" fill="#ff7f50" rx="5" ry="5"/>
    <text x="625" y="210" font-family="Arial, sans-serif" font-size="16" font-weight="bold" text-anchor="middle" fill="white">Thread 2</text>
  </g>
  
  <!-- Arrows pointing to memory -->
  <line x1="175" y1="240" x2="175" y2="280" stroke="#6495ed" stroke-width="3"/>
  <line x1="625" y1="240" x2="625" y2="280" stroke="#ff7f50" stroke-width="3"/>
  
  <!-- Memory representation -->
  <rect x="100" y="280" width="600" height="60" fill="#dcdcdc" stroke="#696969" stroke-width="2" rx="5" ry="5"/>
  <text x="400" y="315" font-family="Arial, sans-serif" font-size="18" font-weight="bold" text-anchor="middle" fill="#696969">Shared Memory</text>
  
  <!-- Atomic Operations Illustrations -->
  <!-- Compare-and-Swap -->
  <rect x="80" y="380" width="240" height="100" fill="#f0f0f0" stroke="#808080" stroke-width="1" rx="5" ry="5"/>
  <text x="200" y="405" font-family="Arial, sans-serif" font-size="16" font-weight="bold" text-anchor="middle" fill="#333">Compare-and-Swap (CAS)</text>
  <rect x="100" y="420" width="50" height="30" fill="#6495ed" stroke="#333" stroke-width="1"/>
  <text x="125" y="440" font-family="Arial, sans-serif" font-size="14" text-anchor="middle">10</text>
  <text x="165" y="440" font-family="Arial, sans-serif" font-size="14" text-anchor="middle">==</text>
  <rect x="180" y="420" width="50" height="30" fill="#dcdcdc" stroke="#333" stroke-width="1"/>
  <text x="205" y="440" font-family="Arial, sans-serif" font-size="14" text-anchor="middle">10</text>
  <text x="240" y="440" font-family="Arial, sans-serif" font-size="14" text-anchor="middle">→</text>
  <rect x="260" y="420" width="50" height="30" fill="#90ee90" stroke="#333" stroke-width="1"/>
  <text x="285" y="440" font-family="Arial, sans-serif" font-size="14" text-anchor="middle">20</text>
  <text x="200" y="470" font-family="Arial, sans-serif" font-size="12" text-anchor="middle" fill="#333">Update only if expected value matches</text>
  
  <!-- Fetch-and-Add -->
  <rect x="480" y="380" width="240" height="100" fill="#f0f0f0" stroke="#808080" stroke-width="1" rx="5" ry="5"/>
  <text x="600" y="405" font-family="Arial, sans-serif" font-size="16" font-weight="bold" text-anchor="middle" fill="#333">Fetch-and-Add</text>
  <rect x="500" y="420" width="50" height="30" fill="#dcdcdc" stroke="#333" stroke-width="1"/>
  <text x="525" y="440" font-family="Arial, sans-serif" font-size="14" text-anchor="middle">10</text>
  <text x="560" y="440" font-family="Arial, sans-serif" font-size="14" text-anchor="middle">+</text>
  <rect x="580" y="420" width="50" height="30" fill="#ff7f50" stroke="#333" stroke-width="1"/>
  <text x="605" y="440" font-family="Arial, sans-serif" font-size="14" text-anchor="middle">5</text>
  <text x="640" y="440" font-family="Arial, sans-serif" font-size="14" text-anchor="middle">→</text>
  <rect x="660" y="420" width="50" height="30" fill="#90ee90" stroke="#333" stroke-width="1"/>
  <text x="685" y="440" font-family="Arial, sans-serif" font-size="14" text-anchor="middle">15</text>
  <text x="600" y="470" font-family="Arial, sans-serif" font-size="12" text-anchor="middle" fill="#333">Increment and return previous value</text>
  
  <!-- Middle section -->
  <rect x="333" y="380" width="134" height="100" fill="#f0f0f0" stroke="#808080" stroke-width="1" rx="5" ry="5"/>
  <text x="400" y="405" font-family="Arial, sans-serif" font-size="16" font-weight="bold" text-anchor="middle" fill="#333">Benefits</text>
  <text x="350" y="430" font-family="Arial, sans-serif" font-size="14" text-anchor="start" fill="#333">• More efficient</text>
  <text x="350" y="450" font-family="Arial, sans-serif" font-size="14" text-anchor="start" fill="#333">• No deadlocks</text>
  <text x="350" y="470" font-family="Arial, sans-serif" font-size="14" text-anchor="start" fill="#333">• Lock-free</text>
  
  <!-- "X" over lock symbol to show lock-free -->
  <circle cx="400" cy="150" r="15" fill="none" stroke="#ff4500" stroke-width="2"/>
  <line x1="385" y1="135" x2="415" y2="165" stroke="#ff4500" stroke-width="2"/>
  <line x1="385" y1="165" x2="415" y2="135" stroke="#ff4500" stroke-width="2"/>
  <text x="400" y="180" font-family="Arial, sans-serif" font-size="12" text-anchor="middle" fill="#ff4500">No Locks</text>
  
  <!-- Block arrows indicating atomic operation process -->
  <path d="M250 210 L350 210 L350 160 L400 160 L450 160 L450 210 L550 210" fill="none" stroke="#4682b4" stroke-width="2" stroke-dasharray="5,3"/>
  <text x="400" y="205" font-family="Arial, sans-serif" font-size="12" text-anchor="middle" fill="#4682b4">Protected Atomic Access</text>
  
  <!-- Prevention of interference -->
  <text x="300" y="240" font-family="Arial, sans-serif" font-size="14" font-weight="bold" text-anchor="middle" fill="#ff4500">No Interference</text>
  <line x1="320" y1="250" x2="480" y2="250" stroke="#ff4500" stroke-width="2"/>
  <line x1="320" y1="250" x2="340" y2="240" stroke="#ff4500" stroke-width="2"/>
  <line x1="320" y1="250" x2="340" y2="260" stroke="#ff4500" stroke-width="2"/>
  <line x1="480" y1="250" x2="460" y2="240" stroke="#ff4500" stroke-width="2"/>
  <line x1="480" y1="250" x2="460" y2="260" stroke="#ff4500" stroke-width="2"/>
</svg>
