<?xml version="1.0" encoding="UTF-8" standalone="no"?>
<svg width="800" height="600" viewBox="0 0 800 600" xmlns="http://www.w3.org/2000/svg">
  <style>
    text {
      font-family: Arial, sans-serif;
      font-size: 14px;
    }
    .title {
      font-size: 20px;
      font-weight: bold;
    }
    .subtitle {
      font-size: 16px;
      font-weight: bold;
    }
    .step-title {
      font-size: 15px;
      font-weight: bold;
    }
    .step-desc {
      font-size: 12px;
    }
    .node {
      fill: #f9f9f9;
      stroke: #666;
      stroke-width: 2px;
    }
    .arrow {
      stroke: #666;
      stroke-width: 2px;
      fill: none;
      marker-end: url(#arrowhead);
    }
    .dashed-arrow {
      stroke: #666;
      stroke-width: 2px;
      stroke-dasharray: 5, 5;
      fill: none;
      marker-end: url(#arrowhead);
    }
    .node-text {
      text-anchor: middle;
      font-size: 12px;
    }
    .phase {
      fill: #e1ebf2;
      stroke: #004065;
      stroke-width: 2px;
      rx: 10;
      ry: 10;
    }
    .phase-title {
      fill: #004065;
      font-size: 14px;
      font-weight: bold;
    }
  </style>
  
  <defs>
    <marker id="arrowhead" markerWidth="10" markerHeight="7" refX="9" refY="3.5" orient="auto">
      <polygon points="0 0, 10 3.5, 0 7" fill="#666"/>
    </marker>
  </defs>
  
  <!-- Title -->
  <text x="400" y="30" class="title" text-anchor="middle">Case Study: Parallel Image Processing Pipeline</text>

  <!-- Original Problem Diagram -->
  <text x="400" y="60" class="subtitle" text-anchor="middle">Large Image Dataset Problem</text>
  
  <rect x="150" y="80" width="500" height="80" rx="5" ry="5" fill="#f9f9f9" stroke="#333" stroke-width="1"/>
  
  <!-- Problem description in the box -->
  <text x="400" y="100" text-anchor="middle">100,000+ high-resolution images</text>
  <text x="400" y="120" text-anchor="middle">Multiple processing operations per image</text>
  <text x="400" y="140" text-anchor="middle">Multi-core and multi-node environment</text>
  
  <!-- Four-phase parallel approach -->
  <text x="150" y="180" class="step-title" text-anchor="start">Step 1: Decomposition</text>
  <rect x="100" y="190" width="600" height="90" class="phase"/>
  
  <!-- Data Decomposition -->
  <rect x="120" y="205" width="170" height="60" class="node" rx="5" ry="5"/>
  <text x="205" y="230" class="node-text" font-weight="bold">Data Decomposition</text>
  <text x="205" y="250" class="node-text">Split image dataset</text>
  
  <!-- Task Decomposition -->
  <rect x="315" y="205" width="170" height="60" class="node" rx="5" ry="5"/>
  <text x="400" y="230" class="node-text" font-weight="bold">Task Decomposition</text>
  <text x="400" y="250" class="node-text">Pipeline stages</text>
  
  <!-- Hybrid Approach -->
  <rect x="510" y="205" width="170" height="60" class="node" rx="5" ry="5"/>
  <text x="595" y="230" class="node-text" font-weight="bold">Hybrid Approach</text>
  <text x="595" y="250" class="node-text">Over-decomposition</text>
  
  <!-- Step 2: Assignment -->
  <text x="150" y="300" class="step-title" text-anchor="start">Step 2: Assignment</text>
  <rect x="100" y="310" width="600" height="90" class="phase"/>
  
  <!-- MPI Assignment -->
  <rect x="120" y="325" width="170" height="60" class="node" rx="5" ry="5"/>
  <text x="205" y="350" class="node-text" font-weight="bold">Between Nodes (MPI)</text>
  <text x="205" y="370" class="node-text">Block + dynamic stealing</text>
  
  <!-- Thread Assignment -->
  <rect x="315" y="325" width="170" height="60" class="node" rx="5" ry="5"/>
  <text x="400" y="350" class="node-text" font-weight="bold">Within Nodes (OpenMP)</text>
  <text x="400" y="370" class="node-text">Thread pool</text>
  
  <!-- Strategy -->
  <rect x="510" y="325" width="170" height="60" class="node" rx="5" ry="5"/>
  <text x="595" y="350" class="node-text" font-weight="bold">Assignment Strategy</text>
  <text x="595" y="370" class="node-text">Task prioritization</text>
  
  <!-- Step 3: Orchestration -->
  <text x="150" y="420" class="step-title" text-anchor="start">Step 3: Orchestration</text>
  <rect x="100" y="430" width="600" height="90" class="phase"/>
  
  <!-- Synchronization -->
  <rect x="120" y="445" width="170" height="60" class="node" rx="5" ry="5"/>
  <text x="205" y="470" class="node-text" font-weight="bold">Synchronization</text>
  <text x="205" y="490" class="node-text">Minimal global barriers</text>
  
  <!-- Communication -->
  <rect x="315" y="445" width="170" height="60" class="node" rx="5" ry="5"/>
  <text x="400" y="470" class="node-text" font-weight="bold">Communication</text>
  <text x="400" y="490" class="node-text">Bulk transfers + async I/O</text>
  
  <!-- Resources -->
  <rect x="510" y="445" width="170" height="60" class="node" rx="5" ry="5"/>
  <text x="595" y="470" class="node-text" font-weight="bold">Resource Management</text>
  <text x="595" y="490" class="node-text">Memory pools + prefetching</text>
  
  <!-- Step 4: Optimization -->
  <text x="150" y="540" class="step-title" text-anchor="start">Step 4: Optimization and Results</text>
  <rect x="100" y="550" width="600" height="35" class="phase"/>
  <text x="400" y="572" class="node-text" font-weight="bold">85% efficiency on 128 cores | 40x speedup</text>
  
  <!-- Architecture Diagram -->
  <rect x="700" y="190" width="90" height="390" fill="#e1ebf2" stroke="#004065" stroke-width="2"/>
  <text x="745" y="210" text-anchor="middle" font-size="12" font-weight="bold">Architecture</text>
  
  <!-- Cluster -->
  <rect x="710" y="225" width="70" height="50" fill="#f9f9f9" stroke="#333"/>
  <text x="745" y="252" text-anchor="middle" font-size="10">Cluster</text>
  
  <!-- Node -->
  <rect x="715" y="290" width="60" height="40" fill="#f9f9f9" stroke="#333"/>
  <text x="745" y="312" text-anchor="middle" font-size="10">Node 1</text>
  
  <!-- Multiple nodes -->
  <rect x="715" y="340" width="60" height="40" fill="#f9f9f9" stroke="#333"/>
  <text x="745" y="362" text-anchor="middle" font-size="10">Node 2</text>
  
  <rect x="715" y="390" width="60" height="40" fill="#f9f9f9" stroke="#333"/>
  <text x="745" y="412" text-anchor="middle" font-size="10">Node 3</text>
  
  <text x="745" y="445" text-anchor="middle" font-size="16">⋮</text>
  
  <rect x="715" y="470" width="60" height="40" fill="#f9f9f9" stroke="#333"/>
  <text x="745" y="492" text-anchor="middle" font-size="10">Node N</text>
  
  <line x1="745" y1="275" x2="745" y2="290" stroke="#333" stroke-width="1" marker-end="url(#arrowhead)"/>
  
  <!-- Parallel Pipeline Diagram -->
  <rect x="50" y="80" width="35" height="505" fill="#e1ebf2" stroke="#004065" stroke-width="2"/>
  <text x="67" y="100" transform="rotate(-90, 67, 100)" text-anchor="start" font-size="12" font-weight="bold">Pipeline Stages</text>
  
  <!-- Stage boxes -->
  <rect x="60" y="190" width="25" height="60" fill="#f9f9f9" stroke="#333"/>
  <text x="72" y="225" transform="rotate(-90, 72, 225)" text-anchor="middle" font-size="10">Load</text>
  
  <rect x="60" y="270" width="25" height="60" fill="#f9f9f9" stroke="#333"/>
  <text x="72" y="305" transform="rotate(-90, 72, 305)" text-anchor="middle" font-size="10">Filter</text>
  
  <rect x="60" y="350" width="25" height="60" fill="#f9f9f9" stroke="#333"/>
  <text x="72" y="385" transform="rotate(-90, 72, 385)" text-anchor="middle" font-size="10">Analyze</text>
  
  <rect x="60" y="430" width="25" height="60" fill="#f9f9f9" stroke="#333"/>
  <text x="72" y="465" transform="rotate(-90, 72, 465)" text-anchor="middle" font-size="10">Store</text>
  
  <rect x="60" y="510" width="25" height="60" fill="#f9f9f9" stroke="#333"/>
  <text x="72" y="545" transform="rotate(-90, 72, 545)" text-anchor="middle" font-size="10">Report</text>
  
  <!-- Flow lines -->
  <line x1="85" y1="220" x2="100" y2="220" stroke="#333" stroke-width="1" marker-end="url(#arrowhead)"/>
  <line x1="85" y1="300" x2="100" y2="300" stroke="#333" stroke-width="1" marker-end="url(#arrowhead)"/>
  <line x1="85" y1="380" x2="100" y2="380" stroke="#333" stroke-width="1" marker-end="url(#arrowhead)"/>
  <line x1="85" y1="460" x2="100" y2="460" stroke="#333" stroke-width="1" marker-end="url(#arrowhead)"/>
  <line x1="85" y1="540" x2="100" y2="540" stroke="#333" stroke-width="1" marker-end="url(#arrowhead)"/>
</svg> 