<?xml version="1.0" encoding="UTF-8" standalone="no"?>
<svg width="900" height="600" xmlns="http://www.w3.org/2000/svg">
  <style>
    text {
      font-family: Arial, sans-serif;
      font-size: 14px;
    }
    .title {
      font-size: 18px;
      font-weight: bold;
    }
    .subtitle {
      font-size: 16px;
      font-weight: bold;
    }
    .proc {
      fill: #4472C4;
      stroke: #2F528F;
      stroke-width: 2;
    }
    .task {
      stroke-width: 1;
      stroke: #404040;
    }
    .small-task {
      fill: #70AD47;
    }
    .medium-task {
      fill: #FFC000;
    }
    .large-task {
      fill: #ED7D31;
    }
    .arrow {
      stroke: #404040;
      stroke-width: 2;
      fill: none;
      marker-end: url(#arrowhead);
    }
    .strategy-box {
      fill: #F2F2F2;
      stroke: #BFBFBF;
      stroke-width: 1;
      rx: 5;
      ry: 5;
    }
  </style>

  <defs>
    <marker id="arrowhead" markerWidth="10" markerHeight="7" refX="9" refY="3.5" orient="auto">
      <polygon points="0 0, 10 3.5, 0 7" fill="#404040" />
    </marker>
  </defs>

  <!-- Title -->
  <text x="450" y="30" text-anchor="middle" class="title">Load Balancing Strategies in Parallel Programming</text>

  <!-- Static Load Balancing -->
  <rect x="50" y="60" width="375" height="240" class="strategy-box" />
  <text x="237.5" y="85" text-anchor="middle" class="subtitle">Static Load Balancing</text>
  <text x="237.5" y="110" text-anchor="middle">Tasks are assigned to processors before execution</text>
  <text x="237.5" y="130" text-anchor="middle">Simple but may lead to imbalance if tasks vary in size</text>
  
  <!-- Equal chunks distribution -->
  <text x="135" y="160" text-anchor="middle" class="subtitle">Block Distribution</text>
  <rect x="60" y="170" width="40" height="100" class="proc" />
  <text x="80" y="285" text-anchor="middle">P0</text>
  <rect x="110" y="170" width="40" height="100" class="proc" />
  <text x="130" y="285" text-anchor="middle">P1</text>
  <rect x="160" y="170" width="40" height="100" class="proc" />
  <text x="180" y="285" text-anchor="middle">P2</text>
  
  <rect x="60" y="170" width="40" height="25" class="task small-task" />
  <rect x="60" y="195" width="40" height="25" class="task medium-task" />
  <rect x="60" y="220" width="40" height="25" class="task small-task" />
  <rect x="60" y="245" width="40" height="25" class="task medium-task" />
  
  <rect x="110" y="170" width="40" height="25" class="task medium-task" />
  <rect x="110" y="195" width="40" height="25" class="task medium-task" />
  <rect x="110" y="220" width="40" height="25" class="task small-task" />
  <rect x="110" y="245" width="40" height="25" class="task medium-task" />
  
  <rect x="160" y="170" width="40" height="25" class="task small-task" />
  <rect x="160" y="195" width="40" height="25" class="task medium-task" />
  <rect x="160" y="220" width="40" height="25" class="task medium-task" />
  <rect x="160" y="245" width="40" height="25" class="task small-task" />
  
  <!-- Cyclic distribution -->
  <text x="340" y="160" text-anchor="middle" class="subtitle">Cyclic Distribution</text>
  <rect x="265" y="170" width="40" height="100" class="proc" />
  <text x="285" y="285" text-anchor="middle">P0</text>
  <rect x="315" y="170" width="40" height="100" class="proc" />
  <text x="335" y="285" text-anchor="middle">P1</text>
  <rect x="365" y="170" width="40" height="100" class="proc" />
  <text x="385" y="285" text-anchor="middle">P2</text>
  
  <rect x="265" y="170" width="40" height="20" class="task small-task" />
  <rect x="265" y="190" width="40" height="20" class="task large-task" />
  <rect x="265" y="210" width="40" height="20" class="task small-task" />
  <rect x="265" y="230" width="40" height="20" class="task medium-task" />
  <rect x="265" y="250" width="40" height="20" class="task small-task" />
  
  <rect x="315" y="170" width="40" height="20" class="task medium-task" />
  <rect x="315" y="190" width="40" height="20" class="task small-task" />
  <rect x="315" y="210" width="40" height="20" class="task medium-task" />
  <rect x="315" y="230" width="40" height="20" class="task small-task" />
  <rect x="315" y="250" width="40" height="20" class="task medium-task" />
  
  <rect x="365" y="170" width="40" height="20" class="task small-task" />
  <rect x="365" y="190" width="40" height="20" class="task medium-task" />
  <rect x="365" y="210" width="40" height="20" class="task large-task" />
  <rect x="365" y="230" width="40" height="20" class="task small-task" />
  <rect x="365" y="250" width="40" height="20" class="task small-task" />

  <!-- Dynamic Load Balancing -->
  <rect x="475" y="60" width="375" height="240" class="strategy-box" />
  <text x="662.5" y="85" text-anchor="middle" class="subtitle">Dynamic Load Balancing</text>
  <text x="662.5" y="110" text-anchor="middle">Tasks are assigned during execution</text>
  <text x="662.5" y="130" text-anchor="middle">Better for handling varying task sizes but with overhead</text>
  
  <!-- Work Stealing -->
  <text x="562.5" y="160" text-anchor="middle" class="subtitle">Work Stealing</text>
  <rect x="485" y="170" width="40" height="100" class="proc" />
  <text x="505" y="285" text-anchor="middle">P0</text>
  <rect x="535" y="170" width="40" height="100" class="proc" />
  <text x="555" y="285" text-anchor="middle">P1</text>
  <rect x="585" y="170" width="40" height="100" class="proc" />
  <text x="605" y="285" text-anchor="middle">P2</text>
  
  <rect x="485" y="170" width="40" height="20" class="task small-task" />
  <rect x="485" y="190" width="40" height="20" class="task small-task" />
  
  <rect x="535" y="170" width="40" height="20" class="task small-task" />
  <rect x="535" y="190" width="40" height="20" class="task medium-task" />
  <rect x="535" y="210" width="40" height="20" class="task medium-task" />
  <rect x="535" y="230" width="40" height="20" class="task large-task" />
  
  <rect x="585" y="170" width="40" height="20" class="task small-task" />
  
  <path d="M 585 200 C 565 210, 545 210, 535 230" class="arrow" />
  <text x="550" y="203" text-anchor="middle" font-size="12">Steal</text>
  
  <!-- Centralized Task Queue -->
  <text x="767.5" y="160" text-anchor="middle" class="subtitle">Centralized Task Queue</text>
  <rect x="690" y="170" width="40" height="100" class="proc" />
  <text x="710" y="285" text-anchor="middle">P0</text>
  <rect x="740" y="170" width="40" height="100" class="proc" />
  <text x="760" y="285" text-anchor="middle">P1</text>
  <rect x="790" y="170" width="40" height="100" class="proc" />
  <text x="810" y="285" text-anchor="middle">P2</text>
  
  <rect x="715" y="185" width="90" height="70" rx="5" ry="5" fill="#D9E1F2" stroke="#2F528F" />
  <text x="760" y="180" text-anchor="middle" font-size="12">Task Queue</text>
  
  <rect x="730" y="195" width="20" height="15" class="task small-task" />
  <rect x="755" y="195" width="20" height="15" class="task medium-task" />
  <rect x="780" y="195" width="20" height="15" class="task large-task" />
  <rect x="730" y="215" width="20" height="15" class="task medium-task" />
  <rect x="755" y="215" width="20" height="15" class="task small-task" />
  <rect x="730" y="235" width="20" height="15" class="task small-task" />
  
  <path d="M 700 170 C 700 150, 740 150, 740 175" class="arrow" />
  <path d="M 700 270 C 700 290, 760 290, 760 255" class="arrow" />
  <path d="M 810 170 C 810 150, 780 150, 780 175" class="arrow" />
  <path d="M 810 270 C 810 290, 770 290, 770 255" class="arrow" />
  
  <!-- Hybrid and Hierarchical approaches -->
  <rect x="50" y="340" width="800" height="220" class="strategy-box" />
  <text x="450" y="365" text-anchor="middle" class="subtitle">Hybrid and Hierarchical Load Balancing</text>
  <text x="450" y="390" text-anchor="middle">Combines different strategies at different levels of parallelism</text>
  <text x="450" y="410" text-anchor="middle">Optimized for multi-level parallel architectures (nodes, cores, threads)</text>

  <!-- Hierarchical illustration -->
  <rect x="100" y="430" width="120" height="100" rx="5" ry="5" fill="#D9E1F2" stroke="#2F528F" />
  <text x="160" y="450" text-anchor="middle" font-size="14" font-weight="bold">Node 0</text>
  <rect x="110" y="460" width="40" height="30" class="proc" opacity="0.8" />
  <rect x="170" y="460" width="40" height="30" class="proc" opacity="0.8" />
  <rect x="110" y="500" width="40" height="20" class="task small-task" />
  <rect x="170" y="500" width="40" height="20" class="task medium-task" />
  
  <rect x="270" y="430" width="120" height="100" rx="5" ry="5" fill="#D9E1F2" stroke="#2F528F" />
  <text x="330" y="450" text-anchor="middle" font-size="14" font-weight="bold">Node 1</text>
  <rect x="280" y="460" width="40" height="30" class="proc" opacity="0.8" />
  <rect x="340" y="460" width="40" height="30" class="proc" opacity="0.8" />
  <rect x="280" y="500" width="40" height="20" class="task medium-task" />
  <rect x="340" y="500" width="40" height="20" class="task large-task" />
  
  <text x="200" y="550" text-anchor="middle" font-size="12">Static distribution between nodes</text>
  <text x="650" y="550" text-anchor="middle" font-size="12">Dynamic work stealing within nodes</text>
  
  <rect x="440" y="430" width="120" height="100" rx="5" ry="5" fill="#D9E1F2" stroke="#2F528F" />
  <text x="500" y="450" text-anchor="middle" font-size="14" font-weight="bold">Node 2</text>
  <rect x="450" y="460" width="40" height="30" class="proc" opacity="0.8" />
  <rect x="510" y="460" width="40" height="30" class="proc" opacity="0.8" />
  <rect x="450" y="500" width="40" height="20" class="task small-task" />
  <rect x="510" y="500" width="40" height="20" class="task small-task" />
  
  <rect x="610" y="430" width="120" height="100" rx="5" ry="5" fill="#D9E1F2" stroke="#2F528F" />
  <text x="670" y="450" text-anchor="middle" font-size="14" font-weight="bold">Node 3</text>
  <rect x="620" y="460" width="40" height="30" class="proc" opacity="0.8" />
  <rect x="680" y="460" width="40" height="30" class="proc" opacity="0.8" />
  <rect x="620" y="500" width="40" height="20" class="task large-task" />
  <rect x="680" y="500" width="40" height="20" class="task medium-task" />
  
  <path d="M 680 480 C 660 490, 640 490, 630 500" class="arrow" />
  <path d="M 510 480 C 490 490, 470 490, 460 500" class="arrow" />
  
  <!-- Global distribution arrows -->
  <path d="M 160 400 C 160 420, 160 420, 160 430" stroke="#2F528F" stroke-width="2" stroke-dasharray="5,3" fill="none" marker-end="url(#arrowhead)" />
  <path d="M 330 400 C 330 420, 330 420, 330 430" stroke="#2F528F" stroke-width="2" stroke-dasharray="5,3" fill="none" marker-end="url(#arrowhead)" />
  <path d="M 500 400 C 500 420, 500 420, 500 430" stroke="#2F528F" stroke-width="2" stroke-dasharray="5,3" fill="none" marker-end="url(#arrowhead)" />
  <path d="M 670 400 C 670 420, 670 420, 670 430" stroke="#2F528F" stroke-width="2" stroke-dasharray="5,3" fill="none" marker-end="url(#arrowhead)" />

  <!-- Legend -->
  <rect x="360" y="310" width="180" height="20" fill="none" />
  <rect x="365" y="310" width="15" height="15" class="task small-task" />
  <rect x="435" y="310" width="15" height="15" class="task medium-task" />
  <rect x="505" y="310" width="15" height="15" class="task large-task" />
  <text x="385" y="322" font-size="12">Small Task</text>
  <text x="455" y="322" font-size="12">Medium Task</text>
  <text x="525" y="322" font-size="12">Large Task</text>
</svg> 