<?xml version="1.0" encoding="UTF-8" standalone="no"?>
<svg width="800" height="500" xmlns="http://www.w3.org/2000/svg">
  <!-- Title -->
  <text x="400" y="30" text-anchor="middle" font-family="Arial" font-size="20" font-weight="bold">Processor Performance Trends</text>
  
  <!-- Axes -->
  <line x1="100" y1="400" x2="700" y2="400" stroke="black" stroke-width="2"/>
  <line x1="100" y1="400" x2="100" y2="100" stroke="black" stroke-width="2"/>
  
  <!-- X-axis labels -->
  <text x="400" y="440" text-anchor="middle" font-family="Arial" font-size="16" font-weight="bold">Year</text>
  <text x="100" y="425" text-anchor="middle" font-family="Arial" font-size="12">1970</text>
  <text x="200" y="425" text-anchor="middle" font-family="Arial" font-size="12">1980</text>
  <text x="300" y="425" text-anchor="middle" font-family="Arial" font-size="12">1990</text>
  <text x="400" y="425" text-anchor="middle" font-family="Arial" font-size="12">2000</text>
  <text x="500" y="425" text-anchor="middle" font-family="Arial" font-size="12">2010</text>
  <text x="600" y="425" text-anchor="middle" font-family="Arial" font-size="12">2020</text>
  <text x="700" y="425" text-anchor="middle" font-family="Arial" font-size="12">2030</text>
  
  <!-- Y-axis labels -->
  <text x="50" y="250" text-anchor="middle" font-family="Arial" font-size="16" font-weight="bold" transform="rotate(-90, 50, 250)">Performance</text>
  <text x="90" y="400" text-anchor="end" font-family="Arial" font-size="12">1x</text>
  <text x="90" y="350" text-anchor="end" font-family="Arial" font-size="12">10x</text>
  <text x="90" y="300" text-anchor="end" font-family="Arial" font-size="12">100x</text>
  <text x="90" y="250" text-anchor="end" font-family="Arial" font-size="12">1,000x</text>
  <text x="90" y="200" text-anchor="end" font-family="Arial" font-size="12">10,000x</text>
  <text x="90" y="150" text-anchor="end" font-family="Arial" font-size="12">100,000x</text>
  <text x="90" y="100" text-anchor="end" font-family="Arial" font-size="12">1,000,000x</text>
  
  <!-- Moore's Law Trend -->
  <path d="M 100,390 L 150,380 L 200,360 L 250,330 L 300,290 L 350,240 L 400,190 L 425,165" stroke="#004065" stroke-width="3" fill="none"/>
  <path d="M 425,165 L 450,155 L 500,145 L 550,135 L 600,125 L 650,115 L 700,105" stroke="#004065" stroke-width="3" fill="none" stroke-dasharray="5,5"/>
  <text x="200" y="345" font-family="Arial" font-size="12" fill="#004065" font-weight="bold">Transistor Count</text>
  <text x="200" y="360" font-family="Arial" font-size="12" fill="#004065">(Moore's Law)</text>
  
  <!-- Single-core Performance -->
  <path d="M 100,390 L 150,380 L 200,360 L 250,335 L 300,300 L 350,260 L 400,230 L 425,225" stroke="#FF4500" stroke-width="3" fill="none"/>
  <path d="M 425,225 L 450,223 L 500,220 L 550,218 L 600,216 L 650,215 L 700,214" stroke="#FF4500" stroke-width="3" fill="none"/>
  <text x="330" y="285" font-family="Arial" font-size="12" fill="#FF4500" font-weight="bold">Single-core Performance</text>
  
  <!-- Multi-core Performance line (theoretical) -->
  <path d="M 425,225 L 450,210 L 500,180 L 550,150 L 600,120 L 650,105 L 700,90" stroke="#008000" stroke-width="3" fill="none" stroke-dasharray="5,5"/>
  <text x="550" y="130" font-family="Arial" font-size="12" fill="#008000" font-weight="bold">Multi-core Theoretical</text>
  <text x="550" y="145" font-family="Arial" font-size="12" fill="#008000">Performance</text>
  
  <!-- Real Multi-core Performance -->
  <path d="M 425,225 L 450,215 L 500,195 L 550,175 L 600,158 L 650,145 L 700,135" stroke="#008000" stroke-width="3" fill="none"/>
  <text x="600" y="175" font-family="Arial" font-size="12" fill="#008000" font-weight="bold">Actual Multi-core</text>
  <text x="600" y="190" font-family="Arial" font-size="12" fill="#008000">Performance</text>
  
  <!-- Power Wall Annotation -->
  <line x1="425" y1="100" x2="425" y2="400" stroke="#999" stroke-width="1" stroke-dasharray="5,5"/>
  <text x="425" y="80" text-anchor="middle" font-family="Arial" font-size="14" fill="#FF0000" font-weight="bold">Power Wall</text>
  
  <!-- Processor Count Annotation -->
  <rect x="550" y="360" width="20" height="10" fill="#008000"/>
  <rect x="550" y="375" width="40" height="10" fill="#008000"/>
  <text x="620" y="370" font-family="Arial" font-size="12">2 cores</text>
  <text x="620" y="385" font-family="Arial" font-size="12">4 cores</text>
  
  <!-- Legend -->
  <rect x="100" y="450" width="600" height="40" fill="#f8f8f8" rx="5" ry="5" stroke="#ccc"/>
  <line x1="120" y1="470" x2="160" y2="470" stroke="#004065" stroke-width="3"/>
  <text x="170" y="475" font-family="Arial" font-size="12">Transistor Count (Moore's Law)</text>
  
  <line x1="360" y1="470" x2="400" y2="470" stroke="#FF4500" stroke-width="3"/>
  <text x="410" y="475" font-family="Arial" font-size="12">Single-core Performance</text>
  
  <line x1="580" y1="470" x2="620" y2="470" stroke="#008000" stroke-width="3"/>
  <text x="630" y="475" font-family="Arial" font-size="12">Multi-core Performance</text>
</svg> 