<?xml version="1.0" encoding="UTF-8" standalone="no"?>
<svg width="900" height="600" xmlns="http://www.w3.org/2000/svg">
  <style>
    text {
      font-family: Arial, sans-serif;
      font-size: 14px;
    }
    .title {
      font-size: 20px;
      font-weight: bold;
      text-anchor: middle;
    }
    .subtitle {
      font-size: 18px;
      font-weight: bold;
      text-anchor: middle;
    }
    .section-label {
      font-size: 16px;
      font-weight: bold;
      text-anchor: middle;
    }
    .header {
      font-size: 14px;
      font-weight: bold;
      text-anchor: middle;
    }
    .model-box {
      fill: #F2F2F2;
      stroke: #D9D9D9;
      stroke-width: 2;
      rx: 10;
      ry: 10;
    }
    .model-header {
      fill: #4472C4;
      stroke: #2F528F;
      stroke-width: 2;
    }
    .metric-row:nth-child(odd) {
      fill: #E6F0FF;
    }
    .metric-row:nth-child(even) {
      fill: #D4E4FF;
    }
    .distributed {
      fill: #ED7D31;
      stroke: #C55A11;
    }
    .hybrid {
      fill: #70AD47;
      stroke: #507E32;
    }
    .program-box {
      fill: #404040;
      stroke: #262626;
      stroke-width: 1;
    }
    .memory-box {
      fill: #A5A5A5;
      stroke: #7F7F7F;
      stroke-width: 1;
    }
    .cpu-circle {
      fill: #4472C4;
      stroke: #2F528F;
      stroke-width: 1;
    }
    .network-line {
      stroke: #C55A11;
      stroke-width: 2;
      stroke-dasharray: 4 2;
    }
    .arrow {
      stroke: #262626;
      stroke-width: 1.5;
      fill: none;
      marker-end: url(#arrowhead);
    }
  </style>

  <defs>
    <marker id="arrowhead" markerWidth="10" markerHeight="7" refX="9" refY="3.5" orient="auto">
      <polygon points="0 0, 10 3.5, 0 7" fill="#262626" />
    </marker>
  </defs>

  <!-- Title -->
  <text x="450" y="30" class="title">Parallel Programming Models Comparison</text>

  <!-- Comparison Table -->
  <rect x="50" y="50" width="800" height="300" rx="10" ry="10" fill="#F9F9F9" stroke="#D9D9D9" stroke-width="2" />

  <!-- Table Headers -->
  <rect x="50" y="50" width="200" height="40" fill="#4472C4" stroke="#2F528F" stroke-width="2" rx="10" ry="10" />
  <rect x="250" y="50" width="200" height="40" fill="#ED7D31" stroke="#C55A11" stroke-width="2" rx="10" ry="10" />
  <rect x="450" y="50" width="200" height="40" fill="#70AD47" stroke="#507E32" stroke-width="2" rx="10" ry="10" />
  <rect x="650" y="50" width="200" height="40" fill="#FFC000" stroke="#C7953F" stroke-width="2" rx="10" ry="10" />
  
  <text x="150" y="75" fill="white" class="header">Shared Memory</text>
  <text x="350" y="75" fill="white" class="header">Distributed Memory</text>
  <text x="550" y="75" fill="white" class="header">Hybrid</text>
  <text x="750" y="75" fill="white" class="header">GPGPU/Accelerator</text>

  <!-- Row Headers -->
  <rect x="50" y="90" width="200" height="35" fill="#E6E6E6" stroke="#D9D9D9" stroke-width="1" />
  <rect x="50" y="125" width="200" height="35" fill="#F2F2F2" stroke="#D9D9D9" stroke-width="1" />
  <rect x="50" y="160" width="200" height="35" fill="#E6E6E6" stroke="#D9D9D9" stroke-width="1" />
  <rect x="50" y="195" width="200" height="35" fill="#F2F2F2" stroke="#D9D9D9" stroke-width="1" />
  <rect x="50" y="230" width="200" height="35" fill="#E6E6E6" stroke="#D9D9D9" stroke-width="1" />
  <rect x="50" y="265" width="200" height="35" fill="#F2F2F2" stroke="#D9D9D9" stroke-width="1" />
  <rect x="50" y="300" width="200" height="50" fill="#E6E6E6" stroke="#D9D9D9" stroke-width="1" />

  <text x="60" y="112" text-anchor="start" font-weight="bold">Programming Interface</text>
  <text x="60" y="147" text-anchor="start" font-weight="bold">Memory Model</text>
  <text x="60" y="182" text-anchor="start" font-weight="bold">Communication</text>
  <text x="60" y="217" text-anchor="start" font-weight="bold">Scalability</text>
  <text x="60" y="252" text-anchor="start" font-weight="bold">Complexity</text>
  <text x="60" y="287" text-anchor="start" font-weight="bold">Common Implementations</text>
  <text x="60" y="322" text-anchor="start" font-weight="bold">Best Use Cases</text>
  <text x="60" y="337" text-anchor="start" font-weight="bold"></text>

  <!-- Shared Memory Column -->
  <rect x="250" y="90" width="200" height="35" fill="#E6F0FF" stroke="#D9D9D9" stroke-width="1" />
  <rect x="250" y="125" width="200" height="35" fill="#D4E4FF" stroke="#D9D9D9" stroke-width="1" />
  <rect x="250" y="160" width="200" height="35" fill="#E6F0FF" stroke="#D9D9D9" stroke-width="1" />
  <rect x="250" y="195" width="200" height="35" fill="#D4E4FF" stroke="#D9D9D9" stroke-width="1" />
  <rect x="250" y="230" width="200" height="35" fill="#E6F0FF" stroke="#D9D9D9" stroke-width="1" />
  <rect x="250" y="265" width="200" height="35" fill="#D4E4FF" stroke="#D9D9D9" stroke-width="1" />
  <rect x="250" y="300" width="200" height="50" fill="#E6F0FF" stroke="#D9D9D9" stroke-width="1" />

  <text x="350" y="112" text-anchor="middle">Threads, directives</text>
  <text x="350" y="147" text-anchor="middle">Global address space</text>
  <text x="350" y="182" text-anchor="middle">Implicit via shared variables</text>
  <text x="350" y="217" text-anchor="middle">Limited to single node</text>
  <text x="350" y="252" text-anchor="middle">Lower</text>
  <text x="350" y="280" text-anchor="middle">OpenMP, Pthreads,</text>
  <text x="350" y="295" text-anchor="middle">C++/Java threads</text>
  <text x="350" y="322" text-anchor="middle">Single-node systems,</text>
  <text x="350" y="337" text-anchor="middle">Multi-core processors</text>

  <!-- Distributed Memory Column -->
  <rect x="450" y="90" width="200" height="35" fill="#FCE5D6" stroke="#D9D9D9" stroke-width="1" />
  <rect x="450" y="125" width="200" height="35" fill="#F9D1B7" stroke="#D9D9D9" stroke-width="1" />
  <rect x="450" y="160" width="200" height="35" fill="#FCE5D6" stroke="#D9D9D9" stroke-width="1" />
  <rect x="450" y="195" width="200" height="35" fill="#F9D1B7" stroke="#D9D9D9" stroke-width="1" />
  <rect x="450" y="230" width="200" height="35" fill="#FCE5D6" stroke="#D9D9D9" stroke-width="1" />
  <rect x="450" y="265" width="200" height="35" fill="#F9D1B7" stroke="#D9D9D9" stroke-width="1" />
  <rect x="450" y="300" width="200" height="50" fill="#FCE5D6" stroke="#D9D9D9" stroke-width="1" />

  <text x="550" y="112" text-anchor="middle">Message passing</text>
  <text x="550" y="147" text-anchor="middle">Separate address spaces</text>
  <text x="550" y="182" text-anchor="middle">Explicit via messages</text>
  <text x="550" y="217" text-anchor="middle">Excellent, thousands of nodes</text>
  <text x="550" y="252" text-anchor="middle">Higher</text>
  <text x="550" y="287" text-anchor="middle">MPI, UPC</text>
  <text x="550" y="322" text-anchor="middle">HPC clusters, supercomputers,</text>
  <text x="550" y="337" text-anchor="middle">Large-scale applications</text>

  <!-- Hybrid Column -->
  <rect x="650" y="90" width="200" height="35" fill="#E6FFE6" stroke="#D9D9D9" stroke-width="1" />
  <rect x="650" y="125" width="200" height="35" fill="#D4FFD4" stroke="#D9D9D9" stroke-width="1" />
  <rect x="650" y="160" width="200" height="35" fill="#E6FFE6" stroke="#D9D9D9" stroke-width="1" />
  <rect x="650" y="195" width="200" height="35" fill="#D4FFD4" stroke="#D9D9D9" stroke-width="1" />
  <rect x="650" y="230" width="200" height="35" fill="#E6FFE6" stroke="#D9D9D9" stroke-width="1" />
  <rect x="650" y="265" width="200" height="35" fill="#D4FFD4" stroke="#D9D9D9" stroke-width="1" />
  <rect x="650" y="300" width="200" height="50" fill="#E6FFE6" stroke="#D9D9D9" stroke-width="1" />

  <text x="750" y="112" text-anchor="middle">Mixed (MPI + threads)</text>
  <text x="750" y="147" text-anchor="middle">Hierarchical memory</text>
  <text x="750" y="182" text-anchor="middle">Both implicit and explicit</text>
  <text x="750" y="217" text-anchor="middle">Best of both worlds</text>
  <text x="750" y="252" text-anchor="middle">Highest</text>
  <text x="750" y="280" text-anchor="middle">MPI + OpenMP,</text>
  <text x="750" y="295" text-anchor="middle">MPI + CUDA</text>
  <text x="750" y="322" text-anchor="middle">Modern HPC systems,</text>
  <text x="750" y="337" text-anchor="middle">Multi-node/multi-core clusters</text>

  <!-- GPGPU Column -->
  <rect x="850" y="90" width="200" height="35" fill="#FFF5D6" stroke="#D9D9D9" stroke-width="1" />
  <rect x="850" y="125" width="200" height="35" fill="#FFEDB7" stroke="#D9D9D9" stroke-width="1" />
  <rect x="850" y="160" width="200" height="35" fill="#FFF5D6" stroke="#D9D9D9" stroke-width="1" />
  <rect x="850" y="195" width="200" height="35" fill="#FFEDB7" stroke="#D9D9D9" stroke-width="1" />
  <rect x="850" y="230" width="200" height="35" fill="#FFF5D6" stroke="#D9D9D9" stroke-width="1" />
  <rect x="850" y="265" width="200" height="35" fill="#FFEDB7" stroke="#D9D9D9" stroke-width="1" />
  <rect x="850" y="300" width="200" height="50" fill="#FFF5D6" stroke="#D9D9D9" stroke-width="1" />

  <!-- Models Visualization Section -->
  <text x="450" y="380" class="subtitle">Architecture Visualization</text>

  <!-- Shared Memory Model -->
  <rect x="100" y="400" width="200" height="180" class="model-box" />
  <text x="200" y="420" class="section-label">Shared Memory</text>
  
  <rect x="130" y="520" width="140" height="40" class="memory-box" />
  <text x="200" y="545" text-anchor="middle" fill="white">Shared Memory</text>
  
  <circle cx="150" cy="465" r="20" class="cpu-circle" />
  <text x="150" y="470" text-anchor="middle" fill="white">CPU</text>
  <circle cx="200" cy="465" r="20" class="cpu-circle" />
  <text x="200" y="470" text-anchor="middle" fill="white">CPU</text>
  <circle cx="250" cy="465" r="20" class="cpu-circle" />
  <text x="250" y="470" text-anchor="middle" fill="white">CPU</text>
  
  <path d="M 150 485 L 150 520" class="arrow" />
  <path d="M 200 485 L 200 520" class="arrow" />
  <path d="M 250 485 L 250 520" class="arrow" />

  <!-- Distributed Memory Model -->
  <rect x="350" y="400" width="200" height="180" class="model-box" />
  <text x="450" y="420" class="section-label">Distributed Memory</text>
  
  <rect x="370" y="450" width="60" height="80" class="model-box" />
  <rect x="370" y="510" width="60" height="20" class="memory-box" />
  <circle cx="400" cy="475" r="15" class="cpu-circle" />
  <text x="400" y="478" text-anchor="middle" fill="white" font-size="10">CPU</text>
  <text x="400" y="522" text-anchor="middle" font-size="10">Mem</text>
  
  <rect x="470" y="450" width="60" height="80" class="model-box" />
  <rect x="470" y="510" width="60" height="20" class="memory-box" />
  <circle cx="500" cy="475" r="15" class="cpu-circle" />
  <text x="500" y="478" text-anchor="middle" fill="white" font-size="10">CPU</text>
  <text x="500" y="522" text-anchor="middle" font-size="10">Mem</text>
  
  <line x1="430" y1="490" x2="470" y2="490" class="network-line" />
  <text x="450" y="485" text-anchor="middle" font-size="10">Network</text>

  <!-- Hybrid Model -->
  <rect x="600" y="400" width="200" height="180" class="model-box" />
  <text x="700" y="420" class="section-label">Hybrid</text>
  
  <rect x="620" y="440" width="70" height="110" class="model-box" />
  <rect x="620" y="530" width="70" height="20" class="memory-box" />
  <circle cx="640" cy="465" r="12" class="cpu-circle" />
  <text x="640" y="468" text-anchor="middle" fill="white" font-size="8">CPU</text>
  <circle cx="670" cy="465" r="12" class="cpu-circle" />
  <text x="670" y="468" text-anchor="middle" fill="white" font-size="8">CPU</text>
  <circle cx="640" cy="495" r="12" class="cpu-circle" />
  <text x="640" y="498" text-anchor="middle" fill="white" font-size="8">CPU</text>
  <circle cx="670" cy="495" r="12" class="cpu-circle" />
  <text x="670" y="498" text-anchor="middle" fill="white" font-size="8">CPU</text>
  <text x="655" y="542" text-anchor="middle" font-size="10">Memory</text>
  
  <rect x="710" y="440" width="70" height="110" class="model-box" />
  <rect x="710" y="530" width="70" height="20" class="memory-box" />
  <circle cx="730" cy="465" r="12" class="cpu-circle" />
  <text x="730" y="468" text-anchor="middle" fill="white" font-size="8">CPU</text>
  <circle cx="760" cy="465" r="12" class="cpu-circle" />
  <text x="760" y="468" text-anchor="middle" fill="white" font-size="8">CPU</text>
  <circle cx="730" cy="495" r="12" class="cpu-circle" />
  <text x="730" y="498" text-anchor="middle" fill="white" font-size="8">CPU</text>
  <circle cx="760" cy="495" r="12" class="cpu-circle" />
  <text x="760" y="498" text-anchor="middle" fill="white" font-size="8">CPU</text>
  <text x="745" y="542" text-anchor="middle" font-size="10">Memory</text>
  
  <line x1="690" y1="490" x2="710" y2="490" class="network-line" />
  <text x="700" y="485" text-anchor="middle" font-size="8">Network</text>
</svg> 