<?xml version="1.0" encoding="UTF-8" standalone="no"?>
<svg width="800" height="600" viewBox="0 0 800 600" xmlns="http://www.w3.org/2000/svg">
  <style>
    text {
      font-family: Arial, sans-serif;
      font-size: 14px;
    }
    .title {
      font-size: 20px;
      font-weight: bold;
    }
    .subtitle {
      font-size: 16px;
      font-weight: bold;
    }
    .node {
      fill: #f9f9f9;
      stroke: #004065;
      stroke-width: 2px;
    }
    .node text {
      text-anchor: middle;
      dominant-baseline: middle;
      font-size: 12px;
    }
    .node-label {
      text-anchor: middle;
      font-size: 10px;
    }
    .arrow {
      stroke: #004065;
      stroke-width: 2px;
      fill: none;
      marker-end: url(#arrowhead);
    }
    .pattern-title {
      font-size: 14px;
      font-weight: bold;
      text-anchor: middle;
    }
    .root-node {
      fill: #FFD200;
      stroke: #004065;
      stroke-width: 2px;
    }
    .description {
      font-size: 11px;
      text-anchor: middle;
    }
  </style>
  
  <defs>
    <marker id="arrowhead" markerWidth="10" markerHeight="7" refX="9" refY="3.5" orient="auto">
      <polygon points="0 0, 10 3.5, 0 7" fill="#004065"/>
    </marker>
  </defs>
  
  <!-- Title -->
  <text x="400" y="30" class="title" text-anchor="middle">Common Communication Patterns in SPMD Programs</text>
  
  <!-- Broadcast Pattern -->
  <text x="160" y="70" class="pattern-title">Broadcast (One-to-All)</text>
  <rect x="50" y="80" width="220" height="140" fill="#f0f0f0" stroke="#aaa" stroke-width="1"/>
  
  <!-- Root node -->
  <circle cx="160" cy="110" r="20" class="root-node"/>
  <text x="160" y="110" class="node-text">P0</text>
  
  <!-- Receiving nodes -->
  <circle cx="100" cy="160" r="15" class="node"/>
  <text x="100" y="160" class="node-text">P1</text>
  
  <circle cx="140" cy="160" r="15" class="node"/>
  <text x="140" y="160" class="node-text">P2</text>
  
  <circle cx="180" cy="160" r="15" class="node"/>
  <text x="180" y="160" class="node-text">P3</text>
  
  <circle cx="220" cy="160" r="15" class="node"/>
  <text x="220" y="160" class="node-text">P4</text>
  
  <!-- Arrows -->
  <line x1="160" y1="130" x2="100" y2="145" class="arrow"/>
  <line x1="160" y1="130" x2="140" y2="145" class="arrow"/>
  <line x1="160" y1="130" x2="180" y2="145" class="arrow"/>
  <line x1="160" y1="130" x2="220" y2="145" class="arrow"/>
  
  <!-- Description -->
  <text x="160" y="190" class="description">One process sends same data to all others</text>
  <text x="160" y="205" class="description">Example: Distributing configuration</text>
  
  <!-- Scatter Pattern -->
  <text x="400" y="70" class="pattern-title">Scatter (Divide and Distribute)</text>
  <rect x="290" y="80" width="220" height="140" fill="#f0f0f0" stroke="#aaa" stroke-width="1"/>
  
  <!-- Root node with data -->
  <circle cx="400" cy="110" r="20" class="root-node"/>
  <text x="400" y="110" class="node-text">P0</text>
  
  <!-- Distributed data visualization -->
  <rect x="370" y="90" width="60" height="10" fill="#e1ebf2" stroke="#004065" stroke-width="1"/>
  <line x1="385" y1="90" x2="385" y2="100" stroke="#004065" stroke-width="1"/>
  <line x1="400" y1="90" x2="400" y2="100" stroke="#004065" stroke-width="1"/>
  <line x1="415" y1="90" x2="415" y2="100" stroke="#004065" stroke-width="1"/>
  
  <!-- Receiving nodes -->
  <circle cx="340" cy="160" r="15" class="node"/>
  <text x="340" y="160" class="node-text">P1</text>
  <rect x="330" y="177" width="20" height="8" fill="#e1ebf2" stroke="#004065" stroke-width="1"/>
  
  <circle cx="380" cy="160" r="15" class="node"/>
  <text x="380" y="160" class="node-text">P2</text>
  <rect x="370" y="177" width="20" height="8" fill="#e1ebf2" stroke="#004065" stroke-width="1"/>
  
  <circle cx="420" cy="160" r="15" class="node"/>
  <text x="420" y="160" class="node-text">P3</text>
  <rect x="410" y="177" width="20" height="8" fill="#e1ebf2" stroke="#004065" stroke-width="1"/>
  
  <circle cx="460" cy="160" r="15" class="node"/>
  <text x="460" y="160" class="node-text">P4</text>
  <rect x="450" y="177" width="20" height="8" fill="#e1ebf2" stroke="#004065" stroke-width="1"/>
  
  <!-- Arrows -->
  <line x1="400" y1="130" x2="340" y2="145" class="arrow"/>
  <line x1="400" y1="130" x2="380" y2="145" class="arrow"/>
  <line x1="400" y1="130" x2="420" y2="145" class="arrow"/>
  <line x1="400" y1="130" x2="460" y2="145" class="arrow"/>
  
  <!-- Description -->
  <text x="400" y="190" class="description">Divides data into portions and</text>
  <text x="400" y="205" class="description">sends each portion to different process</text>
  
  <!-- Gather Pattern -->
  <text x="640" y="70" class="pattern-title">Gather (Collect)</text>
  <rect x="530" y="80" width="220" height="140" fill="#f0f0f0" stroke="#aaa" stroke-width="1"/>
  
  <!-- Source nodes -->
  <circle cx="580" cy="160" r="15" class="node"/>
  <text x="580" y="160" class="node-text">P1</text>
  <rect x="570" y="143" width="20" height="8" fill="#e1ebf2" stroke="#004065" stroke-width="1"/>
  
  <circle cx="620" cy="160" r="15" class="node"/>
  <text x="620" y="160" class="node-text">P2</text>
  <rect x="610" y="143" width="20" height="8" fill="#e1ebf2" stroke="#004065" stroke-width="1"/>
  
  <circle cx="660" cy="160" r="15" class="node"/>
  <text x="660" y="160" class="node-text">P3</text>
  <rect x="650" y="143" width="20" height="8" fill="#e1ebf2" stroke="#004065" stroke-width="1"/>
  
  <circle cx="700" cy="160" r="15" class="node"/>
  <text x="700" y="160" class="node-text">P4</text>
  <rect x="690" y="143" width="20" height="8" fill="#e1ebf2" stroke="#004065" stroke-width="1"/>
  
  <!-- Root node -->
  <circle cx="640" cy="110" r="20" class="root-node"/>
  <text x="640" y="110" class="node-text">P0</text>
  
  <!-- Combined data visualization -->
  <rect x="610" y="90" width="60" height="10" fill="#e1ebf2" stroke="#004065" stroke-width="1"/>
  <line x1="625" y1="90" x2="625" y2="100" stroke="#004065" stroke-width="1"/>
  <line x1="640" y1="90" x2="640" y2="100" stroke="#004065" stroke-width="1"/>
  <line x1="655" y1="90" x2="655" y2="100" stroke="#004065" stroke-width="1"/>
  
  <!-- Arrows -->
  <line x1="580" y1="145" x2="625" y2="125" class="arrow"/>
  <line x1="620" y1="145" x2="635" y2="130" class="arrow"/>
  <line x1="660" y1="145" x2="645" y2="130" class="arrow"/>
  <line x1="700" y1="145" x2="655" y2="125" class="arrow"/>
  
  <!-- Description -->
  <text x="640" y="190" class="description">Collects data from all processes</text>
  <text x="640" y="205" class="description">into one process</text>
  
  <!-- Reduction Pattern -->
  <text x="160" y="265" class="pattern-title">Reduction (Combine with Operation)</text>
  <rect x="50" y="275" width="220" height="140" fill="#f0f0f0" stroke="#aaa" stroke-width="1"/>
  
  <!-- Leaf nodes -->
  <circle cx="80" cy="355" r="15" class="node"/>
  <text x="80" y="355" class="node-text">5</text>
  
  <circle cx="120" cy="355" r="15" class="node"/>
  <text x="120" y="355" class="node-text">8</text>
  
  <circle cx="200" cy="355" r="15" class="node"/>
  <text x="200" y="355" class="node-text">2</text>
  
  <circle cx="240" cy="355" r="15" class="node"/>
  <text x="240" y="355" class="node-text">7</text>
  
  <!-- Middle nodes -->
  <circle cx="100" cy="315" r="15" class="node"/>
  <text x="100" y="315" class="node-text">13</text>
  
  <circle cx="220" cy="315" r="15" class="node"/>
  <text x="220" y="315" class="node-text">9</text>
  
  <!-- Root node -->
  <circle cx="160" cy="275" r="20" class="root-node"/>
  <text x="160" y="275" class="node-text">22</text>
  
  <!-- Arrows -->
  <line x1="80" y1="340" x2="95" y2="325" class="arrow"/>
  <line x1="120" y1="340" x2="105" y2="325" class="arrow"/>
  
  <line x1="200" y1="340" x2="215" y2="325" class="arrow"/>
  <line x1="240" y1="340" x2="225" y2="325" class="arrow"/>
  
  <line x1="100" y1="300" x2="145" y2="285" class="arrow"/>
  <line x1="220" y1="300" x2="175" y2="285" class="arrow"/>
  
  <!-- Operations -->
  <text x="100" y="297" font-size="10" fill="#004065">5+8</text>
  <text x="220" y="297" font-size="10" fill="#004065">2+7</text>
  <text x="160" y="257" font-size="10" fill="#004065">13+9</text>
  
  <!-- Description -->
  <text x="160" y="385" class="description">Combines data using an operation (sum, max, etc.)</text>
  <text x="160" y="400" class="description">Example: Finding global sum</text>
  
  <!-- All-to-All Pattern -->
  <text x="400" y="265" class="pattern-title">All-to-All</text>
  <rect x="290" y="275" width="220" height="140" fill="#f0f0f0" stroke="#aaa" stroke-width="1"/>
  
  <!-- Nodes -->
  <circle cx="330" cy="315" r="15" class="node"/>
  <text x="330" y="315" class="node-text">P0</text>
  
  <circle cx="370" cy="315" r="15" class="node"/>
  <text x="370" y="315" class="node-text">P1</text>
  
  <circle cx="410" cy="315" r="15" class="node"/>
  <text x="410" y="315" class="node-text">P2</text>
  
  <circle cx="450" cy="315" r="15" class="node"/>
  <text x="450" y="315" class="node-text">P3</text>
  
  <circle cx="490" cy="315" r="15" class="node"/>
  <text x="490" y="315" class="node-text">P4</text>
  
  <!-- Selected communication lines to avoid cluttering -->
  <line x1="330" y1="300" x2="370" y2="300" class="arrow"/>
  <line x1="330" y1="310" x2="410" y2="305" class="arrow"/>
  <line x1="330" y1="320" x2="450" y2="310" class="arrow"/>
  <line x1="330" y1="330" x2="490" y2="315" class="arrow"/>
  
  <line x1="370" y1="300" x2="330" y2="310" class="arrow"/>
  <line x1="410" y1="300" x2="330" y2="320" class="arrow"/>
  
  <line x1="450" y1="300" x2="410" y2="310" class="arrow"/>
  <line x1="490" y1="300" x2="450" y2="310" class="arrow"/>
  
  <!-- Description -->
  <text x="400" y="385" class="description">Every process sends data to every other process</text>
  <text x="400" y="400" class="description">Example: Complete matrix redistribution</text>
  
  <!-- Stencil/Neighbor Pattern -->
  <text x="640" y="265" class="pattern-title">Neighbor/Stencil</text>
  <rect x="530" y="275" width="220" height="140" fill="#f0f0f0" stroke="#aaa" stroke-width="1"/>
  
  <!-- Grid representation -->
  <rect x="555" y="290" width="40" height="40" class="node"/>
  <text x="575" y="310" class="node-text">P0</text>
  
  <rect x="605" y="290" width="40" height="40" class="node"/>
  <text x="625" y="310" class="node-text">P1</text>
  
  <rect x="655" y="290" width="40" height="40" class="node"/>
  <text x="675" y="310" class="node-text">P2</text>
  
  <rect x="555" y="340" width="40" height="40" class="node"/>
  <text x="575" y="360" class="node-text">P3</text>
  
  <rect x="605" y="340" width="40" height="40" class="node"/>
  <text x="625" y="360" class="node-text">P4</text>
  
  <rect x="655" y="340" width="40" height="40" class="node"/>
  <text x="675" y="360" class="node-text">P5</text>
  
  <!-- Communication arrows (only for P4 to neighbors) -->
  <line x1="625" y1="340" x2="625" y2="330" class="arrow"/>
  <line x1="625" y1="380" x2="625" y2="385" stroke="#004065" stroke-width="2" stroke-dasharray="4,2"/>
  <line x1="605" y1="360" x2="595" y2="360" class="arrow"/>
  <line x1="645" y1="360" x2="655" y2="360" class="arrow"/>
  
  <!-- Description -->
  <text x="640" y="385" class="description">Each process communicates with its neighbors</text>
  <text x="640" y="400" class="description">Example: Finite difference methods, ghost cells</text>
  
  <!-- Performance Impact Section -->
  <rect x="50" y="430" width="700" height="150" fill="#e1ebf2" stroke="#004065" stroke-width="2"/>
  <text x="400" y="450" class="subtitle" text-anchor="middle">Communication Pattern Performance Impact</text>
  
  <!-- Performance characteristics -->
  <text x="80" y="480" font-weight="bold">Pattern</text>
  <text x="230" y="480" font-weight="bold">Communication Volume</text>
  <text x="400" y="480" font-weight="bold">Scalability</text>
  <text x="550" y="480" font-weight="bold">Common Usage</text>
  
  <line x1="50" y1="490" x2="750" y2="490" stroke="#004065" stroke-width="1"/>
  
  <text x="80" y="510">Broadcast</text>
  <text x="230" y="510">O(n)</text>
  <text x="400" y="510">Good with optimized algos</text>
  <text x="550" y="510">Parameter distribution, initial setup</text>
  
  <text x="80" y="530">Scatter/Gather</text>
  <text x="230" y="530">O(n)</text>
  <text x="400" y="530">Good for balanced data</text>
  <text x="550" y="530">Data distribution/collection</text>
  
  <text x="80" y="550">All-to-All</text>
  <text x="230" y="550">O(n²)</text>
  <text x="400" y="550">Limited by network topology</text>
  <text x="550" y="550">Matrix transpose, FFT</text>
  
  <text x="80" y="570">Neighbor</text>
  <text x="230" y="570">O(1) per node</text>
  <text x="400" y="570">Excellent</text>
  <text x="550" y="570">Stencil codes, grid methods</text>
  
  <!-- Footer note -->
  <text x="400" y="595" class="description" text-anchor="middle" font-style="italic">Pattern selection significantly impacts scalability and performance</text>
</svg> 