<?xml version="1.0" encoding="UTF-8" standalone="no"?>
<svg viewBox="0 0 800 600" xmlns="http://www.w3.org/2000/svg">
  <!-- Background and title -->
  <rect width="800" height="600" fill="#f8f9fa" rx="10" ry="10"/>
  <text x="400" y="40" font-family="Arial, sans-serif" font-size="24" font-weight="bold" text-anchor="middle" fill="#333">Parallel Sorting Algorithms</text>
  
  <!-- Parallel Quicksort -->
  <g transform="translate(0, 30)">
    <text x="200" y="50" font-family="Arial, sans-serif" font-size="20" font-weight="bold" text-anchor="middle" fill="#333">Parallel Quicksort</text>
    
    <!-- Array representation -->
    <rect x="70" y="70" width="260" height="40" fill="#6495ED" stroke="#333" stroke-width="1"/>
    <text x="200" y="95" font-family="Arial, sans-serif" font-size="16" text-anchor="middle" fill="white">Original Array</text>
    
    <!-- Partition step -->
    <line x1="200" y1="110" x2="200" y2="130" stroke="#333" stroke-width="2"/>
    <polygon points="200,135 195,125 205,125" fill="#333"/>
    <text x="320" y="125" font-family="Arial, sans-serif" font-size="14" fill="#333">Partition around pivot</text>
    
    <rect x="70" y="145" width="120" height="40" fill="#4CAF50" stroke="#333" stroke-width="1"/>
    <text x="130" y="170" font-family="Arial, sans-serif" font-size="14" text-anchor="middle" fill="white">Elements < pivot</text>
    
    <rect x="210" y="145" width="120" height="40" fill="#FF9800" stroke="#333" stroke-width="1"/>
    <text x="270" y="170" font-family="Arial, sans-serif" font-size="14" text-anchor="middle" fill="white">Elements > pivot</text>
    
    <!-- Recursive parallel sort -->
    <line x1="130" y1="185" x2="130" y2="205" stroke="#333" stroke-width="2"/>
    <polygon points="130,210 125,200 135,200" fill="#333"/>
    
    <line x1="270" y1="185" x2="270" y2="205" stroke="#333" stroke-width="2"/>
    <polygon points="270,210 265,200 275,200" fill="#333"/>
    
    <rect x="70" y="220" width="120" height="40" fill="#4CAF50" stroke="#333" stroke-width="1" stroke-dasharray="5,2"/>
    <text x="130" y="245" font-family="Arial, sans-serif" font-size="14" text-anchor="middle" fill="white">Sort in Thread 1</text>
    
    <rect x="210" y="220" width="120" height="40" fill="#FF9800" stroke="#333" stroke-width="1" stroke-dasharray="5,2"/>
    <text x="270" y="245" font-family="Arial, sans-serif" font-size="14" text-anchor="middle" fill="white">Sort in Thread 2</text>
    
    <!-- Final array (no merge needed) -->
    <line x1="130" y1="260" x2="130" y2="290" stroke="#333" stroke-width="2"/>
    <line x1="270" y1="260" x2="270" y2="290" stroke="#333" stroke-width="2"/>
    <line x1="130" y1="290" x2="270" y2="290" stroke="#333" stroke-width="2"/>
    <polygon points="200,300 195,290 205,290" fill="#333"/>
    
    <rect x="70" y="310" width="260" height="40" fill="#673AB7" stroke="#333" stroke-width="1"/>
    <text x="200" y="335" font-family="Arial, sans-serif" font-size="16" text-anchor="middle" fill="white">Sorted Array (No Merge)</text>
    
    <!-- Key points -->
    <text x="200" y="380" font-family="Arial, sans-serif" font-size="14" text-anchor="middle" fill="#333">Key point: No merge step required</text>
  </g>
  
  <!-- Parallel Merge Sort -->
  <g transform="translate(400, 30)">
    <text x="200" y="50" font-family="Arial, sans-serif" font-size="20" font-weight="bold" text-anchor="middle" fill="#333">Parallel Merge Sort</text>
    
    <!-- Array representation -->
    <rect x="70" y="70" width="260" height="40" fill="#6495ED" stroke="#333" stroke-width="1"/>
    <text x="200" y="95" font-family="Arial, sans-serif" font-size="16" text-anchor="middle" fill="white">Original Array</text>
    
    <!-- Divide step -->
    <line x1="200" y1="110" x2="200" y2="130" stroke="#333" stroke-width="2"/>
    <polygon points="200,135 195,125 205,125" fill="#333"/>
    <text x="320" y="125" font-family="Arial, sans-serif" font-size="14" fill="#333">Divide array</text>
    
    <rect x="70" y="145" width="120" height="40" fill="#E91E63" stroke="#333" stroke-width="1"/>
    <text x="130" y="170" font-family="Arial, sans-serif" font-size="14" text-anchor="middle" fill="white">Left half</text>
    
    <rect x="210" y="145" width="120" height="40" fill="#9C27B0" stroke="#333" stroke-width="1"/>
    <text x="270" y="170" font-family="Arial, sans-serif" font-size="14" text-anchor="middle" fill="white">Right half</text>
    
    <!-- Recursive parallel sort -->
    <line x1="130" y1="185" x2="130" y2="205" stroke="#333" stroke-width="2"/>
    <polygon points="130,210 125,200 135,200" fill="#333"/>
    
    <line x1="270" y1="185" x2="270" y2="205" stroke="#333" stroke-width="2"/>
    <polygon points="270,210 265,200 275,200" fill="#333"/>
    
    <rect x="70" y="220" width="120" height="40" fill="#E91E63" stroke="#333" stroke-width="1" stroke-dasharray="5,2"/>
    <text x="130" y="245" font-family="Arial, sans-serif" font-size="14" text-anchor="middle" fill="white">Sort in Thread 1</text>
    
    <rect x="210" y="220" width="120" height="40" fill="#9C27B0" stroke="#333" stroke-width="1" stroke-dasharray="5,2"/>
    <text x="270" y="245" font-family="Arial, sans-serif" font-size="14" text-anchor="middle" fill="white">Sort in Thread 2</text>
    
    <!-- Merge step -->
    <line x1="130" y1="260" x2="130" y2="280" stroke="#333" stroke-width="2"/>
    <line x1="270" y1="260" x2="270" y2="280" stroke="#333" stroke-width="2"/>
    <line x1="130" y1="280" x2="270" y2="280" stroke="#333" stroke-width="2"/>
    <polygon points="200,290 195,280 205,280" fill="#333"/>
    <text x="320" y="280" font-family="Arial, sans-serif" font-size="14" fill="#333">Merge results</text>
    
    <rect x="70" y="300" width="260" height="40" fill="#673AB7" stroke="#333" stroke-width="1"/>
    <text x="200" y="325" font-family="Arial, sans-serif" font-size="16" text-anchor="middle" fill="white">Sorted Array (After Merge)</text>
    
    <!-- Key points -->
    <text x="200" y="365" font-family="Arial, sans-serif" font-size="14" text-anchor="middle" fill="#333">Key point: Requires merge step</text>
  </g>
  
  <!-- Considerations -->
  <g transform="translate(0, 450)">
    <text x="400" y="30" font-family="Arial, sans-serif" font-size="20" font-weight="bold" text-anchor="middle" fill="#333">Considerations for Parallel Sorting</text>
    
    <g transform="translate(50, 50)">
      <!-- Communication overhead -->
      <circle cx="20" cy="10" r="8" fill="#FF5722"/>
      <text x="40" y="15" font-family="Arial, sans-serif" font-size="16" fill="#333">Communication overhead between threads</text>
      
      <!-- Load balancing -->
      <circle cx="20" cy="45" r="8" fill="#FF5722"/>
      <text x="40" y="50" font-family="Arial, sans-serif" font-size="16" fill="#333">Load balancing (good pivot selection in quicksort)</text>
      
      <!-- Cutoff -->
      <circle cx="20" cy="80" r="8" fill="#FF5722"/>
      <text x="40" y="85" font-family="Arial, sans-serif" font-size="16" fill="#333">Cutoff to serial algorithm for small arrays</text>
      
      <!-- Parallel merge -->
      <circle cx="400" cy="10" r="8" fill="#FF5722"/>
      <text x="420" y="15" font-family="Arial, sans-serif" font-size="16" fill="#333">Parallel merging possible in merge sort</text>
      
      <!-- Task granularity -->
      <circle cx="400" cy="45" r="8" fill="#FF5722"/>
      <text x="420" y="50" font-family="Arial, sans-serif" font-size="16" fill="#333">Appropriate task granularity</text>
      
      <!-- Memory usage -->
      <circle cx="400" cy="80" r="8" fill="#FF5722"/>
      <text x="420" y="85" font-family="Arial, sans-serif" font-size="16" fill="#333">Additional memory for merge sort</text>
    </g>
  </g>
</svg>