<?xml version="1.0" encoding="UTF-8" standalone="no"?>
<svg width="900" height="600" xmlns="http://www.w3.org/2000/svg">
  <style>
    text {
      font-family: Arial, sans-serif;
      font-size: 14px;
    }
    .title {
      font-size: 18px;
      font-weight: bold;
    }
    .subtitle {
      font-size: 16px;
      font-weight: bold;
    }
    .graph-title {
      font-size: 15px;
      font-weight: bold;
      text-anchor: middle;
    }
    .axis-label {
      font-size: 12px;
      text-anchor: middle;
    }
    .axis-title {
      font-size: 14px;
      font-weight: bold;
      text-anchor: middle;
    }
    .ideal {
      stroke: #4472C4;
      stroke-width: 2;
      fill: none;
    }
    .actual {
      stroke: #ED7D31;
      stroke-width: 2;
      fill: none;
    }
    .amdahl {
      stroke: #A5A5A5;
      stroke-width: 2;
      fill: none;
      stroke-dasharray: 4 2;
    }
    .text-box {
      fill: #F2F2F2;
      stroke: #BFBFBF;
      stroke-width: 1;
      rx: 5;
      ry: 5;
    }
    .section-box {
      fill: #F2F2F2;
      stroke: #D0D0D0;
      stroke-width: 1;
      rx: 10;
      ry: 10;
    }
    .legend-item {
      font-size: 12px;
    }
  </style>

  <!-- Title -->
  <text x="450" y="30" text-anchor="middle" class="title">Scalability Concepts in Parallel Programming</text>

  <!-- Strong Scaling Section -->
  <rect x="50" y="60" width="380" height="250" class="section-box" />
  <text x="240" y="85" text-anchor="middle" class="subtitle">Strong Scaling</text>
  <text x="240" y="105" text-anchor="middle">Fixed problem size, increasing number of processors</text>
  
  <!-- Strong Scaling Graph -->
  <line x1="100" y1="260" x2="350" y2="260" stroke="#333" stroke-width="1.5" /> <!-- x-axis -->
  <line x1="100" y1="260" x2="100" y2="130" stroke="#333" stroke-width="1.5" /> <!-- y-axis -->
  
  <!-- Axis Labels -->
  <text x="225" y="290" class="axis-title">Number of Processors</text>
  <text x="70" y="195" class="axis-title" transform="rotate(-90, 70, 195)">Speedup</text>
  
  <!-- Tick marks and labels X axis -->
  <line x1="100" y1="260" x2="100" y2="265" stroke="#333" stroke-width="1" />
  <text x="100" y="280" text-anchor="middle" font-size="12">1</text>
  <line x1="150" y1="260" x2="150" y2="265" stroke="#333" stroke-width="1" />
  <text x="150" y="280" text-anchor="middle" font-size="12">2</text>
  <line x1="200" y1="260" x2="200" y2="265" stroke="#333" stroke-width="1" />
  <text x="200" y="280" text-anchor="middle" font-size="12">4</text>
  <line x1="250" y1="260" x2="250" y2="265" stroke="#333" stroke-width="1" />
  <text x="250" y="280" text-anchor="middle" font-size="12">8</text>
  <line x1="300" y1="260" x2="300" y2="265" stroke="#333" stroke-width="1" />
  <text x="300" y="280" text-anchor="middle" font-size="12">16</text>
  <line x1="350" y1="260" x2="350" y2="265" stroke="#333" stroke-width="1" />
  <text x="350" y="280" text-anchor="middle" font-size="12">32</text>
  
  <!-- Tick marks and labels Y axis -->
  <line x1="95" y1="260" x2="100" y2="260" stroke="#333" stroke-width="1" />
  <text x="90" y="265" text-anchor="end" font-size="12">1</text>
  <line x1="95" y1="230" x2="100" y2="230" stroke="#333" stroke-width="1" />
  <text x="90" y="235" text-anchor="end" font-size="12">4</text>
  <line x1="95" y1="200" x2="100" y2="200" stroke="#333" stroke-width="1" />
  <text x="90" y="205" text-anchor="end" font-size="12">8</text>
  <line x1="95" y1="170" x2="100" y2="170" stroke="#333" stroke-width="1" />
  <text x="90" y="175" text-anchor="end" font-size="12">16</text>
  <line x1="95" y1="140" x2="100" y2="140" stroke="#333" stroke-width="1" />
  <text x="90" y="145" text-anchor="end" font-size="12">32</text>
  
  <!-- Ideal scaling line -->
  <path d="M 100 260 L 150 230 L 200 200 L 250 170 L 300 140 L 350 110" class="ideal" />
  
  <!-- Actual scaling line -->
  <path d="M 100 260 L 150 234 L 200 212 L 250 192 L 300 178 L 350 170" class="actual" />
  
  <!-- Key points -->
  <rect x="120" y="120" width="190" height="60" class="text-box" />
  <text x="125" y="135" font-size="12">• Measure of how runtime decreases</text>
  <text x="125" y="150" font-size="12">• Ideal: Linear speedup (Sp = p)</text>
  <text x="125" y="165" font-size="12">• Typically limited by:</text>
  <text x="135" y="180" font-size="12">- Communication overhead</text>
  
  <!-- Weak Scaling Section -->
  <rect x="470" y="60" width="380" height="250" class="section-box" />
  <text x="660" y="85" text-anchor="middle" class="subtitle">Weak Scaling</text>
  <text x="660" y="105" text-anchor="middle">Problem size increases proportionally with processors</text>
  
  <!-- Weak Scaling Graph -->
  <line x1="520" y1="260" x2="770" y2="260" stroke="#333" stroke-width="1.5" /> <!-- x-axis -->
  <line x1="520" y1="260" x2="520" y2="130" stroke="#333" stroke-width="1.5" /> <!-- y-axis -->
  
  <!-- Axis Labels -->
  <text x="645" y="290" class="axis-title">Number of Processors</text>
  <text x="490" y="195" class="axis-title" transform="rotate(-90, 490, 195)">Efficiency</text>
  
  <!-- Tick marks and labels X axis -->
  <line x1="520" y1="260" x2="520" y2="265" stroke="#333" stroke-width="1" />
  <text x="520" y="280" text-anchor="middle" font-size="12">1</text>
  <line x1="570" y1="260" x2="570" y2="265" stroke="#333" stroke-width="1" />
  <text x="570" y="280" text-anchor="middle" font-size="12">2</text>
  <line x1="620" y1="260" x2="620" y2="265" stroke="#333" stroke-width="1" />
  <text x="620" y="280" text-anchor="middle" font-size="12">4</text>
  <line x1="670" y1="260" x2="670" y2="265" stroke="#333" stroke-width="1" />
  <text x="670" y="280" text-anchor="middle" font-size="12">8</text>
  <line x1="720" y1="260" x2="720" y2="265" stroke="#333" stroke-width="1" />
  <text x="720" y="280" text-anchor="middle" font-size="12">16</text>
  <line x1="770" y1="260" x2="770" y2="265" stroke="#333" stroke-width="1" />
  <text x="770" y="280" text-anchor="middle" font-size="12">32</text>
  
  <!-- Tick marks and labels Y axis -->
  <line x1="515" y1="260" x2="520" y2="260" stroke="#333" stroke-width="1" />
  <text x="510" y="265" text-anchor="end" font-size="12">0%</text>
  <line x1="515" y1="230" x2="520" y2="230" stroke="#333" stroke-width="1" />
  <text x="510" y="235" text-anchor="end" font-size="12">25%</text>
  <line x1="515" y1="200" x2="520" y2="200" stroke="#333" stroke-width="1" />
  <text x="510" y="205" text-anchor="end" font-size="12">50%</text>
  <line x1="515" y1="170" x2="520" y2="170" stroke="#333" stroke-width="1" />
  <text x="510" y="175" text-anchor="end" font-size="12">75%</text>
  <line x1="515" y1="140" x2="520" y2="140" stroke="#333" stroke-width="1" />
  <text x="510" y="145" text-anchor="end" font-size="12">100%</text>
  
  <!-- Ideal scaling line -->
  <path d="M 520 140 L 570 140 L 620 140 L 670 140 L 720 140 L 770 140" class="ideal" />
  
  <!-- Actual scaling line -->
  <path d="M 520 140 L 570 143 L 620 150 L 670 162 L 720 178 L 770 195" class="actual" />
  
  <!-- Key points -->
  <rect x="540" y="120" width="190" height="60" class="text-box" />
  <text x="545" y="135" font-size="12">• Measures scalability as load grows</text>
  <text x="545" y="150" font-size="12">• Ideal: Constant execution time</text>
  <text x="545" y="165" font-size="12">• Better for large-scale systems</text>
  <text x="545" y="180" font-size="12">• Can show better efficiency</text>
  
  <!-- Amdahl's Law Section -->
  <rect x="50" y="330" width="380" height="250" class="section-box" />
  <text x="240" y="355" text-anchor="middle" class="subtitle">Amdahl's Law Implications</text>
  <text x="240" y="375" text-anchor="middle">Speedup limited by sequential portion</text>
  
  <!-- Amdahl's Law Graph -->
  <line x1="100" y1="530" x2="350" y2="530" stroke="#333" stroke-width="1.5" /> <!-- x-axis -->
  <line x1="100" y1="530" x2="100" y2="400" stroke="#333" stroke-width="1.5" /> <!-- y-axis -->
  
  <!-- Axis Labels -->
  <text x="225" y="560" class="axis-title">Number of Processors</text>
  <text x="70" y="465" class="axis-title" transform="rotate(-90, 70, 465)">Maximum Speedup</text>
  
  <!-- Tick marks and labels X axis -->
  <line x1="100" y1="530" x2="100" y2="535" stroke="#333" stroke-width="1" />
  <text x="100" y="550" text-anchor="middle" font-size="12">1</text>
  <line x1="150" y1="530" x2="150" y2="535" stroke="#333" stroke-width="1" />
  <text x="150" y="550" text-anchor="middle" font-size="12">8</text>
  <line x1="200" y1="530" x2="200" y2="535" stroke="#333" stroke-width="1" />
  <text x="200" y="550" text-anchor="middle" font-size="12">32</text>
  <line x1="250" y1="530" x2="250" y2="535" stroke="#333" stroke-width="1" />
  <text x="250" y="550" text-anchor="middle" font-size="12">64</text>
  <line x1="300" y1="530" x2="300" y2="535" stroke="#333" stroke-width="1" />
  <text x="300" y="550" text-anchor="middle" font-size="12">128</text>
  <line x1="350" y1="530" x2="350" y2="535" stroke="#333" stroke-width="1" />
  <text x="350" y="550" text-anchor="middle" font-size="12">∞</text>
  
  <!-- Tick marks and labels Y axis -->
  <line x1="95" y1="530" x2="100" y2="530" stroke="#333" stroke-width="1" />
  <text x="90" y="535" text-anchor="end" font-size="12">1</text>
  <line x1="95" y1="500" x2="100" y2="500" stroke="#333" stroke-width="1" />
  <text x="90" y="505" text-anchor="end" font-size="12">5</text>
  <line x1="95" y1="470" x2="100" y2="470" stroke="#333" stroke-width="1" />
  <text x="90" y="475" text-anchor="end" font-size="12">10</text>
  <line x1="95" y1="440" x2="100" y2="440" stroke="#333" stroke-width="1" />
  <text x="90" y="445" text-anchor="end" font-size="12">15</text>
  <line x1="95" y1="410" x2="100" y2="410" stroke="#333" stroke-width="1" />
  <text x="90" y="415" text-anchor="end" font-size="12">20</text>
  
  <!-- Amdahl's Law Curves -->
  <!-- 5% sequential -->
  <path d="M 100 530 L 150 460 L 200 433 L 250 422 L 300 417 L 350 410" class="actual" />
  <text x="360" y="410" font-size="10">5% seq</text>
  
  <!-- 10% sequential -->
  <path d="M 100 530 L 150 480 L 200 463 L 250 458 L 300 455 L 350 450" class="amdahl" />
  <text x="360" y="450" font-size="10">10% seq</text>
  
  <!-- 25% sequential -->
  <path d="M 100 530 L 150 506 L 200 500 L 250 498 L 300 496 L 350 490" class="amdahl" />
  <text x="360" y="490" font-size="10">25% seq</text>
  
  <!-- Key Formula -->
  <rect x="120" y="400" width="240" height="80" class="text-box" />
  <text x="240" y="420" text-anchor="middle" font-weight="bold">Amdahl's Law:</text>
  <text x="240" y="445" text-anchor="middle" font-style="italic">Speedup ≤ 1 / (s + (1-s)/p)</text>
  <text x="240" y="465" text-anchor="middle" font-size="12">where s = sequential fraction</text>
  <text x="240" y="480" text-anchor="middle" font-size="12">p = number of processors</text>
  
  <!-- Gustafson's Law Section -->
  <rect x="470" y="330" width="380" height="250" class="section-box" />
  <text x="660" y="355" text-anchor="middle" class="subtitle">Gustafson's Law Perspective</text>
  <text x="660" y="375" text-anchor="middle">Scaled speedup with increasing problem size</text>
  
  <!-- Gustafson's Diagram -->
  <!-- Before scaling - single processor -->
  <rect x="520" y="410" width="100" height="30" fill="#4472C4" stroke="#333" stroke-width="1" />
  <rect x="620" y="410" width="20" height="30" fill="#ED7D31" stroke="#333" stroke-width="1" />
  <text x="570" y="430" text-anchor="middle" font-size="12" fill="white">Parallel</text>
  <text x="630" y="430" text-anchor="middle" font-size="10" fill="white">Seq</text>
  <text x="500" y="425" text-anchor="end" font-size="12">1 proc:</text>
  
  <!-- After scaling - multiple processors -->
  <rect x="520" y="460" width="300" height="30" fill="#4472C4" stroke="#333" stroke-width="1" />
  <rect x="820" y="460" width="20" height="30" fill="#ED7D31" stroke="#333" stroke-width="1" />
  <text x="670" y="480" text-anchor="middle" font-size="12" fill="white">Scaled Parallel</text>
  <text x="830" y="480" text-anchor="middle" font-size="10" fill="white">Seq</text>
  <text x="500" y="475" text-anchor="end" font-size="12">p procs:</text>
  
  <!-- Arrows -->
  <line x1="570" y1="445" x2="570" y2="455" stroke="#333" stroke-width="1" marker-end="url(#arrowhead)" />
  <line x1="630" y1="445" x2="830" y2="455" stroke="#333" stroke-width="1" marker-end="url(#arrowhead)" />
  
  <defs>
    <marker id="arrowhead" markerWidth="10" markerHeight="7" refX="9" refY="3.5" orient="auto">
      <polygon points="0 0, 10 3.5, 0 7" fill="#333" />
    </marker>
  </defs>
  
  <!-- Key Formula -->
  <rect x="540" y="500" width="240" height="60" class="text-box" />
  <text x="660" y="520" text-anchor="middle" font-weight="bold">Gustafson's Law:</text>
  <text x="660" y="545" text-anchor="middle" font-style="italic">Scaled Speedup = p - α·(p-1)</text>
  <text x="660" y="560" text-anchor="middle" font-size="12">where α = sequential fraction</text>
  
  <!-- Legend -->
  <rect x="50" y="585" width="800" height="15" fill="none" />
  <line x1="300" y1="592" x2="330" y2="592" class="ideal" />
  <text x="335" y="596" class="legend-item">Ideal scaling</text>
  <line x1="420" y1="592" x2="450" y2="592" class="actual" />
  <text x="455" y="596" class="legend-item">Actual performance</text>
  <line x1="580" y1="592" x2="610" y2="592" class="amdahl" />
  <text x="615" y="596" class="legend-item">Theoretical limit</text>
</svg> 