<svg xmlns="http://www.w3.org/2000/svg" viewBox="0 0 900 480" width="900" height="480">
  <rect width="900" height="480" fill="#f8f9fa"/>

  <defs>
    <marker id="mtArr" markerWidth="7" markerHeight="7" refX="5" refY="3.5" orient="auto">
      <path d="M0,0 L0,7 L7,3.5 z" fill="#555"/>
    </marker>
    <marker id="mtArrB" markerWidth="7" markerHeight="7" refX="1.5" refY="3.5" orient="auto">
      <path d="M7,0 L7,7 L0,3.5 z" fill="#555"/>
    </marker>
    <marker id="mtArrW" markerWidth="8" markerHeight="8" refX="6" refY="3.5" orient="auto">
      <path d="M0,0 L0,7 L8,3.5 z" fill="#CC8800"/>
    </marker>
    <marker id="mtArrWB" markerWidth="8" markerHeight="8" refX="1.5" refY="3.5" orient="auto">
      <path d="M8,0 L8,7 L0,3.5 z" fill="#CC8800"/>
    </marker>
  </defs>

  <!-- Title -->
  <text x="450" y="25" text-anchor="middle" font-family="Arial, sans-serif" font-size="16" font-weight="bold" fill="#004065">2D Mesh vs. 2D Torus (4×4)</text>

  <!-- Panel divider -->
  <line x1="450" y1="40" x2="450" y2="455" stroke="#ccc" stroke-width="1.5" stroke-dasharray="6,4"/>

  <!-- ===== LEFT PANEL: MESH ===== -->
  <text x="225" y="52" text-anchor="middle" font-family="Arial, sans-serif" font-size="14" font-weight="bold" fill="#004065">2D Mesh</text>

  <!-- Mesh grid: spacing=75, start at (55,75) -->
  <!-- Nodes: row-major, 4x4 -->
  <!-- Row 0: y=75, Row 1: y=150, Row 2: y=225, Row 3: y=300 -->
  <!-- Col 0: x=55, Col 1: x=130, Col 2: x=205, Col 3: x=280 -->

  <!-- Horizontal links (mesh) -->
  <line x1="72" y1="75" x2="114" y2="75" stroke="#555" stroke-width="1.5" marker-end="url(#mtArr)" marker-start="url(#mtArrB)"/>
  <line x1="147" y1="75" x2="189" y2="75" stroke="#555" stroke-width="1.5" marker-end="url(#mtArr)" marker-start="url(#mtArrB)"/>
  <line x1="222" y1="75" x2="263" y2="75" stroke="#555" stroke-width="1.5" marker-end="url(#mtArr)" marker-start="url(#mtArrB)"/>

  <line x1="72" y1="150" x2="114" y2="150" stroke="#555" stroke-width="1.5" marker-end="url(#mtArr)" marker-start="url(#mtArrB)"/>
  <line x1="147" y1="150" x2="189" y2="150" stroke="#555" stroke-width="1.5" marker-end="url(#mtArr)" marker-start="url(#mtArrB)"/>
  <line x1="222" y1="150" x2="263" y2="150" stroke="#555" stroke-width="1.5" marker-end="url(#mtArr)" marker-start="url(#mtArrB)"/>

  <line x1="72" y1="225" x2="114" y2="225" stroke="#555" stroke-width="1.5" marker-end="url(#mtArr)" marker-start="url(#mtArrB)"/>
  <line x1="147" y1="225" x2="189" y2="225" stroke="#555" stroke-width="1.5" marker-end="url(#mtArr)" marker-start="url(#mtArrB)"/>
  <line x1="222" y1="225" x2="263" y2="225" stroke="#555" stroke-width="1.5" marker-end="url(#mtArr)" marker-start="url(#mtArrB)"/>

  <line x1="72" y1="300" x2="114" y2="300" stroke="#555" stroke-width="1.5" marker-end="url(#mtArr)" marker-start="url(#mtArrB)"/>
  <line x1="147" y1="300" x2="189" y2="300" stroke="#555" stroke-width="1.5" marker-end="url(#mtArr)" marker-start="url(#mtArrB)"/>
  <line x1="222" y1="300" x2="263" y2="300" stroke="#555" stroke-width="1.5" marker-end="url(#mtArr)" marker-start="url(#mtArrB)"/>

  <!-- Vertical links (mesh) -->
  <line x1="55" y1="92" x2="55" y2="133" stroke="#555" stroke-width="1.5" marker-end="url(#mtArr)" marker-start="url(#mtArrB)"/>
  <line x1="55" y1="167" x2="55" y2="208" stroke="#555" stroke-width="1.5" marker-end="url(#mtArr)" marker-start="url(#mtArrB)"/>
  <line x1="55" y1="242" x2="55" y2="283" stroke="#555" stroke-width="1.5" marker-end="url(#mtArr)" marker-start="url(#mtArrB)"/>

  <line x1="130" y1="92" x2="130" y2="133" stroke="#555" stroke-width="1.5" marker-end="url(#mtArr)" marker-start="url(#mtArrB)"/>
  <line x1="130" y1="167" x2="130" y2="208" stroke="#555" stroke-width="1.5" marker-end="url(#mtArr)" marker-start="url(#mtArrB)"/>
  <line x1="130" y1="242" x2="130" y2="283" stroke="#555" stroke-width="1.5" marker-end="url(#mtArr)" marker-start="url(#mtArrB)"/>

  <line x1="205" y1="92" x2="205" y2="133" stroke="#555" stroke-width="1.5" marker-end="url(#mtArr)" marker-start="url(#mtArrB)"/>
  <line x1="205" y1="167" x2="205" y2="208" stroke="#555" stroke-width="1.5" marker-end="url(#mtArr)" marker-start="url(#mtArrB)"/>
  <line x1="205" y1="242" x2="205" y2="283" stroke="#555" stroke-width="1.5" marker-end="url(#mtArr)" marker-start="url(#mtArrB)"/>

  <line x1="280" y1="92" x2="280" y2="133" stroke="#555" stroke-width="1.5" marker-end="url(#mtArr)" marker-start="url(#mtArrB)"/>
  <line x1="280" y1="167" x2="280" y2="208" stroke="#555" stroke-width="1.5" marker-end="url(#mtArr)" marker-start="url(#mtArrB)"/>
  <line x1="280" y1="242" x2="280" y2="283" stroke="#555" stroke-width="1.5" marker-end="url(#mtArr)" marker-start="url(#mtArrB)"/>

  <!-- Mesh nodes -->
  <!-- Corner node 0,0 highlighted red (degree 2) -->
  <circle cx="55" cy="75" r="16" fill="#CC2222" stroke="#990000" stroke-width="2"/>
  <text x="55" y="80" text-anchor="middle" font-family="Arial, sans-serif" font-size="10" font-weight="bold" fill="white">0</text>
  <!-- Other nodes -->
  <circle cx="130" cy="75" r="15" fill="#004065" stroke="#002a40" stroke-width="1.5"/>
  <text x="130" y="80" text-anchor="middle" font-family="Arial, sans-serif" font-size="10" fill="white">1</text>
  <circle cx="205" cy="75" r="15" fill="#004065" stroke="#002a40" stroke-width="1.5"/>
  <text x="205" y="80" text-anchor="middle" font-family="Arial, sans-serif" font-size="10" fill="white">2</text>
  <circle cx="280" cy="75" r="15" fill="#CC2222" stroke="#990000" stroke-width="2"/>
  <text x="280" y="80" text-anchor="middle" font-family="Arial, sans-serif" font-size="10" font-weight="bold" fill="white">3</text>

  <circle cx="55" cy="150" r="15" fill="#004065" stroke="#002a40" stroke-width="1.5"/>
  <text x="55" y="155" text-anchor="middle" font-family="Arial, sans-serif" font-size="10" fill="white">4</text>
  <circle cx="130" cy="150" r="15" fill="#004065" stroke="#002a40" stroke-width="1.5"/>
  <text x="130" y="155" text-anchor="middle" font-family="Arial, sans-serif" font-size="10" fill="white">5</text>
  <circle cx="205" cy="150" r="15" fill="#004065" stroke="#002a40" stroke-width="1.5"/>
  <text x="205" y="155" text-anchor="middle" font-family="Arial, sans-serif" font-size="10" fill="white">6</text>
  <circle cx="280" cy="150" r="15" fill="#004065" stroke="#002a40" stroke-width="1.5"/>
  <text x="280" y="155" text-anchor="middle" font-family="Arial, sans-serif" font-size="10" fill="white">7</text>

  <circle cx="55" cy="225" r="15" fill="#004065" stroke="#002a40" stroke-width="1.5"/>
  <text x="55" y="230" text-anchor="middle" font-family="Arial, sans-serif" font-size="10" fill="white">8</text>
  <circle cx="130" cy="225" r="15" fill="#004065" stroke="#002a40" stroke-width="1.5"/>
  <text x="130" y="230" text-anchor="middle" font-family="Arial, sans-serif" font-size="10" fill="white">9</text>
  <circle cx="205" cy="225" r="15" fill="#004065" stroke="#002a40" stroke-width="1.5"/>
  <text x="205" y="230" text-anchor="middle" font-family="Arial, sans-serif" font-size="10" fill="white">10</text>
  <circle cx="280" cy="225" r="15" fill="#004065" stroke="#002a40" stroke-width="1.5"/>
  <text x="280" y="230" text-anchor="middle" font-family="Arial, sans-serif" font-size="10" fill="white">11</text>

  <circle cx="55" cy="300" r="15" fill="#CC2222" stroke="#990000" stroke-width="2"/>
  <text x="55" y="305" text-anchor="middle" font-family="Arial, sans-serif" font-size="10" font-weight="bold" fill="white">12</text>
  <circle cx="130" cy="300" r="15" fill="#004065" stroke="#002a40" stroke-width="1.5"/>
  <text x="130" y="305" text-anchor="middle" font-family="Arial, sans-serif" font-size="10" fill="white">13</text>
  <circle cx="205" cy="300" r="15" fill="#004065" stroke="#002a40" stroke-width="1.5"/>
  <text x="205" y="305" text-anchor="middle" font-family="Arial, sans-serif" font-size="10" fill="white">14</text>
  <circle cx="280" cy="300" r="15" fill="#CC2222" stroke="#990000" stroke-width="2"/>
  <text x="280" y="305" text-anchor="middle" font-family="Arial, sans-serif" font-size="10" font-weight="bold" fill="white">15</text>

  <!-- Degree 2 marker for corner -->
  <text x="28" y="65" font-family="Arial, sans-serif" font-size="9" fill="#CC2222">deg=2</text>
  <text x="167" y="155" font-family="Arial, sans-serif" font-size="8" fill="#666">deg=4</text>

  <!-- Mesh stats -->
  <text x="167" y="335" text-anchor="middle" font-family="Arial, sans-serif" font-size="12" font-weight="bold" fill="#CC2222">Corner nodes: degree 2</text>
  <text x="167" y="352" text-anchor="middle" font-family="Arial, sans-serif" font-size="12" fill="#333">Diameter: 2(√N - 1) = 6 hops</text>
  <text x="167" y="369" text-anchor="middle" font-family="Arial, sans-serif" font-size="11" fill="#666">No wraparound — edge effect!</text>

  <!-- ===== RIGHT PANEL: TORUS ===== -->
  <text x="675" y="52" text-anchor="middle" font-family="Arial, sans-serif" font-size="14" font-weight="bold" fill="#004065">2D Torus</text>

  <!-- Torus grid: spacing=75, start at (505,75) -->
  <!-- Same internal links as mesh -->
  <!-- Horizontal internal links -->
  <line x1="522" y1="75" x2="564" y2="75" stroke="#555" stroke-width="1.5" marker-end="url(#mtArr)" marker-start="url(#mtArrB)"/>
  <line x1="597" y1="75" x2="639" y2="75" stroke="#555" stroke-width="1.5" marker-end="url(#mtArr)" marker-start="url(#mtArrB)"/>
  <line x1="672" y1="75" x2="713" y2="75" stroke="#555" stroke-width="1.5" marker-end="url(#mtArr)" marker-start="url(#mtArrB)"/>

  <line x1="522" y1="150" x2="564" y2="150" stroke="#555" stroke-width="1.5" marker-end="url(#mtArr)" marker-start="url(#mtArrB)"/>
  <line x1="597" y1="150" x2="639" y2="150" stroke="#555" stroke-width="1.5" marker-end="url(#mtArr)" marker-start="url(#mtArrB)"/>
  <line x1="672" y1="150" x2="713" y2="150" stroke="#555" stroke-width="1.5" marker-end="url(#mtArr)" marker-start="url(#mtArrB)"/>

  <line x1="522" y1="225" x2="564" y2="225" stroke="#555" stroke-width="1.5" marker-end="url(#mtArr)" marker-start="url(#mtArrB)"/>
  <line x1="597" y1="225" x2="639" y2="225" stroke="#555" stroke-width="1.5" marker-end="url(#mtArr)" marker-start="url(#mtArrB)"/>
  <line x1="672" y1="225" x2="713" y2="225" stroke="#555" stroke-width="1.5" marker-end="url(#mtArr)" marker-start="url(#mtArrB)"/>

  <line x1="522" y1="300" x2="564" y2="300" stroke="#555" stroke-width="1.5" marker-end="url(#mtArr)" marker-start="url(#mtArrB)"/>
  <line x1="597" y1="300" x2="639" y2="300" stroke="#555" stroke-width="1.5" marker-end="url(#mtArr)" marker-start="url(#mtArrB)"/>
  <line x1="672" y1="300" x2="713" y2="300" stroke="#555" stroke-width="1.5" marker-end="url(#mtArr)" marker-start="url(#mtArrB)"/>

  <!-- Vertical internal links -->
  <line x1="505" y1="92" x2="505" y2="133" stroke="#555" stroke-width="1.5" marker-end="url(#mtArr)" marker-start="url(#mtArrB)"/>
  <line x1="505" y1="167" x2="505" y2="208" stroke="#555" stroke-width="1.5" marker-end="url(#mtArr)" marker-start="url(#mtArrB)"/>
  <line x1="505" y1="242" x2="505" y2="283" stroke="#555" stroke-width="1.5" marker-end="url(#mtArr)" marker-start="url(#mtArrB)"/>

  <line x1="580" y1="92" x2="580" y2="133" stroke="#555" stroke-width="1.5" marker-end="url(#mtArr)" marker-start="url(#mtArrB)"/>
  <line x1="580" y1="167" x2="580" y2="208" stroke="#555" stroke-width="1.5" marker-end="url(#mtArr)" marker-start="url(#mtArrB)"/>
  <line x1="580" y1="242" x2="580" y2="283" stroke="#555" stroke-width="1.5" marker-end="url(#mtArr)" marker-start="url(#mtArrB)"/>

  <line x1="655" y1="92" x2="655" y2="133" stroke="#555" stroke-width="1.5" marker-end="url(#mtArr)" marker-start="url(#mtArrB)"/>
  <line x1="655" y1="167" x2="655" y2="208" stroke="#555" stroke-width="1.5" marker-end="url(#mtArr)" marker-start="url(#mtArrB)"/>
  <line x1="655" y1="242" x2="655" y2="283" stroke="#555" stroke-width="1.5" marker-end="url(#mtArr)" marker-start="url(#mtArrB)"/>

  <line x1="730" y1="92" x2="730" y2="133" stroke="#555" stroke-width="1.5" marker-end="url(#mtArr)" marker-start="url(#mtArrB)"/>
  <line x1="730" y1="167" x2="730" y2="208" stroke="#555" stroke-width="1.5" marker-end="url(#mtArr)" marker-start="url(#mtArrB)"/>
  <line x1="730" y1="242" x2="730" y2="283" stroke="#555" stroke-width="1.5" marker-end="url(#mtArr)" marker-start="url(#mtArrB)"/>

  <!-- Wraparound connections - horizontal (left ↔ right) curved -->
  <!-- Row 0: col0(505,75) ↔ col3(730,75) — curve above -->
  <path d="M 505,60 Q 617,30 730,60" stroke="#CC8800" stroke-width="2" fill="none" marker-end="url(#mtArrW)" marker-start="url(#mtArrWB)"/>
  <!-- Row 1: col0(505,150) ↔ col3(730,150) -->
  <path d="M 505,135 Q 617,105 730,135" stroke="#CC8800" stroke-width="1.5" fill="none" stroke-dasharray="4,3" marker-end="url(#mtArrW)" marker-start="url(#mtArrWB)"/>
  <!-- Row 2: col0(505,225) ↔ col3(730,225) -->
  <path d="M 505,210 Q 617,180 730,210" stroke="#CC8800" stroke-width="1.5" fill="none" stroke-dasharray="4,3" marker-end="url(#mtArrW)" marker-start="url(#mtArrWB)"/>
  <!-- Row 3: col0(505,300) ↔ col3(730,300) curve below -->
  <path d="M 505,315 Q 617,345 730,315" stroke="#CC8800" stroke-width="2" fill="none" marker-end="url(#mtArrW)" marker-start="url(#mtArrWB)"/>

  <!-- Wraparound connections - vertical (top ↔ bottom) curved -->
  <!-- Col 0: row0(505,75) ↔ row3(505,300) curve left -->
  <path d="M 490,75 Q 460,187 490,300" stroke="#CC8800" stroke-width="2" fill="none" marker-end="url(#mtArrW)" marker-start="url(#mtArrWB)"/>
  <!-- Col 1: row0(580,75) ↔ row3(580,300) -->
  <path d="M 565,75 Q 540,187 565,300" stroke="#CC8800" stroke-width="1.5" fill="none" stroke-dasharray="4,3" marker-end="url(#mtArrW)" marker-start="url(#mtArrWB)"/>
  <!-- Col 2: row0(655,75) ↔ row3(655,300) -->
  <path d="M 670,75 Q 750,187 670,300" stroke="#CC8800" stroke-width="1.5" fill="none" stroke-dasharray="4,3" marker-end="url(#mtArrW)" marker-start="url(#mtArrWB)"/>
  <!-- Col 3: row0(730,75) ↔ row3(730,300) curve right -->
  <path d="M 745,75 Q 780,187 745,300" stroke="#CC8800" stroke-width="2" fill="none" marker-end="url(#mtArrW)" marker-start="url(#mtArrWB)"/>

  <!-- Torus nodes - all degree 4, mark some green -->
  <circle cx="505" cy="75" r="16" fill="#1A8C1A" stroke="#115511" stroke-width="2"/>
  <text x="505" y="80" text-anchor="middle" font-family="Arial, sans-serif" font-size="10" font-weight="bold" fill="white">0</text>
  <circle cx="580" cy="75" r="15" fill="#004065" stroke="#002a40" stroke-width="1.5"/>
  <text x="580" y="80" text-anchor="middle" font-family="Arial, sans-serif" font-size="10" fill="white">1</text>
  <circle cx="655" cy="75" r="15" fill="#004065" stroke="#002a40" stroke-width="1.5"/>
  <text x="655" y="80" text-anchor="middle" font-family="Arial, sans-serif" font-size="10" fill="white">2</text>
  <circle cx="730" cy="75" r="15" fill="#004065" stroke="#002a40" stroke-width="1.5"/>
  <text x="730" y="80" text-anchor="middle" font-family="Arial, sans-serif" font-size="10" fill="white">3</text>

  <circle cx="505" cy="150" r="15" fill="#004065" stroke="#002a40" stroke-width="1.5"/>
  <text x="505" y="155" text-anchor="middle" font-family="Arial, sans-serif" font-size="10" fill="white">4</text>
  <circle cx="580" cy="150" r="15" fill="#004065" stroke="#002a40" stroke-width="1.5"/>
  <text x="580" y="155" text-anchor="middle" font-family="Arial, sans-serif" font-size="10" fill="white">5</text>
  <circle cx="655" cy="150" r="15" fill="#004065" stroke="#002a40" stroke-width="1.5"/>
  <text x="655" y="155" text-anchor="middle" font-family="Arial, sans-serif" font-size="10" fill="white">6</text>
  <circle cx="730" cy="150" r="15" fill="#004065" stroke="#002a40" stroke-width="1.5"/>
  <text x="730" y="155" text-anchor="middle" font-family="Arial, sans-serif" font-size="10" fill="white">7</text>

  <circle cx="505" cy="225" r="15" fill="#004065" stroke="#002a40" stroke-width="1.5"/>
  <text x="505" y="230" text-anchor="middle" font-family="Arial, sans-serif" font-size="10" fill="white">8</text>
  <circle cx="580" cy="225" r="15" fill="#004065" stroke="#002a40" stroke-width="1.5"/>
  <text x="580" y="230" text-anchor="middle" font-family="Arial, sans-serif" font-size="10" fill="white">9</text>
  <circle cx="655" cy="225" r="15" fill="#004065" stroke="#002a40" stroke-width="1.5"/>
  <text x="655" y="230" text-anchor="middle" font-family="Arial, sans-serif" font-size="10" fill="white">10</text>
  <circle cx="730" cy="225" r="15" fill="#004065" stroke="#002a40" stroke-width="1.5"/>
  <text x="730" y="230" text-anchor="middle" font-family="Arial, sans-serif" font-size="10" fill="white">11</text>

  <circle cx="505" cy="300" r="15" fill="#004065" stroke="#002a40" stroke-width="1.5"/>
  <text x="505" y="305" text-anchor="middle" font-family="Arial, sans-serif" font-size="10" fill="white">12</text>
  <circle cx="580" cy="300" r="15" fill="#004065" stroke="#002a40" stroke-width="1.5"/>
  <text x="580" y="305" text-anchor="middle" font-family="Arial, sans-serif" font-size="10" fill="white">13</text>
  <circle cx="655" cy="300" r="15" fill="#004065" stroke="#002a40" stroke-width="1.5"/>
  <text x="655" y="305" text-anchor="middle" font-family="Arial, sans-serif" font-size="10" fill="white">14</text>
  <circle cx="730" cy="300" r="16" fill="#1A8C1A" stroke="#115511" stroke-width="2"/>
  <text x="730" y="305" text-anchor="middle" font-family="Arial, sans-serif" font-size="10" font-weight="bold" fill="white">15</text>

  <!-- Degree 4 markers -->
  <text x="490" y="64" font-family="Arial, sans-serif" font-size="9" fill="#1A8C1A">deg=4</text>
  <text x="615" y="153" font-family="Arial, sans-serif" font-size="8" fill="#1A8C1A">deg=4</text>

  <!-- Torus stats -->
  <text x="617" y="335" text-anchor="middle" font-family="Arial, sans-serif" font-size="12" font-weight="bold" fill="#1A8C1A">All nodes: degree 4</text>
  <text x="617" y="352" text-anchor="middle" font-family="Arial, sans-serif" font-size="12" fill="#333">Diameter: √N = 4 hops</text>
  <text x="617" y="369" text-anchor="middle" font-family="Arial, sans-serif" font-size="11" fill="#1A8C1A">No edge effect!</text>

  <!-- Wraparound legend -->
  <line x1="470" y1="400" x2="500" y2="400" stroke="#CC8800" stroke-width="2.5"/>
  <text x="510" y="405" font-family="Arial, sans-serif" font-size="11" fill="#CC8800">Wraparound connections (torus)</text>

  <!-- Bottom annotation -->
  <rect x="100" y="430" width="700" height="30" rx="5" fill="#E8F4FF" stroke="#004065" stroke-width="1"/>
  <text x="450" y="450" text-anchor="middle" font-family="Arial, sans-serif" font-size="12" font-weight="bold" fill="#004065">Torus wraps edges → all nodes equivalent, shorter diameter, better bisection bandwidth</text>
</svg>
